  0
SECTION
  2
HEADER
  9
$ACADVER
  1
AC1009
  9
$EXTMIN
 10
0.0
 20
0.0
 30
0.0
  9
$EXTMAX
 10
1000.0
 20
1000.0
 30
0.0
  9
$FILLMODE
 70
 0
  9
$SPLFRAME
 70
 1
  0
ENDSEC
  0
SECTION
  2
TABLES
  0
TABLE
  2
LAYER
 70
1
  0
LAYER
  2
0
 70
     0
 62
     7
  6
CONTINUOUS
  0
ENDTAB
  0
ENDSEC
  0
SECTION
  2
ENTITIES
  0
POLYLINE
  8
0
 62
     0
 66
     1
 10
0
 20
0
 30
0.0
 70
     1
 40
0.499999
 41
0.499999
  0
VERTEX
  8
0
 10
0.0881944
 20
53.8275
 30
0.0
 40
0.176389
 41
0.176389
  0
VERTEX
  8
0
 10
92.2927
 20
53.8275
 30
0.0
 40
0.176389
 41
0.176389
  0
VERTEX
  8
0
 10
92.2927
 20
0.0881944
 30
0.0
 40
0.176389
 41
0.176389
  0
VERTEX
  8
0
 10
0.0881944
 20
0.0881944
 30
0.0
 40
0.176389
 41
0.176389
  0
VERTEX
  8
0
 10
0.0881944
 20
53.8275
 30
0.0
 40
0.176389
 41
0.176389
  0
SEQEND
 8
0
  0
POLYLINE
  8
0
 62
     0
 66
     1
 10
0
 20
0
 30
0.0
 70
     1
 40
1.44
 41
1.44
  0
VERTEX
  8
0
 10
3.34312
 20
15.2769
 30
0.0
 40
0.508
 41
0.508
  0
VERTEX
  8
0
 10
3.12677
 20
14.7574
 30
0.0
 40
0.508
 41
0.508
  0
VERTEX
  8
0
 10
2.60725
 20
14.5411
 30
0.0
 40
0.508
 41
0.508
  0
VERTEX
  8
0
 10
2.08497
 20
14.7574
 30
0.0
 40
0.508
 41
0.508
  0
VERTEX
  8
0
 10
1.87
 20
15.2769
 30
0.0
 40
0.508
 41
0.508
  0
VERTEX
  8
0
 10
2.08497
 20
15.7992
 30
0.0
 40
0.508
 41
0.508
  0
VERTEX
  8
0
 10
2.60725
 20
16.0142
 30
0.0
 40
0.508
 41
0.508
  0
VERTEX
  8
0
 10
3.12677
 20
15.7992
 30
0.0
 40
0.508
 41
0.508
  0
VERTEX
  8
0
 10
3.34312
 20
15.2769
 30
0.0
 40
0.508
 41
0.508
  0
SEQEND
 8
0
  0
POLYLINE
  8
0
 62
     0
 66
     1
 10
0
 20
0
 30
0.0
 70
     1
 40
1.44
 41
1.44
  0
VERTEX
  8
0
 10
3.34312
 20
12.7372
 30
0.0
 40
0.508
 41
0.508
  0
VERTEX
  8
0
 10
3.12677
 20
12.2163
 30
0.0
 40
0.508
 41
0.508
  0
VERTEX
  8
0
 10
2.60725
 20
11.9999
 30
0.0
 40
0.508
 41
0.508
  0
VERTEX
  8
0
 10
2.08497
 20
12.2163
 30
0.0
 40
0.508
 41
0.508
  0
VERTEX
  8
0
 10
1.87
 20
12.7372
 30
0.0
 40
0.508
 41
0.508
  0
VERTEX
  8
0
 10
2.08497
 20
13.2595
 30
0.0
 40
0.508
 41
0.508
  0
VERTEX
  8
0
 10
2.60725
 20
13.4745
 30
0.0
 40
0.508
 41
0.508
  0
VERTEX
  8
0
 10
3.12677
 20
13.2595
 30
0.0
 40
0.508
 41
0.508
  0
VERTEX
  8
0
 10
3.34312
 20
12.7372
 30
0.0
 40
0.508
 41
0.508
  0
SEQEND
 8
0
  0
POLYLINE
  8
0
 62
     0
 66
     1
 10
0
 20
0
 30
0.0
 70
     1
 40
1.44
 41
1.44
  0
VERTEX
  8
0
 10
3.34312
 20
10.1975
 30
0.0
 40
0.508
 41
0.508
  0
VERTEX
  8
0
 10
3.12677
 20
9.67659
 30
0.0
 40
0.508
 41
0.508
  0
VERTEX
  8
0
 10
2.60725
 20
9.46023
 30
0.0
 40
0.508
 41
0.508
  0
VERTEX
  8
0
 10
2.08497
 20
9.67659
 30
0.0
 40
0.508
 41
0.508
  0
VERTEX
  8
0
 10
1.87
 20
10.1975
 30
0.0
 40
0.508
 41
0.508
  0
VERTEX
  8
0
 10
2.08497
 20
10.7184
 30
0.0
 40
0.508
 41
0.508
  0
VERTEX
  8
0
 10
2.60725
 20
10.9334
 30
0.0
 40
0.508
 41
0.508
  0
VERTEX
  8
0
 10
3.12677
 20
10.7184
 30
0.0
 40
0.508
 41
0.508
  0
VERTEX
  8
0
 10
3.34312
 20
10.1975
 30
0.0
 40
0.508
 41
0.508
  0
SEQEND
 8
0
  0
POLYLINE
  8
0
 62
     0
 66
     1
 10
0
 20
0
 30
0.0
 70
     1
 40
1.44
 41
1.44
  0
VERTEX
  8
0
 10
3.34312
 20
7.65775
 30
0.0
 40
0.508
 41
0.508
  0
VERTEX
  8
0
 10
3.12677
 20
7.13687
 30
0.0
 40
0.508
 41
0.508
  0
VERTEX
  8
0
 10
2.60725
 20
6.92051
 30
0.0
 40
0.508
 41
0.508
  0
VERTEX
  8
0
 10
2.08497
 20
7.13687
 30
0.0
 40
0.508
 41
0.508
  0
VERTEX
  8
0
 10
1.87
 20
7.65775
 30
0.0
 40
0.508
 41
0.508
  0
VERTEX
  8
0
 10
2.08497
 20
8.17866
 30
0.0
 40
0.508
 41
0.508
  0
VERTEX
  8
0
 10
2.60725
 20
8.39364
 30
0.0
 40
0.508
 41
0.508
  0
VERTEX
  8
0
 10
3.12677
 20
8.17866
 30
0.0
 40
0.508
 41
0.508
  0
VERTEX
  8
0
 10
3.34312
 20
7.65775
 30
0.0
 40
0.508
 41
0.508
  0
SEQEND
 8
0
  0
POLYLINE
  8
0
 62
     0
 66
     1
 10
0
 20
0
 30
0.0
 70
     1
 40
1.44
 41
1.44
  0
VERTEX
  8
0
 10
31.2842
 20
15.2769
 30
0.0
 40
0.508
 41
0.508
  0
VERTEX
  8
0
 10
31.0679
 20
14.7574
 30
0.0
 40
0.508
 41
0.508
  0
VERTEX
  8
0
 10
30.547
 20
14.5411
 30
0.0
 40
0.508
 41
0.508
  0
VERTEX
  8
0
 10
30.0247
 20
14.7574
 30
0.0
 40
0.508
 41
0.508
  0
VERTEX
  8
0
 10
29.8097
 20
15.2769
 30
0.0
 40
0.508
 41
0.508
  0
VERTEX
  8
0
 10
30.0247
 20
15.7992
 30
0.0
 40
0.508
 41
0.508
  0
VERTEX
  8
0
 10
30.547
 20
16.0142
 30
0.0
 40
0.508
 41
0.508
  0
VERTEX
  8
0
 10
31.0679
 20
15.7992
 30
0.0
 40
0.508
 41
0.508
  0
VERTEX
  8
0
 10
31.2842
 20
15.2769
 30
0.0
 40
0.508
 41
0.508
  0
SEQEND
 8
0
  0
POLYLINE
  8
0
 62
     0
 66
     1
 10
0
 20
0
 30
0.0
 70
     1
 40
1.44
 41
1.44
  0
VERTEX
  8
0
 10
31.2842
 20
12.7372
 30
0.0
 40
0.508
 41
0.508
  0
VERTEX
  8
0
 10
31.0679
 20
12.2163
 30
0.0
 40
0.508
 41
0.508
  0
VERTEX
  8
0
 10
30.547
 20
11.9999
 30
0.0
 40
0.508
 41
0.508
  0
VERTEX
  8
0
 10
30.0247
 20
12.2163
 30
0.0
 40
0.508
 41
0.508
  0
VERTEX
  8
0
 10
29.8097
 20
12.7372
 30
0.0
 40
0.508
 41
0.508
  0
VERTEX
  8
0
 10
30.0247
 20
13.2595
 30
0.0
 40
0.508
 41
0.508
  0
VERTEX
  8
0
 10
30.547
 20
13.4745
 30
0.0
 40
0.508
 41
0.508
  0
VERTEX
  8
0
 10
31.0679
 20
13.2595
 30
0.0
 40
0.508
 41
0.508
  0
VERTEX
  8
0
 10
31.2842
 20
12.7372
 30
0.0
 40
0.508
 41
0.508
  0
SEQEND
 8
0
  0
POLYLINE
  8
0
 62
     0
 66
     1
 10
0
 20
0
 30
0.0
 70
     1
 40
1.44
 41
1.44
  0
VERTEX
  8
0
 10
31.2842
 20
10.1975
 30
0.0
 40
0.508
 41
0.508
  0
VERTEX
  8
0
 10
31.0679
 20
9.67659
 30
0.0
 40
0.508
 41
0.508
  0
VERTEX
  8
0
 10
30.547
 20
9.46023
 30
0.0
 40
0.508
 41
0.508
  0
VERTEX
  8
0
 10
30.0247
 20
9.67659
 30
0.0
 40
0.508
 41
0.508
  0
VERTEX
  8
0
 10
29.8097
 20
10.1975
 30
0.0
 40
0.508
 41
0.508
  0
VERTEX
  8
0
 10
30.0247
 20
10.7184
 30
0.0
 40
0.508
 41
0.508
  0
VERTEX
  8
0
 10
30.547
 20
10.9334
 30
0.0
 40
0.508
 41
0.508
  0
VERTEX
  8
0
 10
31.0679
 20
10.7184
 30
0.0
 40
0.508
 41
0.508
  0
VERTEX
  8
0
 10
31.2842
 20
10.1975
 30
0.0
 40
0.508
 41
0.508
  0
SEQEND
 8
0
  0
POLYLINE
  8
0
 62
     0
 66
     1
 10
0
 20
0
 30
0.0
 70
     1
 40
1.44
 41
1.44
  0
VERTEX
  8
0
 10
31.2842
 20
7.65775
 30
0.0
 40
0.508
 41
0.508
  0
VERTEX
  8
0
 10
31.0679
 20
7.13687
 30
0.0
 40
0.508
 41
0.508
  0
VERTEX
  8
0
 10
30.547
 20
6.92051
 30
0.0
 40
0.508
 41
0.508
  0
VERTEX
  8
0
 10
30.0247
 20
7.13687
 30
0.0
 40
0.508
 41
0.508
  0
VERTEX
  8
0
 10
29.8097
 20
7.65775
 30
0.0
 40
0.508
 41
0.508
  0
VERTEX
  8
0
 10
30.0247
 20
8.17866
 30
0.0
 40
0.508
 41
0.508
  0
VERTEX
  8
0
 10
30.547
 20
8.39364
 30
0.0
 40
0.508
 41
0.508
  0
VERTEX
  8
0
 10
31.0679
 20
8.17866
 30
0.0
 40
0.508
 41
0.508
  0
VERTEX
  8
0
 10
31.2842
 20
7.65775
 30
0.0
 40
0.508
 41
0.508
  0
SEQEND
 8
0
  0
POLYLINE
  8
0
 62
     0
 66
     1
 10
0
 20
0
 30
0.0
 70
     1
 40
1.44
 41
1.44
  0
VERTEX
  8
0
 10
61.0263
 20
5.85392
 30
0.0
 40
0.508
 41
0.508
  0
VERTEX
  8
0
 10
61.5474
 20
5.63894
 30
0.0
 40
0.508
 41
0.508
  0
VERTEX
  8
0
 10
61.7636
 20
5.11665
 30
0.0
 40
0.508
 41
0.508
  0
VERTEX
  8
0
 10
61.5474
 20
4.59715
 30
0.0
 40
0.508
 41
0.508
  0
VERTEX
  8
0
 10
61.0263
 20
4.38079
 30
0.0
 40
0.508
 41
0.508
  0
VERTEX
  8
0
 10
60.5056
 20
4.59715
 30
0.0
 40
0.508
 41
0.508
  0
VERTEX
  8
0
 10
60.2904
 20
5.11665
 30
0.0
 40
0.508
 41
0.508
  0
VERTEX
  8
0
 10
60.5056
 20
5.63894
 30
0.0
 40
0.508
 41
0.508
  0
VERTEX
  8
0
 10
61.0263
 20
5.85392
 30
0.0
 40
0.508
 41
0.508
  0
SEQEND
 8
0
  0
POLYLINE
  8
0
 62
     0
 66
     1
 10
0
 20
0
 30
0.0
 70
     1
 40
1.44
 41
1.44
  0
VERTEX
  8
0
 10
63.5674
 20
5.85392
 30
0.0
 40
0.508
 41
0.508
  0
VERTEX
  8
0
 10
64.087
 20
5.63894
 30
0.0
 40
0.508
 41
0.508
  0
VERTEX
  8
0
 10
64.3033
 20
5.11665
 30
0.0
 40
0.508
 41
0.508
  0
VERTEX
  8
0
 10
64.087
 20
4.59715
 30
0.0
 40
0.508
 41
0.508
  0
VERTEX
  8
0
 10
63.5674
 20
4.38079
 30
0.0
 40
0.508
 41
0.508
  0
VERTEX
  8
0
 10
63.0453
 20
4.59715
 30
0.0
 40
0.508
 41
0.508
  0
VERTEX
  8
0
 10
62.8304
 20
5.11665
 30
0.0
 40
0.508
 41
0.508
  0
VERTEX
  8
0
 10
63.0453
 20
5.63894
 30
0.0
 40
0.508
 41
0.508
  0
VERTEX
  8
0
 10
63.5674
 20
5.85392
 30
0.0
 40
0.508
 41
0.508
  0
SEQEND
 8
0
  0
POLYLINE
  8
0
 62
     0
 66
     1
 10
0
 20
0
 30
0.0
 70
     1
 40
1.44
 41
1.44
  0
VERTEX
  8
0
 10
74.4252
 20
12.7372
 30
0.0
 40
0.508
 41
0.508
  0
VERTEX
  8
0
 10
74.2199
 20
12.2439
 30
0.0
 40
0.508
 41
0.508
  0
VERTEX
  8
0
 10
73.7263
 20
12.0385
 30
0.0
 40
0.508
 41
0.508
  0
VERTEX
  8
0
 10
73.2317
 20
12.2439
 30
0.0
 40
0.508
 41
0.508
  0
VERTEX
  8
0
 10
73.0278
 20
12.7372
 30
0.0
 40
0.508
 41
0.508
  0
VERTEX
  8
0
 10
73.2317
 20
13.2319
 30
0.0
 40
0.508
 41
0.508
  0
VERTEX
  8
0
 10
73.7263
 20
13.4359
 30
0.0
 40
0.508
 41
0.508
  0
VERTEX
  8
0
 10
74.2199
 20
13.2319
 30
0.0
 40
0.508
 41
0.508
  0
VERTEX
  8
0
 10
74.4252
 20
12.7372
 30
0.0
 40
0.508
 41
0.508
  0
SEQEND
 8
0
  0
POLYLINE
  8
0
 62
     0
 66
     1
 10
0
 20
0
 30
0.0
 70
     1
 40
1.44
 41
1.44
  0
VERTEX
  8
0
 10
84.5855
 20
12.7372
 30
0.0
 40
0.508
 41
0.508
  0
VERTEX
  8
0
 10
84.3802
 20
12.2439
 30
0.0
 40
0.508
 41
0.508
  0
VERTEX
  8
0
 10
83.8867
 20
12.0385
 30
0.0
 40
0.508
 41
0.508
  0
VERTEX
  8
0
 10
83.3921
 20
12.2439
 30
0.0
 40
0.508
 41
0.508
  0
VERTEX
  8
0
 10
83.1882
 20
12.7372
 30
0.0
 40
0.508
 41
0.508
  0
VERTEX
  8
0
 10
83.3921
 20
13.2319
 30
0.0
 40
0.508
 41
0.508
  0
VERTEX
  8
0
 10
83.8867
 20
13.4359
 30
0.0
 40
0.508
 41
0.508
  0
VERTEX
  8
0
 10
84.3802
 20
13.2319
 30
0.0
 40
0.508
 41
0.508
  0
VERTEX
  8
0
 10
84.5855
 20
12.7372
 30
0.0
 40
0.508
 41
0.508
  0
SEQEND
 8
0
  0
POLYLINE
  8
0
 62
     0
 66
     1
 10
0
 20
0
 30
0.0
 70
     1
 40
1.44
 41
1.44
  0
VERTEX
  8
0
 10
78.1085
 20
26.1359
 30
0.0
 40
0.508
 41
0.508
  0
VERTEX
  8
0
 10
78.1085
 20
24.7385
 30
0.0
 40
0.508
 41
0.508
  0
VERTEX
  8
0
 10
79.5059
 20
24.7385
 30
0.0
 40
0.508
 41
0.508
  0
VERTEX
  8
0
 10
79.5059
 20
26.1359
 30
0.0
 40
0.508
 41
0.508
  0
VERTEX
  8
0
 10
78.1085
 20
26.1359
 30
0.0
 40
0.508
 41
0.508
  0
SEQEND
 8
0
  0
POLYLINE
  8
0
 62
     0
 66
     1
 10
0
 20
0
 30
0.0
 70
     1
 40
1.44
 41
1.44
  0
VERTEX
  8
0
 10
78.8074
 20
24.7385
 30
0.0
 40
0.508
 41
0.508
  0
VERTEX
  8
0
 10
78.3124
 20
24.9439
 30
0.0
 40
0.508
 41
0.508
  0
VERTEX
  8
0
 10
78.1085
 20
25.4372
 30
0.0
 40
0.508
 41
0.508
  0
VERTEX
  8
0
 10
78.3124
 20
25.9319
 30
0.0
 40
0.508
 41
0.508
  0
VERTEX
  8
0
 10
78.8074
 20
26.1359
 30
0.0
 40
0.508
 41
0.508
  0
VERTEX
  8
0
 10
79.3006
 20
25.9319
 30
0.0
 40
0.508
 41
0.508
  0
VERTEX
  8
0
 10
79.5059
 20
25.4372
 30
0.0
 40
0.508
 41
0.508
  0
VERTEX
  8
0
 10
79.3006
 20
24.9439
 30
0.0
 40
0.508
 41
0.508
  0
VERTEX
  8
0
 10
78.8074
 20
24.7385
 30
0.0
 40
0.508
 41
0.508
  0
SEQEND
 8
0
  0
POLYLINE
  8
0
 62
     0
 66
     1
 10
0
 20
0
 30
0.0
 70
     1
 40
1.44
 41
1.44
  0
VERTEX
  8
0
 10
78.8074
 20
17.1194
 30
0.0
 40
0.508
 41
0.508
  0
VERTEX
  8
0
 10
78.3124
 20
17.3233
 30
0.0
 40
0.508
 41
0.508
  0
VERTEX
  8
0
 10
78.1085
 20
17.8167
 30
0.0
 40
0.508
 41
0.508
  0
VERTEX
  8
0
 10
78.3124
 20
18.3114
 30
0.0
 40
0.508
 41
0.508
  0
VERTEX
  8
0
 10
78.8074
 20
18.5153
 30
0.0
 40
0.508
 41
0.508
  0
VERTEX
  8
0
 10
79.3006
 20
18.3114
 30
0.0
 40
0.508
 41
0.508
  0
VERTEX
  8
0
 10
79.5059
 20
17.8167
 30
0.0
 40
0.508
 41
0.508
  0
VERTEX
  8
0
 10
79.3006
 20
17.3233
 30
0.0
 40
0.508
 41
0.508
  0
VERTEX
  8
0
 10
78.8074
 20
17.1194
 30
0.0
 40
0.508
 41
0.508
  0
SEQEND
 8
0
  0
POLYLINE
  8
0
 62
     0
 66
     1
 10
0
 20
0
 30
0.0
 70
     1
 40
1.44
 41
1.44
  0
VERTEX
  8
0
 10
76.2663
 20
24.7385
 30
0.0
 40
0.508
 41
0.508
  0
VERTEX
  8
0
 10
75.7728
 20
24.9439
 30
0.0
 40
0.508
 41
0.508
  0
VERTEX
  8
0
 10
75.5689
 20
25.4372
 30
0.0
 40
0.508
 41
0.508
  0
VERTEX
  8
0
 10
75.7728
 20
25.9319
 30
0.0
 40
0.508
 41
0.508
  0
VERTEX
  8
0
 10
76.2663
 20
26.1359
 30
0.0
 40
0.508
 41
0.508
  0
VERTEX
  8
0
 10
76.7595
 20
25.9319
 30
0.0
 40
0.508
 41
0.508
  0
VERTEX
  8
0
 10
76.9648
 20
25.4372
 30
0.0
 40
0.508
 41
0.508
  0
VERTEX
  8
0
 10
76.7595
 20
24.9439
 30
0.0
 40
0.508
 41
0.508
  0
VERTEX
  8
0
 10
76.2663
 20
24.7385
 30
0.0
 40
0.508
 41
0.508
  0
SEQEND
 8
0
  0
POLYLINE
  8
0
 62
     0
 66
     1
 10
0
 20
0
 30
0.0
 70
     1
 40
1.44
 41
1.44
  0
VERTEX
  8
0
 10
76.2663
 20
17.1194
 30
0.0
 40
0.508
 41
0.508
  0
VERTEX
  8
0
 10
75.7728
 20
17.3233
 30
0.0
 40
0.508
 41
0.508
  0
VERTEX
  8
0
 10
75.5689
 20
17.8167
 30
0.0
 40
0.508
 41
0.508
  0
VERTEX
  8
0
 10
75.7728
 20
18.3114
 30
0.0
 40
0.508
 41
0.508
  0
VERTEX
  8
0
 10
76.2663
 20
18.5153
 30
0.0
 40
0.508
 41
0.508
  0
VERTEX
  8
0
 10
76.7595
 20
18.3114
 30
0.0
 40
0.508
 41
0.508
  0
VERTEX
  8
0
 10
76.9648
 20
17.8167
 30
0.0
 40
0.508
 41
0.508
  0
VERTEX
  8
0
 10
76.7595
 20
17.3233
 30
0.0
 40
0.508
 41
0.508
  0
VERTEX
  8
0
 10
76.2663
 20
17.1194
 30
0.0
 40
0.508
 41
0.508
  0
SEQEND
 8
0
  0
POLYLINE
  8
0
 62
     0
 66
     1
 10
0
 20
0
 30
0.0
 70
     1
 40
1.44
 41
1.44
  0
VERTEX
  8
0
 10
73.7263
 20
24.7385
 30
0.0
 40
0.508
 41
0.508
  0
VERTEX
  8
0
 10
73.2317
 20
24.9439
 30
0.0
 40
0.508
 41
0.508
  0
VERTEX
  8
0
 10
73.0278
 20
25.4372
 30
0.0
 40
0.508
 41
0.508
  0
VERTEX
  8
0
 10
73.2317
 20
25.9319
 30
0.0
 40
0.508
 41
0.508
  0
VERTEX
  8
0
 10
73.7263
 20
26.1359
 30
0.0
 40
0.508
 41
0.508
  0
VERTEX
  8
0
 10
74.2199
 20
25.9319
 30
0.0
 40
0.508
 41
0.508
  0
VERTEX
  8
0
 10
74.4252
 20
25.4372
 30
0.0
 40
0.508
 41
0.508
  0
VERTEX
  8
0
 10
74.2199
 20
24.9439
 30
0.0
 40
0.508
 41
0.508
  0
VERTEX
  8
0
 10
73.7263
 20
24.7385
 30
0.0
 40
0.508
 41
0.508
  0
SEQEND
 8
0
  0
POLYLINE
  8
0
 62
     0
 66
     1
 10
0
 20
0
 30
0.0
 70
     1
 40
1.44
 41
1.44
  0
VERTEX
  8
0
 10
73.7263
 20
17.1194
 30
0.0
 40
0.508
 41
0.508
  0
VERTEX
  8
0
 10
73.2317
 20
17.3233
 30
0.0
 40
0.508
 41
0.508
  0
VERTEX
  8
0
 10
73.0278
 20
17.8167
 30
0.0
 40
0.508
 41
0.508
  0
VERTEX
  8
0
 10
73.2317
 20
18.3114
 30
0.0
 40
0.508
 41
0.508
  0
VERTEX
  8
0
 10
73.7263
 20
18.5153
 30
0.0
 40
0.508
 41
0.508
  0
VERTEX
  8
0
 10
74.2199
 20
18.3114
 30
0.0
 40
0.508
 41
0.508
  0
VERTEX
  8
0
 10
74.4252
 20
17.8167
 30
0.0
 40
0.508
 41
0.508
  0
VERTEX
  8
0
 10
74.2199
 20
17.3233
 30
0.0
 40
0.508
 41
0.508
  0
VERTEX
  8
0
 10
73.7263
 20
17.1194
 30
0.0
 40
0.508
 41
0.508
  0
SEQEND
 8
0
  0
POLYLINE
  8
0
 62
     0
 66
     1
 10
0
 20
0
 30
0.0
 70
     1
 40
1.44
 41
1.44
  0
VERTEX
  8
0
 10
71.1867
 20
24.7385
 30
0.0
 40
0.508
 41
0.508
  0
VERTEX
  8
0
 10
70.6921
 20
24.9439
 30
0.0
 40
0.508
 41
0.508
  0
VERTEX
  8
0
 10
70.4882
 20
25.4372
 30
0.0
 40
0.508
 41
0.508
  0
VERTEX
  8
0
 10
70.6921
 20
25.9319
 30
0.0
 40
0.508
 41
0.508
  0
VERTEX
  8
0
 10
71.1867
 20
26.1359
 30
0.0
 40
0.508
 41
0.508
  0
VERTEX
  8
0
 10
71.6802
 20
25.9319
 30
0.0
 40
0.508
 41
0.508
  0
VERTEX
  8
0
 10
71.8855
 20
25.4372
 30
0.0
 40
0.508
 41
0.508
  0
VERTEX
  8
0
 10
71.6802
 20
24.9439
 30
0.0
 40
0.508
 41
0.508
  0
VERTEX
  8
0
 10
71.1867
 20
24.7385
 30
0.0
 40
0.508
 41
0.508
  0
SEQEND
 8
0
  0
POLYLINE
  8
0
 62
     0
 66
     1
 10
0
 20
0
 30
0.0
 70
     1
 40
1.44
 41
1.44
  0
VERTEX
  8
0
 10
71.1867
 20
17.1194
 30
0.0
 40
0.508
 41
0.508
  0
VERTEX
  8
0
 10
70.6921
 20
17.3233
 30
0.0
 40
0.508
 41
0.508
  0
VERTEX
  8
0
 10
70.4882
 20
17.8167
 30
0.0
 40
0.508
 41
0.508
  0
VERTEX
  8
0
 10
70.6921
 20
18.3114
 30
0.0
 40
0.508
 41
0.508
  0
VERTEX
  8
0
 10
71.1867
 20
18.5153
 30
0.0
 40
0.508
 41
0.508
  0
VERTEX
  8
0
 10
71.6802
 20
18.3114
 30
0.0
 40
0.508
 41
0.508
  0
VERTEX
  8
0
 10
71.8855
 20
17.8167
 30
0.0
 40
0.508
 41
0.508
  0
VERTEX
  8
0
 10
71.6802
 20
17.3233
 30
0.0
 40
0.508
 41
0.508
  0
VERTEX
  8
0
 10
71.1867
 20
17.1194
 30
0.0
 40
0.508
 41
0.508
  0
SEQEND
 8
0
  0
POLYLINE
  8
0
 62
     0
 66
     1
 10
0
 20
0
 30
0.0
 70
     1
 40
1.44
 41
1.44
  0
VERTEX
  8
0
 10
68.647
 20
24.7385
 30
0.0
 40
0.508
 41
0.508
  0
VERTEX
  8
0
 10
68.1524
 20
24.9439
 30
0.0
 40
0.508
 41
0.508
  0
VERTEX
  8
0
 10
67.9482
 20
25.4372
 30
0.0
 40
0.508
 41
0.508
  0
VERTEX
  8
0
 10
68.1524
 20
25.9319
 30
0.0
 40
0.508
 41
0.508
  0
VERTEX
  8
0
 10
68.647
 20
26.1359
 30
0.0
 40
0.508
 41
0.508
  0
VERTEX
  8
0
 10
69.1402
 20
25.9319
 30
0.0
 40
0.508
 41
0.508
  0
VERTEX
  8
0
 10
69.3455
 20
25.4372
 30
0.0
 40
0.508
 41
0.508
  0
VERTEX
  8
0
 10
69.1402
 20
24.9439
 30
0.0
 40
0.508
 41
0.508
  0
VERTEX
  8
0
 10
68.647
 20
24.7385
 30
0.0
 40
0.508
 41
0.508
  0
SEQEND
 8
0
  0
POLYLINE
  8
0
 62
     0
 66
     1
 10
0
 20
0
 30
0.0
 70
     1
 40
1.44
 41
1.44
  0
VERTEX
  8
0
 10
68.647
 20
17.1194
 30
0.0
 40
0.508
 41
0.508
  0
VERTEX
  8
0
 10
68.1524
 20
17.3233
 30
0.0
 40
0.508
 41
0.508
  0
VERTEX
  8
0
 10
67.9482
 20
17.8167
 30
0.0
 40
0.508
 41
0.508
  0
VERTEX
  8
0
 10
68.1524
 20
18.3114
 30
0.0
 40
0.508
 41
0.508
  0
VERTEX
  8
0
 10
68.647
 20
18.5153
 30
0.0
 40
0.508
 41
0.508
  0
VERTEX
  8
0
 10
69.1402
 20
18.3114
 30
0.0
 40
0.508
 41
0.508
  0
VERTEX
  8
0
 10
69.3455
 20
17.8167
 30
0.0
 40
0.508
 41
0.508
  0
VERTEX
  8
0
 10
69.1402
 20
17.3233
 30
0.0
 40
0.508
 41
0.508
  0
VERTEX
  8
0
 10
68.647
 20
17.1194
 30
0.0
 40
0.508
 41
0.508
  0
SEQEND
 8
0
  0
POLYLINE
  8
0
 62
     0
 66
     1
 10
0
 20
0
 30
0.0
 70
     1
 40
1.44
 41
1.44
  0
VERTEX
  8
0
 10
66.1074
 20
24.7385
 30
0.0
 40
0.508
 41
0.508
  0
VERTEX
  8
0
 10
65.6124
 20
24.9439
 30
0.0
 40
0.508
 41
0.508
  0
VERTEX
  8
0
 10
65.4085
 20
25.4372
 30
0.0
 40
0.508
 41
0.508
  0
VERTEX
  8
0
 10
65.6124
 20
25.9319
 30
0.0
 40
0.508
 41
0.508
  0
VERTEX
  8
0
 10
66.1074
 20
26.1359
 30
0.0
 40
0.508
 41
0.508
  0
VERTEX
  8
0
 10
66.6006
 20
25.9319
 30
0.0
 40
0.508
 41
0.508
  0
VERTEX
  8
0
 10
66.8059
 20
25.4372
 30
0.0
 40
0.508
 41
0.508
  0
VERTEX
  8
0
 10
66.6006
 20
24.9439
 30
0.0
 40
0.508
 41
0.508
  0
VERTEX
  8
0
 10
66.1074
 20
24.7385
 30
0.0
 40
0.508
 41
0.508
  0
SEQEND
 8
0
  0
POLYLINE
  8
0
 62
     0
 66
     1
 10
0
 20
0
 30
0.0
 70
     1
 40
1.44
 41
1.44
  0
VERTEX
  8
0
 10
66.1074
 20
17.1194
 30
0.0
 40
0.508
 41
0.508
  0
VERTEX
  8
0
 10
65.6124
 20
17.3233
 30
0.0
 40
0.508
 41
0.508
  0
VERTEX
  8
0
 10
65.4085
 20
17.8167
 30
0.0
 40
0.508
 41
0.508
  0
VERTEX
  8
0
 10
65.6124
 20
18.3114
 30
0.0
 40
0.508
 41
0.508
  0
VERTEX
  8
0
 10
66.1074
 20
18.5153
 30
0.0
 40
0.508
 41
0.508
  0
VERTEX
  8
0
 10
66.6006
 20
18.3114
 30
0.0
 40
0.508
 41
0.508
  0
VERTEX
  8
0
 10
66.8059
 20
17.8167
 30
0.0
 40
0.508
 41
0.508
  0
VERTEX
  8
0
 10
66.6006
 20
17.3233
 30
0.0
 40
0.508
 41
0.508
  0
VERTEX
  8
0
 10
66.1074
 20
17.1194
 30
0.0
 40
0.508
 41
0.508
  0
SEQEND
 8
0
  0
POLYLINE
  8
0
 62
     0
 66
     1
 10
0
 20
0
 30
0.0
 70
     1
 40
1.44
 41
1.44
  0
VERTEX
  8
0
 10
63.5674
 20
24.7385
 30
0.0
 40
0.508
 41
0.508
  0
VERTEX
  8
0
 10
63.0728
 20
24.9439
 30
0.0
 40
0.508
 41
0.508
  0
VERTEX
  8
0
 10
62.8689
 20
25.4372
 30
0.0
 40
0.508
 41
0.508
  0
VERTEX
  8
0
 10
63.0728
 20
25.9319
 30
0.0
 40
0.508
 41
0.508
  0
VERTEX
  8
0
 10
63.5674
 20
26.1359
 30
0.0
 40
0.508
 41
0.508
  0
VERTEX
  8
0
 10
64.0595
 20
25.9319
 30
0.0
 40
0.508
 41
0.508
  0
VERTEX
  8
0
 10
64.2648
 20
25.4372
 30
0.0
 40
0.508
 41
0.508
  0
VERTEX
  8
0
 10
64.0595
 20
24.9439
 30
0.0
 40
0.508
 41
0.508
  0
VERTEX
  8
0
 10
63.5674
 20
24.7385
 30
0.0
 40
0.508
 41
0.508
  0
SEQEND
 8
0
  0
POLYLINE
  8
0
 62
     0
 66
     1
 10
0
 20
0
 30
0.0
 70
     1
 40
1.44
 41
1.44
  0
VERTEX
  8
0
 10
63.5674
 20
17.1194
 30
0.0
 40
0.508
 41
0.508
  0
VERTEX
  8
0
 10
63.0728
 20
17.3233
 30
0.0
 40
0.508
 41
0.508
  0
VERTEX
  8
0
 10
62.8689
 20
17.8167
 30
0.0
 40
0.508
 41
0.508
  0
VERTEX
  8
0
 10
63.0728
 20
18.3114
 30
0.0
 40
0.508
 41
0.508
  0
VERTEX
  8
0
 10
63.5674
 20
18.5153
 30
0.0
 40
0.508
 41
0.508
  0
VERTEX
  8
0
 10
64.0595
 20
18.3114
 30
0.0
 40
0.508
 41
0.508
  0
VERTEX
  8
0
 10
64.2648
 20
17.8167
 30
0.0
 40
0.508
 41
0.508
  0
VERTEX
  8
0
 10
64.0595
 20
17.3233
 30
0.0
 40
0.508
 41
0.508
  0
VERTEX
  8
0
 10
63.5674
 20
17.1194
 30
0.0
 40
0.508
 41
0.508
  0
SEQEND
 8
0
  0
POLYLINE
  8
0
 62
     0
 66
     1
 10
0
 20
0
 30
0.0
 70
     1
 40
1.44
 41
1.44
  0
VERTEX
  8
0
 10
61.0263
 20
24.7385
 30
0.0
 40
0.508
 41
0.508
  0
VERTEX
  8
0
 10
60.5317
 20
24.9439
 30
0.0
 40
0.508
 41
0.508
  0
VERTEX
  8
0
 10
60.3278
 20
25.4372
 30
0.0
 40
0.508
 41
0.508
  0
VERTEX
  8
0
 10
60.5317
 20
25.9319
 30
0.0
 40
0.508
 41
0.508
  0
VERTEX
  8
0
 10
61.0263
 20
26.1359
 30
0.0
 40
0.508
 41
0.508
  0
VERTEX
  8
0
 10
61.5199
 20
25.9319
 30
0.0
 40
0.508
 41
0.508
  0
VERTEX
  8
0
 10
61.7252
 20
25.4372
 30
0.0
 40
0.508
 41
0.508
  0
VERTEX
  8
0
 10
61.5199
 20
24.9439
 30
0.0
 40
0.508
 41
0.508
  0
VERTEX
  8
0
 10
61.0263
 20
24.7385
 30
0.0
 40
0.508
 41
0.508
  0
SEQEND
 8
0
  0
POLYLINE
  8
0
 62
     0
 66
     1
 10
0
 20
0
 30
0.0
 70
     1
 40
1.44
 41
1.44
  0
VERTEX
  8
0
 10
61.0263
 20
17.1194
 30
0.0
 40
0.508
 41
0.508
  0
VERTEX
  8
0
 10
60.5317
 20
17.3233
 30
0.0
 40
0.508
 41
0.508
  0
VERTEX
  8
0
 10
60.3278
 20
17.8167
 30
0.0
 40
0.508
 41
0.508
  0
VERTEX
  8
0
 10
60.5317
 20
18.3114
 30
0.0
 40
0.508
 41
0.508
  0
VERTEX
  8
0
 10
61.0263
 20
18.5153
 30
0.0
 40
0.508
 41
0.508
  0
VERTEX
  8
0
 10
61.5199
 20
18.3114
 30
0.0
 40
0.508
 41
0.508
  0
VERTEX
  8
0
 10
61.7252
 20
17.8167
 30
0.0
 40
0.508
 41
0.508
  0
VERTEX
  8
0
 10
61.5199
 20
17.3233
 30
0.0
 40
0.508
 41
0.508
  0
VERTEX
  8
0
 10
61.0263
 20
17.1194
 30
0.0
 40
0.508
 41
0.508
  0
SEQEND
 8
0
  0
POLYLINE
  8
0
 62
     0
 66
     1
 10
0
 20
0
 30
0.0
 70
     1
 40
1.224
 41
1.224
  0
VERTEX
  8
0
 10
88.9663
 20
33.6035
 30
0.0
 40
0.4318
 41
0.4318
  0
VERTEX
  8
0
 10
88.4534
 20
33.8157
 30
0.0
 40
0.4318
 41
0.4318
  0
VERTEX
  8
0
 10
88.2428
 20
34.3269
 30
0.0
 40
0.4318
 41
0.4318
  0
VERTEX
  8
0
 10
88.4534
 20
34.8396
 30
0.0
 40
0.4318
 41
0.4318
  0
VERTEX
  8
0
 10
88.9663
 20
35.0518
 30
0.0
 40
0.4318
 41
0.4318
  0
VERTEX
  8
0
 10
89.4789
 20
34.8396
 30
0.0
 40
0.4318
 41
0.4318
  0
VERTEX
  8
0
 10
89.6909
 20
34.3269
 30
0.0
 40
0.4318
 41
0.4318
  0
VERTEX
  8
0
 10
89.4789
 20
33.8157
 30
0.0
 40
0.4318
 41
0.4318
  0
VERTEX
  8
0
 10
88.9663
 20
33.6035
 30
0.0
 40
0.4318
 41
0.4318
  0
SEQEND
 8
0
  0
POLYLINE
  8
0
 62
     0
 66
     1
 10
0
 20
0
 30
0.0
 70
     1
 40
1.224
 41
1.224
  0
VERTEX
  8
0
 10
88.9663
 20
36.1431
 30
0.0
 40
0.4318
 41
0.4318
  0
VERTEX
  8
0
 10
88.4534
 20
36.3555
 30
0.0
 40
0.4318
 41
0.4318
  0
VERTEX
  8
0
 10
88.2428
 20
36.8667
 30
0.0
 40
0.4318
 41
0.4318
  0
VERTEX
  8
0
 10
88.4534
 20
37.3807
 30
0.0
 40
0.4318
 41
0.4318
  0
VERTEX
  8
0
 10
88.9663
 20
37.5916
 30
0.0
 40
0.4318
 41
0.4318
  0
VERTEX
  8
0
 10
89.4789
 20
37.3807
 30
0.0
 40
0.4318
 41
0.4318
  0
VERTEX
  8
0
 10
89.6909
 20
36.8667
 30
0.0
 40
0.4318
 41
0.4318
  0
VERTEX
  8
0
 10
89.4789
 20
36.3555
 30
0.0
 40
0.4318
 41
0.4318
  0
VERTEX
  8
0
 10
88.9663
 20
36.1431
 30
0.0
 40
0.4318
 41
0.4318
  0
SEQEND
 8
0
  0
POLYLINE
  8
0
 62
     0
 66
     1
 10
0
 20
0
 30
0.0
 70
     1
 40
1.224
 41
1.224
  0
VERTEX
  8
0
 10
88.9663
 20
38.6828
 30
0.0
 40
0.4318
 41
0.4318
  0
VERTEX
  8
0
 10
88.4534
 20
38.8952
 30
0.0
 40
0.4318
 41
0.4318
  0
VERTEX
  8
0
 10
88.2428
 20
39.4077
 30
0.0
 40
0.4318
 41
0.4318
  0
VERTEX
  8
0
 10
88.4534
 20
39.9203
 30
0.0
 40
0.4318
 41
0.4318
  0
VERTEX
  8
0
 10
88.9663
 20
40.1313
 30
0.0
 40
0.4318
 41
0.4318
  0
VERTEX
  8
0
 10
89.4789
 20
39.9203
 30
0.0
 40
0.4318
 41
0.4318
  0
VERTEX
  8
0
 10
89.6909
 20
39.4077
 30
0.0
 40
0.4318
 41
0.4318
  0
VERTEX
  8
0
 10
89.4789
 20
38.8952
 30
0.0
 40
0.4318
 41
0.4318
  0
VERTEX
  8
0
 10
88.9663
 20
38.6828
 30
0.0
 40
0.4318
 41
0.4318
  0
SEQEND
 8
0
  0
POLYLINE
  8
0
 62
     0
 66
     1
 10
0
 20
0
 30
0.0
 70
     1
 40
1.224
 41
1.224
  0
VERTEX
  8
0
 10
88.9663
 20
41.2228
 30
0.0
 40
0.4318
 41
0.4318
  0
VERTEX
  8
0
 10
88.4534
 20
41.4362
 30
0.0
 40
0.4318
 41
0.4318
  0
VERTEX
  8
0
 10
88.2428
 20
41.9474
 30
0.0
 40
0.4318
 41
0.4318
  0
VERTEX
  8
0
 10
88.4534
 20
42.46
 30
0.0
 40
0.4318
 41
0.4318
  0
VERTEX
  8
0
 10
88.9663
 20
42.6709
 30
0.0
 40
0.4318
 41
0.4318
  0
VERTEX
  8
0
 10
89.4789
 20
42.46
 30
0.0
 40
0.4318
 41
0.4318
  0
VERTEX
  8
0
 10
89.6909
 20
41.9474
 30
0.0
 40
0.4318
 41
0.4318
  0
VERTEX
  8
0
 10
89.4789
 20
41.4362
 30
0.0
 40
0.4318
 41
0.4318
  0
VERTEX
  8
0
 10
88.9663
 20
41.2228
 30
0.0
 40
0.4318
 41
0.4318
  0
SEQEND
 8
0
  0
POLYLINE
  8
0
 62
     0
 66
     1
 10
0
 20
0
 30
0.0
 70
     1
 40
1.224
 41
1.224
  0
VERTEX
  8
0
 10
88.9663
 20
43.7638
 30
0.0
 40
0.4318
 41
0.4318
  0
VERTEX
  8
0
 10
88.4534
 20
43.9759
 30
0.0
 40
0.4318
 41
0.4318
  0
VERTEX
  8
0
 10
88.2428
 20
44.487
 30
0.0
 40
0.4318
 41
0.4318
  0
VERTEX
  8
0
 10
88.4534
 20
45
 30
0.0
 40
0.4318
 41
0.4318
  0
VERTEX
  8
0
 10
88.9663
 20
45.2106
 30
0.0
 40
0.4318
 41
0.4318
  0
VERTEX
  8
0
 10
89.4789
 20
45
 30
0.0
 40
0.4318
 41
0.4318
  0
VERTEX
  8
0
 10
89.6909
 20
44.487
 30
0.0
 40
0.4318
 41
0.4318
  0
VERTEX
  8
0
 10
89.4789
 20
43.9759
 30
0.0
 40
0.4318
 41
0.4318
  0
VERTEX
  8
0
 10
88.9663
 20
43.7638
 30
0.0
 40
0.4318
 41
0.4318
  0
SEQEND
 8
0
  0
POLYLINE
  8
0
 62
     0
 66
     1
 10
0
 20
0
 30
0.0
 70
     1
 40
1.224
 41
1.224
  0
VERTEX
  8
0
 10
88.9663
 20
46.3035
 30
0.0
 40
0.4318
 41
0.4318
  0
VERTEX
  8
0
 10
88.4534
 20
46.5155
 30
0.0
 40
0.4318
 41
0.4318
  0
VERTEX
  8
0
 10
88.2428
 20
47.027
 30
0.0
 40
0.4318
 41
0.4318
  0
VERTEX
  8
0
 10
88.4534
 20
47.5396
 30
0.0
 40
0.4318
 41
0.4318
  0
VERTEX
  8
0
 10
88.9663
 20
47.7502
 30
0.0
 40
0.4318
 41
0.4318
  0
VERTEX
  8
0
 10
89.4789
 20
47.5396
 30
0.0
 40
0.4318
 41
0.4318
  0
VERTEX
  8
0
 10
89.6909
 20
47.027
 30
0.0
 40
0.4318
 41
0.4318
  0
VERTEX
  8
0
 10
89.4789
 20
46.5155
 30
0.0
 40
0.4318
 41
0.4318
  0
VERTEX
  8
0
 10
88.9663
 20
46.3035
 30
0.0
 40
0.4318
 41
0.4318
  0
SEQEND
 8
0
  0
POLYLINE
  8
0
 62
     0
 66
     1
 10
0
 20
0
 30
0.0
 70
     1
 40
1.224
 41
1.224
  0
VERTEX
  8
0
 10
86.4263
 20
32.3329
 30
0.0
 40
0.4318
 41
0.4318
  0
VERTEX
  8
0
 10
85.9137
 20
32.5451
 30
0.0
 40
0.4318
 41
0.4318
  0
VERTEX
  8
0
 10
85.7031
 20
33.0577
 30
0.0
 40
0.4318
 41
0.4318
  0
VERTEX
  8
0
 10
85.9137
 20
33.5704
 30
0.0
 40
0.4318
 41
0.4318
  0
VERTEX
  8
0
 10
86.4263
 20
33.7812
 30
0.0
 40
0.4318
 41
0.4318
  0
VERTEX
  8
0
 10
86.9379
 20
33.5704
 30
0.0
 40
0.4318
 41
0.4318
  0
VERTEX
  8
0
 10
87.1513
 20
33.0577
 30
0.0
 40
0.4318
 41
0.4318
  0
VERTEX
  8
0
 10
86.9379
 20
32.5451
 30
0.0
 40
0.4318
 41
0.4318
  0
VERTEX
  8
0
 10
86.4263
 20
32.3329
 30
0.0
 40
0.4318
 41
0.4318
  0
SEQEND
 8
0
  0
POLYLINE
  8
0
 62
     0
 66
     1
 10
0
 20
0
 30
0.0
 70
     1
 40
1.224
 41
1.224
  0
VERTEX
  8
0
 10
83.8867
 20
32.3329
 30
0.0
 40
0.4318
 41
0.4318
  0
VERTEX
  8
0
 10
83.3741
 20
32.5451
 30
0.0
 40
0.4318
 41
0.4318
  0
VERTEX
  8
0
 10
83.1631
 20
33.0577
 30
0.0
 40
0.4318
 41
0.4318
  0
VERTEX
  8
0
 10
83.3741
 20
33.5704
 30
0.0
 40
0.4318
 41
0.4318
  0
VERTEX
  8
0
 10
83.8867
 20
33.7812
 30
0.0
 40
0.4318
 41
0.4318
  0
VERTEX
  8
0
 10
84.3979
 20
33.5704
 30
0.0
 40
0.4318
 41
0.4318
  0
VERTEX
  8
0
 10
84.6102
 20
33.0577
 30
0.0
 40
0.4318
 41
0.4318
  0
VERTEX
  8
0
 10
84.3979
 20
32.5451
 30
0.0
 40
0.4318
 41
0.4318
  0
VERTEX
  8
0
 10
83.8867
 20
32.3329
 30
0.0
 40
0.4318
 41
0.4318
  0
SEQEND
 8
0
  0
POLYLINE
  8
0
 62
     0
 66
     1
 10
0
 20
0
 30
0.0
 70
     1
 40
1.224
 41
1.224
  0
VERTEX
  8
0
 10
81.347
 20
32.3329
 30
0.0
 40
0.4318
 41
0.4318
  0
VERTEX
  8
0
 10
80.8344
 20
32.5451
 30
0.0
 40
0.4318
 41
0.4318
  0
VERTEX
  8
0
 10
80.6235
 20
33.0577
 30
0.0
 40
0.4318
 41
0.4318
  0
VERTEX
  8
0
 10
80.8344
 20
33.5704
 30
0.0
 40
0.4318
 41
0.4318
  0
VERTEX
  8
0
 10
81.347
 20
33.7812
 30
0.0
 40
0.4318
 41
0.4318
  0
VERTEX
  8
0
 10
81.8582
 20
33.5704
 30
0.0
 40
0.4318
 41
0.4318
  0
VERTEX
  8
0
 10
82.0706
 20
33.0577
 30
0.0
 40
0.4318
 41
0.4318
  0
VERTEX
  8
0
 10
81.8582
 20
32.5451
 30
0.0
 40
0.4318
 41
0.4318
  0
VERTEX
  8
0
 10
81.347
 20
32.3329
 30
0.0
 40
0.4318
 41
0.4318
  0
SEQEND
 8
0
  0
POLYLINE
  8
0
 62
     0
 66
     1
 10
0
 20
0
 30
0.0
 70
     1
 40
1.224
 41
1.224
  0
VERTEX
  8
0
 10
78.8074
 20
32.3329
 30
0.0
 40
0.4318
 41
0.4318
  0
VERTEX
  8
0
 10
78.2948
 20
32.5451
 30
0.0
 40
0.4318
 41
0.4318
  0
VERTEX
  8
0
 10
78.0824
 20
33.0577
 30
0.0
 40
0.4318
 41
0.4318
  0
VERTEX
  8
0
 10
78.2948
 20
33.5704
 30
0.0
 40
0.4318
 41
0.4318
  0
VERTEX
  8
0
 10
78.8074
 20
33.7812
 30
0.0
 40
0.4318
 41
0.4318
  0
VERTEX
  8
0
 10
79.3186
 20
33.5704
 30
0.0
 40
0.4318
 41
0.4318
  0
VERTEX
  8
0
 10
79.5306
 20
33.0577
 30
0.0
 40
0.4318
 41
0.4318
  0
VERTEX
  8
0
 10
79.3186
 20
32.5451
 30
0.0
 40
0.4318
 41
0.4318
  0
VERTEX
  8
0
 10
78.8074
 20
32.3329
 30
0.0
 40
0.4318
 41
0.4318
  0
SEQEND
 8
0
  0
POLYLINE
  8
0
 62
     0
 66
     1
 10
0
 20
0
 30
0.0
 70
     1
 40
1.224
 41
1.224
  0
VERTEX
  8
0
 10
76.2663
 20
32.3329
 30
0.0
 40
0.4318
 41
0.4318
  0
VERTEX
  8
0
 10
75.7534
 20
32.5451
 30
0.0
 40
0.4318
 41
0.4318
  0
VERTEX
  8
0
 10
75.5428
 20
33.0577
 30
0.0
 40
0.4318
 41
0.4318
  0
VERTEX
  8
0
 10
75.7534
 20
33.5704
 30
0.0
 40
0.4318
 41
0.4318
  0
VERTEX
  8
0
 10
76.2663
 20
33.7812
 30
0.0
 40
0.4318
 41
0.4318
  0
VERTEX
  8
0
 10
76.7789
 20
33.5704
 30
0.0
 40
0.4318
 41
0.4318
  0
VERTEX
  8
0
 10
76.9909
 20
33.0577
 30
0.0
 40
0.4318
 41
0.4318
  0
VERTEX
  8
0
 10
76.7789
 20
32.5451
 30
0.0
 40
0.4318
 41
0.4318
  0
VERTEX
  8
0
 10
76.2663
 20
32.3329
 30
0.0
 40
0.4318
 41
0.4318
  0
SEQEND
 8
0
  0
POLYLINE
  8
0
 62
     0
 66
     1
 10
0
 20
0
 30
0.0
 70
     1
 40
1.224
 41
1.224
  0
VERTEX
  8
0
 10
77.6633
 20
35.2544
 30
0.0
 40
0.4318
 41
0.4318
  0
VERTEX
  8
0
 10
77.1507
 20
35.4665
 30
0.0
 40
0.4318
 41
0.4318
  0
VERTEX
  8
0
 10
76.9401
 20
35.9791
 30
0.0
 40
0.4318
 41
0.4318
  0
VERTEX
  8
0
 10
77.1507
 20
36.4917
 30
0.0
 40
0.4318
 41
0.4318
  0
VERTEX
  8
0
 10
77.6633
 20
36.7026
 30
0.0
 40
0.4318
 41
0.4318
  0
VERTEX
  8
0
 10
78.1749
 20
36.4917
 30
0.0
 40
0.4318
 41
0.4318
  0
VERTEX
  8
0
 10
78.3883
 20
35.9791
 30
0.0
 40
0.4318
 41
0.4318
  0
VERTEX
  8
0
 10
78.1749
 20
35.4665
 30
0.0
 40
0.4318
 41
0.4318
  0
VERTEX
  8
0
 10
77.6633
 20
35.2544
 30
0.0
 40
0.4318
 41
0.4318
  0
SEQEND
 8
0
  0
POLYLINE
  8
0
 62
     0
 66
     1
 10
0
 20
0
 30
0.0
 70
     1
 40
1.224
 41
1.224
  0
VERTEX
  8
0
 10
75.1237
 20
35.2544
 30
0.0
 40
0.4318
 41
0.4318
  0
VERTEX
  8
0
 10
74.6111
 20
35.4665
 30
0.0
 40
0.4318
 41
0.4318
  0
VERTEX
  8
0
 10
74.4001
 20
35.9791
 30
0.0
 40
0.4318
 41
0.4318
  0
VERTEX
  8
0
 10
74.6111
 20
36.4917
 30
0.0
 40
0.4318
 41
0.4318
  0
VERTEX
  8
0
 10
75.1237
 20
36.7026
 30
0.0
 40
0.4318
 41
0.4318
  0
VERTEX
  8
0
 10
75.6348
 20
36.4917
 30
0.0
 40
0.4318
 41
0.4318
  0
VERTEX
  8
0
 10
75.8472
 20
35.9791
 30
0.0
 40
0.4318
 41
0.4318
  0
VERTEX
  8
0
 10
75.6348
 20
35.4665
 30
0.0
 40
0.4318
 41
0.4318
  0
VERTEX
  8
0
 10
75.1237
 20
35.2544
 30
0.0
 40
0.4318
 41
0.4318
  0
SEQEND
 8
0
  0
POLYLINE
  8
0
 62
     0
 66
     1
 10
0
 20
0
 30
0.0
 70
     1
 40
1.224
 41
1.224
  0
VERTEX
  8
0
 10
73.7263
 20
32.3329
 30
0.0
 40
0.4318
 41
0.4318
  0
VERTEX
  8
0
 10
73.2137
 20
32.5451
 30
0.0
 40
0.4318
 41
0.4318
  0
VERTEX
  8
0
 10
73.0031
 20
33.0577
 30
0.0
 40
0.4318
 41
0.4318
  0
VERTEX
  8
0
 10
73.2137
 20
33.5704
 30
0.0
 40
0.4318
 41
0.4318
  0
VERTEX
  8
0
 10
73.7263
 20
33.7812
 30
0.0
 40
0.4318
 41
0.4318
  0
VERTEX
  8
0
 10
74.2379
 20
33.5704
 30
0.0
 40
0.4318
 41
0.4318
  0
VERTEX
  8
0
 10
74.4513
 20
33.0577
 30
0.0
 40
0.4318
 41
0.4318
  0
VERTEX
  8
0
 10
74.2379
 20
32.5451
 30
0.0
 40
0.4318
 41
0.4318
  0
VERTEX
  8
0
 10
73.7263
 20
32.3329
 30
0.0
 40
0.4318
 41
0.4318
  0
SEQEND
 8
0
  0
POLYLINE
  8
0
 62
     0
 66
     1
 10
0
 20
0
 30
0.0
 70
     1
 40
1.224
 41
1.224
  0
VERTEX
  8
0
 10
71.1867
 20
32.3329
 30
0.0
 40
0.4318
 41
0.4318
  0
VERTEX
  8
0
 10
70.6741
 20
32.5451
 30
0.0
 40
0.4318
 41
0.4318
  0
VERTEX
  8
0
 10
70.4631
 20
33.0577
 30
0.0
 40
0.4318
 41
0.4318
  0
VERTEX
  8
0
 10
70.6741
 20
33.5704
 30
0.0
 40
0.4318
 41
0.4318
  0
VERTEX
  8
0
 10
71.1867
 20
33.7812
 30
0.0
 40
0.4318
 41
0.4318
  0
VERTEX
  8
0
 10
71.6979
 20
33.5704
 30
0.0
 40
0.4318
 41
0.4318
  0
VERTEX
  8
0
 10
71.9102
 20
33.0577
 30
0.0
 40
0.4318
 41
0.4318
  0
VERTEX
  8
0
 10
71.6979
 20
32.5451
 30
0.0
 40
0.4318
 41
0.4318
  0
VERTEX
  8
0
 10
71.1867
 20
32.3329
 30
0.0
 40
0.4318
 41
0.4318
  0
SEQEND
 8
0
  0
POLYLINE
  8
0
 62
     0
 66
     1
 10
0
 20
0
 30
0.0
 70
     1
 40
1.224
 41
1.224
  0
VERTEX
  8
0
 10
68.647
 20
32.3329
 30
0.0
 40
0.4318
 41
0.4318
  0
VERTEX
  8
0
 10
68.1344
 20
32.5451
 30
0.0
 40
0.4318
 41
0.4318
  0
VERTEX
  8
0
 10
67.9235
 20
33.0577
 30
0.0
 40
0.4318
 41
0.4318
  0
VERTEX
  8
0
 10
68.1344
 20
33.5704
 30
0.0
 40
0.4318
 41
0.4318
  0
VERTEX
  8
0
 10
68.647
 20
33.7812
 30
0.0
 40
0.4318
 41
0.4318
  0
VERTEX
  8
0
 10
69.1582
 20
33.5704
 30
0.0
 40
0.4318
 41
0.4318
  0
VERTEX
  8
0
 10
69.3706
 20
33.0577
 30
0.0
 40
0.4318
 41
0.4318
  0
VERTEX
  8
0
 10
69.1582
 20
32.5451
 30
0.0
 40
0.4318
 41
0.4318
  0
VERTEX
  8
0
 10
68.647
 20
32.3329
 30
0.0
 40
0.4318
 41
0.4318
  0
SEQEND
 8
0
  0
POLYLINE
  8
0
 62
     0
 66
     1
 10
0
 20
0
 30
0.0
 70
     1
 40
1.224
 41
1.224
  0
VERTEX
  8
0
 10
66.1074
 20
32.3329
 30
0.0
 40
0.4318
 41
0.4318
  0
VERTEX
  8
0
 10
65.5948
 20
32.5451
 30
0.0
 40
0.4318
 41
0.4318
  0
VERTEX
  8
0
 10
65.3824
 20
33.0577
 30
0.0
 40
0.4318
 41
0.4318
  0
VERTEX
  8
0
 10
65.5948
 20
33.5704
 30
0.0
 40
0.4318
 41
0.4318
  0
VERTEX
  8
0
 10
66.1074
 20
33.7812
 30
0.0
 40
0.4318
 41
0.4318
  0
VERTEX
  8
0
 10
66.6186
 20
33.5704
 30
0.0
 40
0.4318
 41
0.4318
  0
VERTEX
  8
0
 10
66.8306
 20
33.0577
 30
0.0
 40
0.4318
 41
0.4318
  0
VERTEX
  8
0
 10
66.6186
 20
32.5451
 30
0.0
 40
0.4318
 41
0.4318
  0
VERTEX
  8
0
 10
66.1074
 20
32.3329
 30
0.0
 40
0.4318
 41
0.4318
  0
SEQEND
 8
0
  0
POLYLINE
  8
0
 62
     0
 66
     1
 10
0
 20
0
 30
0.0
 70
     1
 40
1.224
 41
1.224
  0
VERTEX
  8
0
 10
63.5674
 20
32.3329
 30
0.0
 40
0.4318
 41
0.4318
  0
VERTEX
  8
0
 10
63.0534
 20
32.5451
 30
0.0
 40
0.4318
 41
0.4318
  0
VERTEX
  8
0
 10
62.8428
 20
33.0577
 30
0.0
 40
0.4318
 41
0.4318
  0
VERTEX
  8
0
 10
63.0534
 20
33.5704
 30
0.0
 40
0.4318
 41
0.4318
  0
VERTEX
  8
0
 10
63.5674
 20
33.7812
 30
0.0
 40
0.4318
 41
0.4318
  0
VERTEX
  8
0
 10
64.0789
 20
33.5704
 30
0.0
 40
0.4318
 41
0.4318
  0
VERTEX
  8
0
 10
64.2909
 20
33.0577
 30
0.0
 40
0.4318
 41
0.4318
  0
VERTEX
  8
0
 10
64.0789
 20
32.5451
 30
0.0
 40
0.4318
 41
0.4318
  0
VERTEX
  8
0
 10
63.5674
 20
32.3329
 30
0.0
 40
0.4318
 41
0.4318
  0
SEQEND
 8
0
  0
POLYLINE
  8
0
 62
     0
 66
     1
 10
0
 20
0
 30
0.0
 70
     1
 40
1.224
 41
1.224
  0
VERTEX
  8
0
 10
61.0263
 20
32.3329
 30
0.0
 40
0.4318
 41
0.4318
  0
VERTEX
  8
0
 10
60.5137
 20
32.5451
 30
0.0
 40
0.4318
 41
0.4318
  0
VERTEX
  8
0
 10
60.3031
 20
33.0577
 30
0.0
 40
0.4318
 41
0.4318
  0
VERTEX
  8
0
 10
60.5137
 20
33.5704
 30
0.0
 40
0.4318
 41
0.4318
  0
VERTEX
  8
0
 10
61.0263
 20
33.7812
 30
0.0
 40
0.4318
 41
0.4318
  0
VERTEX
  8
0
 10
61.5379
 20
33.5704
 30
0.0
 40
0.4318
 41
0.4318
  0
VERTEX
  8
0
 10
61.7513
 20
33.0577
 30
0.0
 40
0.4318
 41
0.4318
  0
VERTEX
  8
0
 10
61.5379
 20
32.5451
 30
0.0
 40
0.4318
 41
0.4318
  0
VERTEX
  8
0
 10
61.0263
 20
32.3329
 30
0.0
 40
0.4318
 41
0.4318
  0
SEQEND
 8
0
  0
POLYLINE
  8
0
 62
     0
 66
     1
 10
0
 20
0
 30
0.0
 70
     1
 40
1.224
 41
1.224
  0
VERTEX
  8
0
 10
58.4867
 20
32.3329
 30
0.0
 40
0.4318
 41
0.4318
  0
VERTEX
  8
0
 10
57.9741
 20
32.5451
 30
0.0
 40
0.4318
 41
0.4318
  0
VERTEX
  8
0
 10
57.7631
 20
33.0577
 30
0.0
 40
0.4318
 41
0.4318
  0
VERTEX
  8
0
 10
57.9741
 20
33.5704
 30
0.0
 40
0.4318
 41
0.4318
  0
VERTEX
  8
0
 10
58.4867
 20
33.7812
 30
0.0
 40
0.4318
 41
0.4318
  0
VERTEX
  8
0
 10
58.9979
 20
33.5704
 30
0.0
 40
0.4318
 41
0.4318
  0
VERTEX
  8
0
 10
59.2102
 20
33.0577
 30
0.0
 40
0.4318
 41
0.4318
  0
VERTEX
  8
0
 10
58.9979
 20
32.5451
 30
0.0
 40
0.4318
 41
0.4318
  0
VERTEX
  8
0
 10
58.4867
 20
32.3329
 30
0.0
 40
0.4318
 41
0.4318
  0
SEQEND
 8
0
  0
POLYLINE
  8
0
 62
     0
 66
     1
 10
0
 20
0
 30
0.0
 70
     1
 40
1.224
 41
1.224
  0
VERTEX
  8
0
 10
58.4867
 20
47.5728
 30
0.0
 40
0.4318
 41
0.4318
  0
VERTEX
  8
0
 10
57.9741
 20
47.7862
 30
0.0
 40
0.4318
 41
0.4318
  0
VERTEX
  8
0
 10
57.7631
 20
48.2974
 30
0.0
 40
0.4318
 41
0.4318
  0
VERTEX
  8
0
 10
57.9741
 20
48.81
 30
0.0
 40
0.4318
 41
0.4318
  0
VERTEX
  8
0
 10
58.4867
 20
49.0209
 30
0.0
 40
0.4318
 41
0.4318
  0
VERTEX
  8
0
 10
58.9979
 20
48.81
 30
0.0
 40
0.4318
 41
0.4318
  0
VERTEX
  8
0
 10
59.2102
 20
48.2974
 30
0.0
 40
0.4318
 41
0.4318
  0
VERTEX
  8
0
 10
58.9979
 20
47.7862
 30
0.0
 40
0.4318
 41
0.4318
  0
VERTEX
  8
0
 10
58.4867
 20
47.5728
 30
0.0
 40
0.4318
 41
0.4318
  0
SEQEND
 8
0
  0
POLYLINE
  8
0
 62
     0
 66
     1
 10
0
 20
0
 30
0.0
 70
     1
 40
1.224
 41
1.224
  0
VERTEX
  8
0
 10
61.0263
 20
47.5728
 30
0.0
 40
0.4318
 41
0.4318
  0
VERTEX
  8
0
 10
60.5137
 20
47.7862
 30
0.0
 40
0.4318
 41
0.4318
  0
VERTEX
  8
0
 10
60.3031
 20
48.2974
 30
0.0
 40
0.4318
 41
0.4318
  0
VERTEX
  8
0
 10
60.5137
 20
48.81
 30
0.0
 40
0.4318
 41
0.4318
  0
VERTEX
  8
0
 10
61.0263
 20
49.0209
 30
0.0
 40
0.4318
 41
0.4318
  0
VERTEX
  8
0
 10
61.5379
 20
48.81
 30
0.0
 40
0.4318
 41
0.4318
  0
VERTEX
  8
0
 10
61.7513
 20
48.2974
 30
0.0
 40
0.4318
 41
0.4318
  0
VERTEX
  8
0
 10
61.5379
 20
47.7862
 30
0.0
 40
0.4318
 41
0.4318
  0
VERTEX
  8
0
 10
61.0263
 20
47.5728
 30
0.0
 40
0.4318
 41
0.4318
  0
SEQEND
 8
0
  0
POLYLINE
  8
0
 62
     0
 66
     1
 10
0
 20
0
 30
0.0
 70
     1
 40
1.224
 41
1.224
  0
VERTEX
  8
0
 10
63.5674
 20
47.5728
 30
0.0
 40
0.4318
 41
0.4318
  0
VERTEX
  8
0
 10
63.0534
 20
47.7862
 30
0.0
 40
0.4318
 41
0.4318
  0
VERTEX
  8
0
 10
62.8428
 20
48.2974
 30
0.0
 40
0.4318
 41
0.4318
  0
VERTEX
  8
0
 10
63.0534
 20
48.81
 30
0.0
 40
0.4318
 41
0.4318
  0
VERTEX
  8
0
 10
63.5674
 20
49.0209
 30
0.0
 40
0.4318
 41
0.4318
  0
VERTEX
  8
0
 10
64.0789
 20
48.81
 30
0.0
 40
0.4318
 41
0.4318
  0
VERTEX
  8
0
 10
64.2909
 20
48.2974
 30
0.0
 40
0.4318
 41
0.4318
  0
VERTEX
  8
0
 10
64.0789
 20
47.7862
 30
0.0
 40
0.4318
 41
0.4318
  0
VERTEX
  8
0
 10
63.5674
 20
47.5728
 30
0.0
 40
0.4318
 41
0.4318
  0
SEQEND
 8
0
  0
POLYLINE
  8
0
 62
     0
 66
     1
 10
0
 20
0
 30
0.0
 70
     1
 40
1.224
 41
1.224
  0
VERTEX
  8
0
 10
66.1074
 20
47.5728
 30
0.0
 40
0.4318
 41
0.4318
  0
VERTEX
  8
0
 10
65.5948
 20
47.7862
 30
0.0
 40
0.4318
 41
0.4318
  0
VERTEX
  8
0
 10
65.3824
 20
48.2974
 30
0.0
 40
0.4318
 41
0.4318
  0
VERTEX
  8
0
 10
65.5948
 20
48.81
 30
0.0
 40
0.4318
 41
0.4318
  0
VERTEX
  8
0
 10
66.1074
 20
49.0209
 30
0.0
 40
0.4318
 41
0.4318
  0
VERTEX
  8
0
 10
66.6186
 20
48.81
 30
0.0
 40
0.4318
 41
0.4318
  0
VERTEX
  8
0
 10
66.8306
 20
48.2974
 30
0.0
 40
0.4318
 41
0.4318
  0
VERTEX
  8
0
 10
66.6186
 20
47.7862
 30
0.0
 40
0.4318
 41
0.4318
  0
VERTEX
  8
0
 10
66.1074
 20
47.5728
 30
0.0
 40
0.4318
 41
0.4318
  0
SEQEND
 8
0
  0
POLYLINE
  8
0
 62
     0
 66
     1
 10
0
 20
0
 30
0.0
 70
     1
 40
1.224
 41
1.224
  0
VERTEX
  8
0
 10
68.647
 20
47.5728
 30
0.0
 40
0.4318
 41
0.4318
  0
VERTEX
  8
0
 10
68.1344
 20
47.7862
 30
0.0
 40
0.4318
 41
0.4318
  0
VERTEX
  8
0
 10
67.9235
 20
48.2974
 30
0.0
 40
0.4318
 41
0.4318
  0
VERTEX
  8
0
 10
68.1344
 20
48.81
 30
0.0
 40
0.4318
 41
0.4318
  0
VERTEX
  8
0
 10
68.647
 20
49.0209
 30
0.0
 40
0.4318
 41
0.4318
  0
VERTEX
  8
0
 10
69.1582
 20
48.81
 30
0.0
 40
0.4318
 41
0.4318
  0
VERTEX
  8
0
 10
69.3706
 20
48.2974
 30
0.0
 40
0.4318
 41
0.4318
  0
VERTEX
  8
0
 10
69.1582
 20
47.7862
 30
0.0
 40
0.4318
 41
0.4318
  0
VERTEX
  8
0
 10
68.647
 20
47.5728
 30
0.0
 40
0.4318
 41
0.4318
  0
SEQEND
 8
0
  0
POLYLINE
  8
0
 62
     0
 66
     1
 10
0
 20
0
 30
0.0
 70
     1
 40
1.224
 41
1.224
  0
VERTEX
  8
0
 10
71.1867
 20
47.5728
 30
0.0
 40
0.4318
 41
0.4318
  0
VERTEX
  8
0
 10
70.6741
 20
47.7862
 30
0.0
 40
0.4318
 41
0.4318
  0
VERTEX
  8
0
 10
70.4631
 20
48.2974
 30
0.0
 40
0.4318
 41
0.4318
  0
VERTEX
  8
0
 10
70.6741
 20
48.81
 30
0.0
 40
0.4318
 41
0.4318
  0
VERTEX
  8
0
 10
71.1867
 20
49.0209
 30
0.0
 40
0.4318
 41
0.4318
  0
VERTEX
  8
0
 10
71.6979
 20
48.81
 30
0.0
 40
0.4318
 41
0.4318
  0
VERTEX
  8
0
 10
71.9102
 20
48.2974
 30
0.0
 40
0.4318
 41
0.4318
  0
VERTEX
  8
0
 10
71.6979
 20
47.7862
 30
0.0
 40
0.4318
 41
0.4318
  0
VERTEX
  8
0
 10
71.1867
 20
47.5728
 30
0.0
 40
0.4318
 41
0.4318
  0
SEQEND
 8
0
  0
POLYLINE
  8
0
 62
     0
 66
     1
 10
0
 20
0
 30
0.0
 70
     1
 40
1.224
 41
1.224
  0
VERTEX
  8
0
 10
73.7263
 20
47.5728
 30
0.0
 40
0.4318
 41
0.4318
  0
VERTEX
  8
0
 10
73.2137
 20
47.7862
 30
0.0
 40
0.4318
 41
0.4318
  0
VERTEX
  8
0
 10
73.0031
 20
48.2974
 30
0.0
 40
0.4318
 41
0.4318
  0
VERTEX
  8
0
 10
73.2137
 20
48.81
 30
0.0
 40
0.4318
 41
0.4318
  0
VERTEX
  8
0
 10
73.7263
 20
49.0209
 30
0.0
 40
0.4318
 41
0.4318
  0
VERTEX
  8
0
 10
74.2379
 20
48.81
 30
0.0
 40
0.4318
 41
0.4318
  0
VERTEX
  8
0
 10
74.4513
 20
48.2974
 30
0.0
 40
0.4318
 41
0.4318
  0
VERTEX
  8
0
 10
74.2379
 20
47.7862
 30
0.0
 40
0.4318
 41
0.4318
  0
VERTEX
  8
0
 10
73.7263
 20
47.5728
 30
0.0
 40
0.4318
 41
0.4318
  0
SEQEND
 8
0
  0
POLYLINE
  8
0
 62
     0
 66
     1
 10
0
 20
0
 30
0.0
 70
     1
 40
1.224
 41
1.224
  0
VERTEX
  8
0
 10
76.2663
 20
47.5728
 30
0.0
 40
0.4318
 41
0.4318
  0
VERTEX
  8
0
 10
75.7534
 20
47.7862
 30
0.0
 40
0.4318
 41
0.4318
  0
VERTEX
  8
0
 10
75.5428
 20
48.2974
 30
0.0
 40
0.4318
 41
0.4318
  0
VERTEX
  8
0
 10
75.7534
 20
48.81
 30
0.0
 40
0.4318
 41
0.4318
  0
VERTEX
  8
0
 10
76.2663
 20
49.0209
 30
0.0
 40
0.4318
 41
0.4318
  0
VERTEX
  8
0
 10
76.7789
 20
48.81
 30
0.0
 40
0.4318
 41
0.4318
  0
VERTEX
  8
0
 10
76.9909
 20
48.2974
 30
0.0
 40
0.4318
 41
0.4318
  0
VERTEX
  8
0
 10
76.7789
 20
47.7862
 30
0.0
 40
0.4318
 41
0.4318
  0
VERTEX
  8
0
 10
76.2663
 20
47.5728
 30
0.0
 40
0.4318
 41
0.4318
  0
SEQEND
 8
0
  0
POLYLINE
  8
0
 62
     0
 66
     1
 10
0
 20
0
 30
0.0
 70
     1
 40
1.224
 41
1.224
  0
VERTEX
  8
0
 10
78.8074
 20
47.5728
 30
0.0
 40
0.4318
 41
0.4318
  0
VERTEX
  8
0
 10
78.2948
 20
47.7862
 30
0.0
 40
0.4318
 41
0.4318
  0
VERTEX
  8
0
 10
78.0824
 20
48.2974
 30
0.0
 40
0.4318
 41
0.4318
  0
VERTEX
  8
0
 10
78.2948
 20
48.81
 30
0.0
 40
0.4318
 41
0.4318
  0
VERTEX
  8
0
 10
78.8074
 20
49.0209
 30
0.0
 40
0.4318
 41
0.4318
  0
VERTEX
  8
0
 10
79.3186
 20
48.81
 30
0.0
 40
0.4318
 41
0.4318
  0
VERTEX
  8
0
 10
79.5306
 20
48.2974
 30
0.0
 40
0.4318
 41
0.4318
  0
VERTEX
  8
0
 10
79.3186
 20
47.7862
 30
0.0
 40
0.4318
 41
0.4318
  0
VERTEX
  8
0
 10
78.8074
 20
47.5728
 30
0.0
 40
0.4318
 41
0.4318
  0
SEQEND
 8
0
  0
POLYLINE
  8
0
 62
     0
 66
     1
 10
0
 20
0
 30
0.0
 70
     1
 40
1.224
 41
1.224
  0
VERTEX
  8
0
 10
81.347
 20
47.5728
 30
0.0
 40
0.4318
 41
0.4318
  0
VERTEX
  8
0
 10
80.8344
 20
47.7862
 30
0.0
 40
0.4318
 41
0.4318
  0
VERTEX
  8
0
 10
80.6235
 20
48.2974
 30
0.0
 40
0.4318
 41
0.4318
  0
VERTEX
  8
0
 10
80.8344
 20
48.81
 30
0.0
 40
0.4318
 41
0.4318
  0
VERTEX
  8
0
 10
81.347
 20
49.0209
 30
0.0
 40
0.4318
 41
0.4318
  0
VERTEX
  8
0
 10
81.8582
 20
48.81
 30
0.0
 40
0.4318
 41
0.4318
  0
VERTEX
  8
0
 10
82.0706
 20
48.2974
 30
0.0
 40
0.4318
 41
0.4318
  0
VERTEX
  8
0
 10
81.8582
 20
47.7862
 30
0.0
 40
0.4318
 41
0.4318
  0
VERTEX
  8
0
 10
81.347
 20
47.5728
 30
0.0
 40
0.4318
 41
0.4318
  0
SEQEND
 8
0
  0
POLYLINE
  8
0
 62
     0
 66
     1
 10
0
 20
0
 30
0.0
 70
     1
 40
1.224
 41
1.224
  0
VERTEX
  8
0
 10
83.8867
 20
47.5728
 30
0.0
 40
0.4318
 41
0.4318
  0
VERTEX
  8
0
 10
83.3741
 20
47.7862
 30
0.0
 40
0.4318
 41
0.4318
  0
VERTEX
  8
0
 10
83.1631
 20
48.2974
 30
0.0
 40
0.4318
 41
0.4318
  0
VERTEX
  8
0
 10
83.3741
 20
48.81
 30
0.0
 40
0.4318
 41
0.4318
  0
VERTEX
  8
0
 10
83.8867
 20
49.0209
 30
0.0
 40
0.4318
 41
0.4318
  0
VERTEX
  8
0
 10
84.3979
 20
48.81
 30
0.0
 40
0.4318
 41
0.4318
  0
VERTEX
  8
0
 10
84.6102
 20
48.2974
 30
0.0
 40
0.4318
 41
0.4318
  0
VERTEX
  8
0
 10
84.3979
 20
47.7862
 30
0.0
 40
0.4318
 41
0.4318
  0
VERTEX
  8
0
 10
83.8867
 20
47.5728
 30
0.0
 40
0.4318
 41
0.4318
  0
SEQEND
 8
0
  0
POLYLINE
  8
0
 62
     0
 66
     1
 10
0
 20
0
 30
0.0
 70
     1
 40
1.224
 41
1.224
  0
VERTEX
  8
0
 10
86.4263
 20
47.5728
 30
0.0
 40
0.4318
 41
0.4318
  0
VERTEX
  8
0
 10
85.9137
 20
47.7862
 30
0.0
 40
0.4318
 41
0.4318
  0
VERTEX
  8
0
 10
85.7031
 20
48.2974
 30
0.0
 40
0.4318
 41
0.4318
  0
VERTEX
  8
0
 10
85.9137
 20
48.81
 30
0.0
 40
0.4318
 41
0.4318
  0
VERTEX
  8
0
 10
86.4263
 20
49.0209
 30
0.0
 40
0.4318
 41
0.4318
  0
VERTEX
  8
0
 10
86.9379
 20
48.81
 30
0.0
 40
0.4318
 41
0.4318
  0
VERTEX
  8
0
 10
87.1513
 20
48.2974
 30
0.0
 40
0.4318
 41
0.4318
  0
VERTEX
  8
0
 10
86.9379
 20
47.7862
 30
0.0
 40
0.4318
 41
0.4318
  0
VERTEX
  8
0
 10
86.4263
 20
47.5728
 30
0.0
 40
0.4318
 41
0.4318
  0
SEQEND
 8
0
  0
POLYLINE
  8
0
 62
     0
 66
     1
 10
0
 20
0
 30
0.0
 70
     1
 40
1.224
 41
1.224
  0
VERTEX
  8
0
 10
83.8867
 20
6.93289
 30
0.0
 40
0.4318
 41
0.4318
  0
VERTEX
  8
0
 10
83.3741
 20
7.14513
 30
0.0
 40
0.4318
 41
0.4318
  0
VERTEX
  8
0
 10
83.1631
 20
7.65775
 30
0.0
 40
0.4318
 41
0.4318
  0
VERTEX
  8
0
 10
83.3741
 20
8.1704
 30
0.0
 40
0.4318
 41
0.4318
  0
VERTEX
  8
0
 10
83.8867
 20
8.38122
 30
0.0
 40
0.4318
 41
0.4318
  0
VERTEX
  8
0
 10
84.3979
 20
8.1704
 30
0.0
 40
0.4318
 41
0.4318
  0
VERTEX
  8
0
 10
84.6102
 20
7.65775
 30
0.0
 40
0.4318
 41
0.4318
  0
VERTEX
  8
0
 10
84.3979
 20
7.14513
 30
0.0
 40
0.4318
 41
0.4318
  0
VERTEX
  8
0
 10
83.8867
 20
6.93289
 30
0.0
 40
0.4318
 41
0.4318
  0
SEQEND
 8
0
  0
POLYLINE
  8
0
 62
     0
 66
     1
 10
0
 20
0
 30
0.0
 70
     1
 40
0
 41
0
  0
VERTEX
  8
0
 10
84.8265
 20
8.59758
 30
0.0
 40
0
 41
0
  0
VERTEX
  8
0
 10
84.8265
 20
6.71795
 30
0.0
 40
0
 41
0
  0
VERTEX
  8
0
 10
82.9469
 20
6.71795
 30
0.0
 40
0
 41
0
  0
VERTEX
  8
0
 10
82.9469
 20
8.59758
 30
0.0
 40
0
 41
0
  0
VERTEX
  8
0
 10
84.8265
 20
8.59758
 30
0.0
 40
0
 41
0
  0
SEQEND
 8
0
  0
POLYLINE
  8
0
 62
     0
 66
     1
 10
0
 20
0
 30
0.0
 70
     1
 40
0
 41
0
  0
VERTEX
  8
0
 10
83.8867
 20
8.16487
 30
0.0
 40
0
 41
0
  0
VERTEX
  8
0
 10
83.505
 20
8.0064
 30
0.0
 40
0
 41
0
  0
VERTEX
  8
0
 10
83.3783
 20
7.65775
 30
0.0
 40
0
 41
0
  0
VERTEX
  8
0
 10
83.505
 20
7.30913
 30
0.0
 40
0
 41
0
  0
VERTEX
  8
0
 10
83.8867
 20
7.14925
 30
0.0
 40
0
 41
0
  0
VERTEX
  8
0
 10
84.267
 20
7.30913
 30
0.0
 40
0
 41
0
  0
VERTEX
  8
0
 10
84.395
 20
7.65775
 30
0.0
 40
0
 41
0
  0
VERTEX
  8
0
 10
84.267
 20
8.0064
 30
0.0
 40
0
 41
0
  0
VERTEX
  8
0
 10
83.8867
 20
8.16487
 30
0.0
 40
0
 41
0
  0
SEQEND
 8
0
  0
POLYLINE
  8
0
 62
     0
 66
     1
 10
0
 20
0
 30
0.0
 70
     1
 40
1.224
 41
1.224
  0
VERTEX
  8
0
 10
83.8867
 20
4.13964
 30
0.0
 40
0.4318
 41
0.4318
  0
VERTEX
  8
0
 10
83.3741
 20
4.35183
 30
0.0
 40
0.4318
 41
0.4318
  0
VERTEX
  8
0
 10
83.1631
 20
4.86311
 30
0.0
 40
0.4318
 41
0.4318
  0
VERTEX
  8
0
 10
83.3741
 20
5.37573
 30
0.0
 40
0.4318
 41
0.4318
  0
VERTEX
  8
0
 10
83.8867
 20
5.58655
 30
0.0
 40
0.4318
 41
0.4318
  0
VERTEX
  8
0
 10
84.3979
 20
5.37573
 30
0.0
 40
0.4318
 41
0.4318
  0
VERTEX
  8
0
 10
84.6102
 20
4.86311
 30
0.0
 40
0.4318
 41
0.4318
  0
VERTEX
  8
0
 10
84.3979
 20
4.35183
 30
0.0
 40
0.4318
 41
0.4318
  0
VERTEX
  8
0
 10
83.8867
 20
4.13964
 30
0.0
 40
0.4318
 41
0.4318
  0
SEQEND
 8
0
  0
POLYLINE
  8
0
 62
     0
 66
     1
 10
0
 20
0
 30
0.0
 70
     1
 40
1.224
 41
1.224
  0
VERTEX
  8
0
 10
22.4551
 20
23.1262
 30
0.0
 40
0.4318
 41
0.4318
  0
VERTEX
  8
0
 10
22.9664
 20
22.9154
 30
0.0
 40
0.4318
 41
0.4318
  0
VERTEX
  8
0
 10
23.1786
 20
22.4028
 30
0.0
 40
0.4318
 41
0.4318
  0
VERTEX
  8
0
 10
22.9664
 20
21.8915
 30
0.0
 40
0.4318
 41
0.4318
  0
VERTEX
  8
0
 10
22.4551
 20
21.6793
 30
0.0
 40
0.4318
 41
0.4318
  0
VERTEX
  8
0
 10
21.9411
 20
21.8915
 30
0.0
 40
0.4318
 41
0.4318
  0
VERTEX
  8
0
 10
21.7303
 20
22.4028
 30
0.0
 40
0.4318
 41
0.4318
  0
VERTEX
  8
0
 10
21.9411
 20
22.9154
 30
0.0
 40
0.4318
 41
0.4318
  0
VERTEX
  8
0
 10
22.4551
 20
23.1262
 30
0.0
 40
0.4318
 41
0.4318
  0
SEQEND
 8
0
  0
POLYLINE
  8
0
 62
     0
 66
     1
 10
0
 20
0
 30
0.0
 70
     1
 40
1.224
 41
1.224
  0
VERTEX
  8
0
 10
7.21402
 20
20.5865
 30
0.0
 40
0.4318
 41
0.4318
  0
VERTEX
  8
0
 10
7.72664
 20
20.3757
 30
0.0
 40
0.4318
 41
0.4318
  0
VERTEX
  8
0
 10
7.93888
 20
19.863
 30
0.0
 40
0.4318
 41
0.4318
  0
VERTEX
  8
0
 10
7.72664
 20
19.3518
 30
0.0
 40
0.4318
 41
0.4318
  0
VERTEX
  8
0
 10
7.21402
 20
19.1396
 30
0.0
 40
0.4318
 41
0.4318
  0
VERTEX
  8
0
 10
6.7014
 20
19.3518
 30
0.0
 40
0.4318
 41
0.4318
  0
VERTEX
  8
0
 10
6.49055
 20
19.863
 30
0.0
 40
0.4318
 41
0.4318
  0
VERTEX
  8
0
 10
6.7014
 20
20.3757
 30
0.0
 40
0.4318
 41
0.4318
  0
VERTEX
  8
0
 10
7.21402
 20
20.5865
 30
0.0
 40
0.4318
 41
0.4318
  0
SEQEND
 8
0
  0
POLYLINE
  8
0
 62
     0
 66
     1
 10
0
 20
0
 30
0.0
 70
     1
 40
1.224
 41
1.224
  0
VERTEX
  8
0
 10
7.21402
 20
33.2865
 30
0.0
 40
0.4318
 41
0.4318
  0
VERTEX
  8
0
 10
7.72664
 20
33.0757
 30
0.0
 40
0.4318
 41
0.4318
  0
VERTEX
  8
0
 10
7.93888
 20
32.563
 30
0.0
 40
0.4318
 41
0.4318
  0
VERTEX
  8
0
 10
7.72664
 20
32.0518
 30
0.0
 40
0.4318
 41
0.4318
  0
VERTEX
  8
0
 10
7.21402
 20
31.8396
 30
0.0
 40
0.4318
 41
0.4318
  0
VERTEX
  8
0
 10
6.7014
 20
32.0518
 30
0.0
 40
0.4318
 41
0.4318
  0
VERTEX
  8
0
 10
6.49055
 20
32.563
 30
0.0
 40
0.4318
 41
0.4318
  0
VERTEX
  8
0
 10
6.7014
 20
33.0757
 30
0.0
 40
0.4318
 41
0.4318
  0
VERTEX
  8
0
 10
7.21402
 20
33.2865
 30
0.0
 40
0.4318
 41
0.4318
  0
SEQEND
 8
0
  0
POLYLINE
  8
0
 62
     0
 66
     1
 10
0
 20
0
 30
0.0
 70
     1
 40
1.224
 41
1.224
  0
VERTEX
  8
0
 10
22.4551
 20
20.5865
 30
0.0
 40
0.4318
 41
0.4318
  0
VERTEX
  8
0
 10
22.9664
 20
20.3757
 30
0.0
 40
0.4318
 41
0.4318
  0
VERTEX
  8
0
 10
23.1786
 20
19.863
 30
0.0
 40
0.4318
 41
0.4318
  0
VERTEX
  8
0
 10
22.9664
 20
19.3518
 30
0.0
 40
0.4318
 41
0.4318
  0
VERTEX
  8
0
 10
22.4551
 20
19.1396
 30
0.0
 40
0.4318
 41
0.4318
  0
VERTEX
  8
0
 10
21.9411
 20
19.3518
 30
0.0
 40
0.4318
 41
0.4318
  0
VERTEX
  8
0
 10
21.7303
 20
19.863
 30
0.0
 40
0.4318
 41
0.4318
  0
VERTEX
  8
0
 10
21.9411
 20
20.3757
 30
0.0
 40
0.4318
 41
0.4318
  0
VERTEX
  8
0
 10
22.4551
 20
20.5865
 30
0.0
 40
0.4318
 41
0.4318
  0
SEQEND
 8
0
  0
POLYLINE
  8
0
 62
     0
 66
     1
 10
0
 20
0
 30
0.0
 70
     1
 40
1.224
 41
1.224
  0
VERTEX
  8
0
 10
7.21402
 20
35.8263
 30
0.0
 40
0.4318
 41
0.4318
  0
VERTEX
  8
0
 10
7.72664
 20
35.6154
 30
0.0
 40
0.4318
 41
0.4318
  0
VERTEX
  8
0
 10
7.93888
 20
35.1028
 30
0.0
 40
0.4318
 41
0.4318
  0
VERTEX
  8
0
 10
7.72664
 20
34.5915
 30
0.0
 40
0.4318
 41
0.4318
  0
VERTEX
  8
0
 10
7.21402
 20
34.3793
 30
0.0
 40
0.4318
 41
0.4318
  0
VERTEX
  8
0
 10
6.7014
 20
34.5915
 30
0.0
 40
0.4318
 41
0.4318
  0
VERTEX
  8
0
 10
6.49055
 20
35.1028
 30
0.0
 40
0.4318
 41
0.4318
  0
VERTEX
  8
0
 10
6.7014
 20
35.6154
 30
0.0
 40
0.4318
 41
0.4318
  0
VERTEX
  8
0
 10
7.21402
 20
35.8263
 30
0.0
 40
0.4318
 41
0.4318
  0
SEQEND
 8
0
  0
POLYLINE
  8
0
 62
     0
 66
     1
 10
0
 20
0
 30
0.0
 70
     1
 40
1.224
 41
1.224
  0
VERTEX
  8
0
 10
7.21402
 20
23.1262
 30
0.0
 40
0.4318
 41
0.4318
  0
VERTEX
  8
0
 10
7.72664
 20
22.9154
 30
0.0
 40
0.4318
 41
0.4318
  0
VERTEX
  8
0
 10
7.93888
 20
22.4028
 30
0.0
 40
0.4318
 41
0.4318
  0
VERTEX
  8
0
 10
7.72664
 20
21.8915
 30
0.0
 40
0.4318
 41
0.4318
  0
VERTEX
  8
0
 10
7.21402
 20
21.6793
 30
0.0
 40
0.4318
 41
0.4318
  0
VERTEX
  8
0
 10
6.7014
 20
21.8915
 30
0.0
 40
0.4318
 41
0.4318
  0
VERTEX
  8
0
 10
6.49055
 20
22.4028
 30
0.0
 40
0.4318
 41
0.4318
  0
VERTEX
  8
0
 10
6.7014
 20
22.9154
 30
0.0
 40
0.4318
 41
0.4318
  0
VERTEX
  8
0
 10
7.21402
 20
23.1262
 30
0.0
 40
0.4318
 41
0.4318
  0
SEQEND
 8
0
  0
POLYLINE
  8
0
 62
     0
 66
     1
 10
0
 20
0
 30
0.0
 70
     1
 40
1.224
 41
1.224
  0
VERTEX
  8
0
 10
7.21402
 20
43.4467
 30
0.0
 40
0.4318
 41
0.4318
  0
VERTEX
  8
0
 10
7.72664
 20
43.2361
 30
0.0
 40
0.4318
 41
0.4318
  0
VERTEX
  8
0
 10
7.93888
 20
42.7232
 30
0.0
 40
0.4318
 41
0.4318
  0
VERTEX
  8
0
 10
7.72664
 20
42.212
 30
0.0
 40
0.4318
 41
0.4318
  0
VERTEX
  8
0
 10
7.21402
 20
41.9985
 30
0.0
 40
0.4318
 41
0.4318
  0
VERTEX
  8
0
 10
6.7014
 20
42.212
 30
0.0
 40
0.4318
 41
0.4318
  0
VERTEX
  8
0
 10
6.49055
 20
42.7232
 30
0.0
 40
0.4318
 41
0.4318
  0
VERTEX
  8
0
 10
6.7014
 20
43.2361
 30
0.0
 40
0.4318
 41
0.4318
  0
VERTEX
  8
0
 10
7.21402
 20
43.4467
 30
0.0
 40
0.4318
 41
0.4318
  0
SEQEND
 8
0
  0
POLYLINE
  8
0
 62
     0
 66
     1
 10
0
 20
0
 30
0.0
 70
     1
 40
1.224
 41
1.224
  0
VERTEX
  8
0
 10
7.21402
 20
45.9863
 30
0.0
 40
0.4318
 41
0.4318
  0
VERTEX
  8
0
 10
7.72664
 20
45.7757
 30
0.0
 40
0.4318
 41
0.4318
  0
VERTEX
  8
0
 10
7.93888
 20
45.2632
 30
0.0
 40
0.4318
 41
0.4318
  0
VERTEX
  8
0
 10
7.72664
 20
44.7516
 30
0.0
 40
0.4318
 41
0.4318
  0
VERTEX
  8
0
 10
7.21402
 20
44.5396
 30
0.0
 40
0.4318
 41
0.4318
  0
VERTEX
  8
0
 10
6.7014
 20
44.7516
 30
0.0
 40
0.4318
 41
0.4318
  0
VERTEX
  8
0
 10
6.49055
 20
45.2632
 30
0.0
 40
0.4318
 41
0.4318
  0
VERTEX
  8
0
 10
6.7014
 20
45.7757
 30
0.0
 40
0.4318
 41
0.4318
  0
VERTEX
  8
0
 10
7.21402
 20
45.9863
 30
0.0
 40
0.4318
 41
0.4318
  0
SEQEND
 8
0
  0
POLYLINE
  8
0
 62
     0
 66
     1
 10
0
 20
0
 30
0.0
 70
     1
 40
1.224
 41
1.224
  0
VERTEX
  8
0
 10
22.4551
 20
40.9071
 30
0.0
 40
0.4318
 41
0.4318
  0
VERTEX
  8
0
 10
22.9664
 20
40.6961
 30
0.0
 40
0.4318
 41
0.4318
  0
VERTEX
  8
0
 10
23.1786
 20
40.1821
 30
0.0
 40
0.4318
 41
0.4318
  0
VERTEX
  8
0
 10
22.9664
 20
39.6709
 30
0.0
 40
0.4318
 41
0.4318
  0
VERTEX
  8
0
 10
22.4551
 20
39.4589
 30
0.0
 40
0.4318
 41
0.4318
  0
VERTEX
  8
0
 10
21.9411
 20
39.6709
 30
0.0
 40
0.4318
 41
0.4318
  0
VERTEX
  8
0
 10
21.7303
 20
40.1821
 30
0.0
 40
0.4318
 41
0.4318
  0
VERTEX
  8
0
 10
21.9411
 20
40.6961
 30
0.0
 40
0.4318
 41
0.4318
  0
VERTEX
  8
0
 10
22.4551
 20
40.9071
 30
0.0
 40
0.4318
 41
0.4318
  0
SEQEND
 8
0
  0
POLYLINE
  8
0
 62
     0
 66
     1
 10
0
 20
0
 30
0.0
 70
     1
 40
1.224
 41
1.224
  0
VERTEX
  8
0
 10
22.4551
 20
43.4467
 30
0.0
 40
0.4318
 41
0.4318
  0
VERTEX
  8
0
 10
22.9664
 20
43.2361
 30
0.0
 40
0.4318
 41
0.4318
  0
VERTEX
  8
0
 10
23.1786
 20
42.7232
 30
0.0
 40
0.4318
 41
0.4318
  0
VERTEX
  8
0
 10
22.9664
 20
42.212
 30
0.0
 40
0.4318
 41
0.4318
  0
VERTEX
  8
0
 10
22.4551
 20
41.9985
 30
0.0
 40
0.4318
 41
0.4318
  0
VERTEX
  8
0
 10
21.9411
 20
42.212
 30
0.0
 40
0.4318
 41
0.4318
  0
VERTEX
  8
0
 10
21.7303
 20
42.7232
 30
0.0
 40
0.4318
 41
0.4318
  0
VERTEX
  8
0
 10
21.9411
 20
43.2361
 30
0.0
 40
0.4318
 41
0.4318
  0
VERTEX
  8
0
 10
22.4551
 20
43.4467
 30
0.0
 40
0.4318
 41
0.4318
  0
SEQEND
 8
0
  0
POLYLINE
  8
0
 62
     0
 66
     1
 10
0
 20
0
 30
0.0
 70
     1
 40
1.224
 41
1.224
  0
VERTEX
  8
0
 10
22.4551
 20
45.9863
 30
0.0
 40
0.4318
 41
0.4318
  0
VERTEX
  8
0
 10
22.9664
 20
45.7757
 30
0.0
 40
0.4318
 41
0.4318
  0
VERTEX
  8
0
 10
23.1786
 20
45.2632
 30
0.0
 40
0.4318
 41
0.4318
  0
VERTEX
  8
0
 10
22.9664
 20
44.7516
 30
0.0
 40
0.4318
 41
0.4318
  0
VERTEX
  8
0
 10
22.4551
 20
44.5396
 30
0.0
 40
0.4318
 41
0.4318
  0
VERTEX
  8
0
 10
21.9411
 20
44.7516
 30
0.0
 40
0.4318
 41
0.4318
  0
VERTEX
  8
0
 10
21.7303
 20
45.2632
 30
0.0
 40
0.4318
 41
0.4318
  0
VERTEX
  8
0
 10
21.9411
 20
45.7757
 30
0.0
 40
0.4318
 41
0.4318
  0
VERTEX
  8
0
 10
22.4551
 20
45.9863
 30
0.0
 40
0.4318
 41
0.4318
  0
SEQEND
 8
0
  0
POLYLINE
  8
0
 62
     0
 66
     1
 10
0
 20
0
 30
0.0
 70
     1
 40
1.224
 41
1.224
  0
VERTEX
  8
0
 10
7.21402
 20
7.88652
 30
0.0
 40
0.4318
 41
0.4318
  0
VERTEX
  8
0
 10
7.72664
 20
7.67567
 30
0.0
 40
0.4318
 41
0.4318
  0
VERTEX
  8
0
 10
7.93888
 20
7.16305
 30
0.0
 40
0.4318
 41
0.4318
  0
VERTEX
  8
0
 10
7.72664
 20
6.6518
 30
0.0
 40
0.4318
 41
0.4318
  0
VERTEX
  8
0
 10
7.21402
 20
6.43957
 30
0.0
 40
0.4318
 41
0.4318
  0
VERTEX
  8
0
 10
6.7014
 20
6.6518
 30
0.0
 40
0.4318
 41
0.4318
  0
VERTEX
  8
0
 10
6.49055
 20
7.16305
 30
0.0
 40
0.4318
 41
0.4318
  0
VERTEX
  8
0
 10
6.7014
 20
7.67567
 30
0.0
 40
0.4318
 41
0.4318
  0
VERTEX
  8
0
 10
7.21402
 20
7.88652
 30
0.0
 40
0.4318
 41
0.4318
  0
SEQEND
 8
0
  0
POLYLINE
  8
0
 62
     0
 66
     1
 10
0
 20
0
 30
0.0
 70
     1
 40
1.224
 41
1.224
  0
VERTEX
  8
0
 10
6.49055
 20
7.88652
 30
0.0
 40
0.4318
 41
0.4318
  0
VERTEX
  8
0
 10
6.49055
 20
6.43957
 30
0.0
 40
0.4318
 41
0.4318
  0
VERTEX
  8
0
 10
7.93888
 20
6.43957
 30
0.0
 40
0.4318
 41
0.4318
  0
VERTEX
  8
0
 10
7.93888
 20
7.88652
 30
0.0
 40
0.4318
 41
0.4318
  0
VERTEX
  8
0
 10
6.49055
 20
7.88652
 30
0.0
 40
0.4318
 41
0.4318
  0
SEQEND
 8
0
  0
POLYLINE
  8
0
 62
     0
 66
     1
 10
0
 20
0
 30
0.0
 70
     1
 40
1.224
 41
1.224
  0
VERTEX
  8
0
 10
7.21402
 20
10.4262
 30
0.0
 40
0.4318
 41
0.4318
  0
VERTEX
  8
0
 10
7.72664
 20
10.2154
 30
0.0
 40
0.4318
 41
0.4318
  0
VERTEX
  8
0
 10
7.93888
 20
9.70276
 30
0.0
 40
0.4318
 41
0.4318
  0
VERTEX
  8
0
 10
7.72664
 20
9.19152
 30
0.0
 40
0.4318
 41
0.4318
  0
VERTEX
  8
0
 10
7.21402
 20
8.97929
 30
0.0
 40
0.4318
 41
0.4318
  0
VERTEX
  8
0
 10
6.7014
 20
9.19152
 30
0.0
 40
0.4318
 41
0.4318
  0
VERTEX
  8
0
 10
6.49055
 20
9.70276
 30
0.0
 40
0.4318
 41
0.4318
  0
VERTEX
  8
0
 10
6.7014
 20
10.2154
 30
0.0
 40
0.4318
 41
0.4318
  0
VERTEX
  8
0
 10
7.21402
 20
10.4262
 30
0.0
 40
0.4318
 41
0.4318
  0
SEQEND
 8
0
  0
POLYLINE
  8
0
 62
     0
 66
     1
 10
0
 20
0
 30
0.0
 70
     1
 40
1.224
 41
1.224
  0
VERTEX
  8
0
 10
7.21402
 20
12.9673
 30
0.0
 40
0.4318
 41
0.4318
  0
VERTEX
  8
0
 10
7.72664
 20
12.7551
 30
0.0
 40
0.4318
 41
0.4318
  0
VERTEX
  8
0
 10
7.93888
 20
12.2425
 30
0.0
 40
0.4318
 41
0.4318
  0
VERTEX
  8
0
 10
7.72664
 20
11.7312
 30
0.0
 40
0.4318
 41
0.4318
  0
VERTEX
  8
0
 10
7.21402
 20
11.519
 30
0.0
 40
0.4318
 41
0.4318
  0
VERTEX
  8
0
 10
6.7014
 20
11.7312
 30
0.0
 40
0.4318
 41
0.4318
  0
VERTEX
  8
0
 10
6.49055
 20
12.2425
 30
0.0
 40
0.4318
 41
0.4318
  0
VERTEX
  8
0
 10
6.7014
 20
12.7551
 30
0.0
 40
0.4318
 41
0.4318
  0
VERTEX
  8
0
 10
7.21402
 20
12.9673
 30
0.0
 40
0.4318
 41
0.4318
  0
SEQEND
 8
0
  0
POLYLINE
  8
0
 62
     0
 66
     1
 10
0
 20
0
 30
0.0
 70
     1
 40
1.224
 41
1.224
  0
VERTEX
  8
0
 10
7.21402
 20
15.5071
 30
0.0
 40
0.4318
 41
0.4318
  0
VERTEX
  8
0
 10
7.72664
 20
15.2962
 30
0.0
 40
0.4318
 41
0.4318
  0
VERTEX
  8
0
 10
7.93888
 20
14.7836
 30
0.0
 40
0.4318
 41
0.4318
  0
VERTEX
  8
0
 10
7.72664
 20
14.271
 30
0.0
 40
0.4318
 41
0.4318
  0
VERTEX
  8
0
 10
7.21402
 20
14.0588
 30
0.0
 40
0.4318
 41
0.4318
  0
VERTEX
  8
0
 10
6.7014
 20
14.271
 30
0.0
 40
0.4318
 41
0.4318
  0
VERTEX
  8
0
 10
6.49055
 20
14.7836
 30
0.0
 40
0.4318
 41
0.4318
  0
VERTEX
  8
0
 10
6.7014
 20
15.2962
 30
0.0
 40
0.4318
 41
0.4318
  0
VERTEX
  8
0
 10
7.21402
 20
15.5071
 30
0.0
 40
0.4318
 41
0.4318
  0
SEQEND
 8
0
  0
POLYLINE
  8
0
 62
     0
 66
     1
 10
0
 20
0
 30
0.0
 70
     1
 40
1.224
 41
1.224
  0
VERTEX
  8
0
 10
22.4551
 20
10.4262
 30
0.0
 40
0.4318
 41
0.4318
  0
VERTEX
  8
0
 10
22.9664
 20
10.2154
 30
0.0
 40
0.4318
 41
0.4318
  0
VERTEX
  8
0
 10
23.1786
 20
9.70276
 30
0.0
 40
0.4318
 41
0.4318
  0
VERTEX
  8
0
 10
22.9664
 20
9.19152
 30
0.0
 40
0.4318
 41
0.4318
  0
VERTEX
  8
0
 10
22.4551
 20
8.97929
 30
0.0
 40
0.4318
 41
0.4318
  0
VERTEX
  8
0
 10
21.9411
 20
9.19152
 30
0.0
 40
0.4318
 41
0.4318
  0
VERTEX
  8
0
 10
21.7303
 20
9.70276
 30
0.0
 40
0.4318
 41
0.4318
  0
VERTEX
  8
0
 10
21.9411
 20
10.2154
 30
0.0
 40
0.4318
 41
0.4318
  0
VERTEX
  8
0
 10
22.4551
 20
10.4262
 30
0.0
 40
0.4318
 41
0.4318
  0
SEQEND
 8
0
  0
POLYLINE
  8
0
 62
     0
 66
     1
 10
0
 20
0
 30
0.0
 70
     1
 40
1.224
 41
1.224
  0
VERTEX
  8
0
 10
22.4551
 20
7.88652
 30
0.0
 40
0.4318
 41
0.4318
  0
VERTEX
  8
0
 10
22.9664
 20
7.67567
 30
0.0
 40
0.4318
 41
0.4318
  0
VERTEX
  8
0
 10
23.1786
 20
7.16305
 30
0.0
 40
0.4318
 41
0.4318
  0
VERTEX
  8
0
 10
22.9664
 20
6.6518
 30
0.0
 40
0.4318
 41
0.4318
  0
VERTEX
  8
0
 10
22.4551
 20
6.43957
 30
0.0
 40
0.4318
 41
0.4318
  0
VERTEX
  8
0
 10
21.9411
 20
6.6518
 30
0.0
 40
0.4318
 41
0.4318
  0
VERTEX
  8
0
 10
21.7303
 20
7.16305
 30
0.0
 40
0.4318
 41
0.4318
  0
VERTEX
  8
0
 10
21.9411
 20
7.67567
 30
0.0
 40
0.4318
 41
0.4318
  0
VERTEX
  8
0
 10
22.4551
 20
7.88652
 30
0.0
 40
0.4318
 41
0.4318
  0
SEQEND
 8
0
  0
POLYLINE
  8
0
 62
     0
 66
     1
 10
0
 20
0
 30
0.0
 70
     1
 40
1.224
 41
1.224
  0
VERTEX
  8
0
 10
50.8674
 20
23.6209
 30
0.0
 40
0.4318
 41
0.4318
  0
VERTEX
  8
0
 10
51.3789
 20
23.4101
 30
0.0
 40
0.4318
 41
0.4318
  0
VERTEX
  8
0
 10
51.5909
 20
22.8975
 30
0.0
 40
0.4318
 41
0.4318
  0
VERTEX
  8
0
 10
51.3789
 20
22.3862
 30
0.0
 40
0.4318
 41
0.4318
  0
VERTEX
  8
0
 10
50.8674
 20
22.1726
 30
0.0
 40
0.4318
 41
0.4318
  0
VERTEX
  8
0
 10
50.3534
 20
22.3862
 30
0.0
 40
0.4318
 41
0.4318
  0
VERTEX
  8
0
 10
50.1428
 20
22.8975
 30
0.0
 40
0.4318
 41
0.4318
  0
VERTEX
  8
0
 10
50.3534
 20
23.4101
 30
0.0
 40
0.4318
 41
0.4318
  0
VERTEX
  8
0
 10
50.8674
 20
23.6209
 30
0.0
 40
0.4318
 41
0.4318
  0
SEQEND
 8
0
  0
POLYLINE
  8
0
 62
     0
 66
     1
 10
0
 20
0
 30
0.0
 70
     1
 40
1.224
 41
1.224
  0
VERTEX
  8
0
 10
35.6263
 20
21.0812
 30
0.0
 40
0.4318
 41
0.4318
  0
VERTEX
  8
0
 10
36.1389
 20
20.8704
 30
0.0
 40
0.4318
 41
0.4318
  0
VERTEX
  8
0
 10
36.3513
 20
20.3577
 30
0.0
 40
0.4318
 41
0.4318
  0
VERTEX
  8
0
 10
36.1389
 20
19.8451
 30
0.0
 40
0.4318
 41
0.4318
  0
VERTEX
  8
0
 10
35.6263
 20
19.6329
 30
0.0
 40
0.4318
 41
0.4318
  0
VERTEX
  8
0
 10
35.1138
 20
19.8451
 30
0.0
 40
0.4318
 41
0.4318
  0
VERTEX
  8
0
 10
34.903
 20
20.3577
 30
0.0
 40
0.4318
 41
0.4318
  0
VERTEX
  8
0
 10
35.1138
 20
20.8704
 30
0.0
 40
0.4318
 41
0.4318
  0
VERTEX
  8
0
 10
35.6263
 20
21.0812
 30
0.0
 40
0.4318
 41
0.4318
  0
SEQEND
 8
0
  0
POLYLINE
  8
0
 62
     0
 66
     1
 10
0
 20
0
 30
0.0
 70
     1
 40
1.224
 41
1.224
  0
VERTEX
  8
0
 10
35.6263
 20
33.7812
 30
0.0
 40
0.4318
 41
0.4318
  0
VERTEX
  8
0
 10
36.1389
 20
33.5704
 30
0.0
 40
0.4318
 41
0.4318
  0
VERTEX
  8
0
 10
36.3513
 20
33.0577
 30
0.0
 40
0.4318
 41
0.4318
  0
VERTEX
  8
0
 10
36.1389
 20
32.5451
 30
0.0
 40
0.4318
 41
0.4318
  0
VERTEX
  8
0
 10
35.6263
 20
32.3329
 30
0.0
 40
0.4318
 41
0.4318
  0
VERTEX
  8
0
 10
35.1138
 20
32.5451
 30
0.0
 40
0.4318
 41
0.4318
  0
VERTEX
  8
0
 10
34.903
 20
33.0577
 30
0.0
 40
0.4318
 41
0.4318
  0
VERTEX
  8
0
 10
35.1138
 20
33.5704
 30
0.0
 40
0.4318
 41
0.4318
  0
VERTEX
  8
0
 10
35.6263
 20
33.7812
 30
0.0
 40
0.4318
 41
0.4318
  0
SEQEND
 8
0
  0
POLYLINE
  8
0
 62
     0
 66
     1
 10
0
 20
0
 30
0.0
 70
     1
 40
1.224
 41
1.224
  0
VERTEX
  8
0
 10
50.8674
 20
21.0812
 30
0.0
 40
0.4318
 41
0.4318
  0
VERTEX
  8
0
 10
51.3789
 20
20.8704
 30
0.0
 40
0.4318
 41
0.4318
  0
VERTEX
  8
0
 10
51.5909
 20
20.3577
 30
0.0
 40
0.4318
 41
0.4318
  0
VERTEX
  8
0
 10
51.3789
 20
19.8451
 30
0.0
 40
0.4318
 41
0.4318
  0
VERTEX
  8
0
 10
50.8674
 20
19.6329
 30
0.0
 40
0.4318
 41
0.4318
  0
VERTEX
  8
0
 10
50.3534
 20
19.8451
 30
0.0
 40
0.4318
 41
0.4318
  0
VERTEX
  8
0
 10
50.1428
 20
20.3577
 30
0.0
 40
0.4318
 41
0.4318
  0
VERTEX
  8
0
 10
50.3534
 20
20.8704
 30
0.0
 40
0.4318
 41
0.4318
  0
VERTEX
  8
0
 10
50.8674
 20
21.0812
 30
0.0
 40
0.4318
 41
0.4318
  0
SEQEND
 8
0
  0
POLYLINE
  8
0
 62
     0
 66
     1
 10
0
 20
0
 30
0.0
 70
     1
 40
1.224
 41
1.224
  0
VERTEX
  8
0
 10
35.6263
 20
36.3209
 30
0.0
 40
0.4318
 41
0.4318
  0
VERTEX
  8
0
 10
36.1389
 20
36.11
 30
0.0
 40
0.4318
 41
0.4318
  0
VERTEX
  8
0
 10
36.3513
 20
35.5974
 30
0.0
 40
0.4318
 41
0.4318
  0
VERTEX
  8
0
 10
36.1389
 20
35.0862
 30
0.0
 40
0.4318
 41
0.4318
  0
VERTEX
  8
0
 10
35.6263
 20
34.8726
 30
0.0
 40
0.4318
 41
0.4318
  0
VERTEX
  8
0
 10
35.1138
 20
35.0862
 30
0.0
 40
0.4318
 41
0.4318
  0
VERTEX
  8
0
 10
34.903
 20
35.5974
 30
0.0
 40
0.4318
 41
0.4318
  0
VERTEX
  8
0
 10
35.1138
 20
36.11
 30
0.0
 40
0.4318
 41
0.4318
  0
VERTEX
  8
0
 10
35.6263
 20
36.3209
 30
0.0
 40
0.4318
 41
0.4318
  0
SEQEND
 8
0
  0
POLYLINE
  8
0
 62
     0
 66
     1
 10
0
 20
0
 30
0.0
 70
     1
 40
1.224
 41
1.224
  0
VERTEX
  8
0
 10
35.6263
 20
23.6209
 30
0.0
 40
0.4318
 41
0.4318
  0
VERTEX
  8
0
 10
36.1389
 20
23.4101
 30
0.0
 40
0.4318
 41
0.4318
  0
VERTEX
  8
0
 10
36.3513
 20
22.8975
 30
0.0
 40
0.4318
 41
0.4318
  0
VERTEX
  8
0
 10
36.1389
 20
22.3862
 30
0.0
 40
0.4318
 41
0.4318
  0
VERTEX
  8
0
 10
35.6263
 20
22.1726
 30
0.0
 40
0.4318
 41
0.4318
  0
VERTEX
  8
0
 10
35.1138
 20
22.3862
 30
0.0
 40
0.4318
 41
0.4318
  0
VERTEX
  8
0
 10
34.903
 20
22.8975
 30
0.0
 40
0.4318
 41
0.4318
  0
VERTEX
  8
0
 10
35.1138
 20
23.4101
 30
0.0
 40
0.4318
 41
0.4318
  0
VERTEX
  8
0
 10
35.6263
 20
23.6209
 30
0.0
 40
0.4318
 41
0.4318
  0
SEQEND
 8
0
  0
POLYLINE
  8
0
 62
     0
 66
     1
 10
0
 20
0
 30
0.0
 70
     1
 40
1.224
 41
1.224
  0
VERTEX
  8
0
 10
35.6263
 20
43.9416
 30
0.0
 40
0.4318
 41
0.4318
  0
VERTEX
  8
0
 10
36.1389
 20
43.7293
 30
0.0
 40
0.4318
 41
0.4318
  0
VERTEX
  8
0
 10
36.3513
 20
43.2167
 30
0.0
 40
0.4318
 41
0.4318
  0
VERTEX
  8
0
 10
36.1389
 20
42.7055
 30
0.0
 40
0.4318
 41
0.4318
  0
VERTEX
  8
0
 10
35.6263
 20
42.4931
 30
0.0
 40
0.4318
 41
0.4318
  0
VERTEX
  8
0
 10
35.1138
 20
42.7055
 30
0.0
 40
0.4318
 41
0.4318
  0
VERTEX
  8
0
 10
34.903
 20
43.2167
 30
0.0
 40
0.4318
 41
0.4318
  0
VERTEX
  8
0
 10
35.1138
 20
43.7293
 30
0.0
 40
0.4318
 41
0.4318
  0
VERTEX
  8
0
 10
35.6263
 20
43.9416
 30
0.0
 40
0.4318
 41
0.4318
  0
SEQEND
 8
0
  0
POLYLINE
  8
0
 62
     0
 66
     1
 10
0
 20
0
 30
0.0
 70
     1
 40
1.224
 41
1.224
  0
VERTEX
  8
0
 10
35.6263
 20
46.4813
 30
0.0
 40
0.4318
 41
0.4318
  0
VERTEX
  8
0
 10
36.1389
 20
46.2703
 30
0.0
 40
0.4318
 41
0.4318
  0
VERTEX
  8
0
 10
36.3513
 20
45.7577
 30
0.0
 40
0.4318
 41
0.4318
  0
VERTEX
  8
0
 10
36.1389
 20
45.2452
 30
0.0
 40
0.4318
 41
0.4318
  0
VERTEX
  8
0
 10
35.6263
 20
45.0328
 30
0.0
 40
0.4318
 41
0.4318
  0
VERTEX
  8
0
 10
35.1138
 20
45.2452
 30
0.0
 40
0.4318
 41
0.4318
  0
VERTEX
  8
0
 10
34.903
 20
45.7577
 30
0.0
 40
0.4318
 41
0.4318
  0
VERTEX
  8
0
 10
35.1138
 20
46.2703
 30
0.0
 40
0.4318
 41
0.4318
  0
VERTEX
  8
0
 10
35.6263
 20
46.4813
 30
0.0
 40
0.4318
 41
0.4318
  0
SEQEND
 8
0
  0
POLYLINE
  8
0
 62
     0
 66
     1
 10
0
 20
0
 30
0.0
 70
     1
 40
1.224
 41
1.224
  0
VERTEX
  8
0
 10
50.8674
 20
41.4002
 30
0.0
 40
0.4318
 41
0.4318
  0
VERTEX
  8
0
 10
51.3789
 20
41.1896
 30
0.0
 40
0.4318
 41
0.4318
  0
VERTEX
  8
0
 10
51.5909
 20
40.677
 30
0.0
 40
0.4318
 41
0.4318
  0
VERTEX
  8
0
 10
51.3789
 20
40.1655
 30
0.0
 40
0.4318
 41
0.4318
  0
VERTEX
  8
0
 10
50.8674
 20
39.9535
 30
0.0
 40
0.4318
 41
0.4318
  0
VERTEX
  8
0
 10
50.3534
 20
40.1655
 30
0.0
 40
0.4318
 41
0.4318
  0
VERTEX
  8
0
 10
50.1428
 20
40.677
 30
0.0
 40
0.4318
 41
0.4318
  0
VERTEX
  8
0
 10
50.3534
 20
41.1896
 30
0.0
 40
0.4318
 41
0.4318
  0
VERTEX
  8
0
 10
50.8674
 20
41.4002
 30
0.0
 40
0.4318
 41
0.4318
  0
SEQEND
 8
0
  0
POLYLINE
  8
0
 62
     0
 66
     1
 10
0
 20
0
 30
0.0
 70
     1
 40
1.224
 41
1.224
  0
VERTEX
  8
0
 10
50.8674
 20
43.9416
 30
0.0
 40
0.4318
 41
0.4318
  0
VERTEX
  8
0
 10
51.3789
 20
43.7293
 30
0.0
 40
0.4318
 41
0.4318
  0
VERTEX
  8
0
 10
51.5909
 20
43.2167
 30
0.0
 40
0.4318
 41
0.4318
  0
VERTEX
  8
0
 10
51.3789
 20
42.7055
 30
0.0
 40
0.4318
 41
0.4318
  0
VERTEX
  8
0
 10
50.8674
 20
42.4931
 30
0.0
 40
0.4318
 41
0.4318
  0
VERTEX
  8
0
 10
50.3534
 20
42.7055
 30
0.0
 40
0.4318
 41
0.4318
  0
VERTEX
  8
0
 10
50.1428
 20
43.2167
 30
0.0
 40
0.4318
 41
0.4318
  0
VERTEX
  8
0
 10
50.3534
 20
43.7293
 30
0.0
 40
0.4318
 41
0.4318
  0
VERTEX
  8
0
 10
50.8674
 20
43.9416
 30
0.0
 40
0.4318
 41
0.4318
  0
SEQEND
 8
0
  0
POLYLINE
  8
0
 62
     0
 66
     1
 10
0
 20
0
 30
0.0
 70
     1
 40
1.224
 41
1.224
  0
VERTEX
  8
0
 10
50.8674
 20
46.4813
 30
0.0
 40
0.4318
 41
0.4318
  0
VERTEX
  8
0
 10
51.3789
 20
46.2703
 30
0.0
 40
0.4318
 41
0.4318
  0
VERTEX
  8
0
 10
51.5909
 20
45.7577
 30
0.0
 40
0.4318
 41
0.4318
  0
VERTEX
  8
0
 10
51.3789
 20
45.2452
 30
0.0
 40
0.4318
 41
0.4318
  0
VERTEX
  8
0
 10
50.8674
 20
45.0328
 30
0.0
 40
0.4318
 41
0.4318
  0
VERTEX
  8
0
 10
50.3534
 20
45.2452
 30
0.0
 40
0.4318
 41
0.4318
  0
VERTEX
  8
0
 10
50.1428
 20
45.7577
 30
0.0
 40
0.4318
 41
0.4318
  0
VERTEX
  8
0
 10
50.3534
 20
46.2703
 30
0.0
 40
0.4318
 41
0.4318
  0
VERTEX
  8
0
 10
50.8674
 20
46.4813
 30
0.0
 40
0.4318
 41
0.4318
  0
SEQEND
 8
0
  0
POLYLINE
  8
0
 62
     0
 66
     1
 10
0
 20
0
 30
0.0
 70
     1
 40
1.224
 41
1.224
  0
VERTEX
  8
0
 10
35.6263
 20
8.38122
 30
0.0
 40
0.4318
 41
0.4318
  0
VERTEX
  8
0
 10
36.1389
 20
8.1704
 30
0.0
 40
0.4318
 41
0.4318
  0
VERTEX
  8
0
 10
36.3513
 20
7.65775
 30
0.0
 40
0.4318
 41
0.4318
  0
VERTEX
  8
0
 10
36.1389
 20
7.14513
 30
0.0
 40
0.4318
 41
0.4318
  0
VERTEX
  8
0
 10
35.6263
 20
6.93289
 30
0.0
 40
0.4318
 41
0.4318
  0
VERTEX
  8
0
 10
35.1138
 20
7.14513
 30
0.0
 40
0.4318
 41
0.4318
  0
VERTEX
  8
0
 10
34.903
 20
7.65775
 30
0.0
 40
0.4318
 41
0.4318
  0
VERTEX
  8
0
 10
35.1138
 20
8.1704
 30
0.0
 40
0.4318
 41
0.4318
  0
VERTEX
  8
0
 10
35.6263
 20
8.38122
 30
0.0
 40
0.4318
 41
0.4318
  0
SEQEND
 8
0
  0
POLYLINE
  8
0
 62
     0
 66
     1
 10
0
 20
0
 30
0.0
 70
     1
 40
1.224
 41
1.224
  0
VERTEX
  8
0
 10
34.903
 20
8.38122
 30
0.0
 40
0.4318
 41
0.4318
  0
VERTEX
  8
0
 10
34.903
 20
6.93289
 30
0.0
 40
0.4318
 41
0.4318
  0
VERTEX
  8
0
 10
36.3513
 20
6.93289
 30
0.0
 40
0.4318
 41
0.4318
  0
VERTEX
  8
0
 10
36.3513
 20
8.38122
 30
0.0
 40
0.4318
 41
0.4318
  0
VERTEX
  8
0
 10
34.903
 20
8.38122
 30
0.0
 40
0.4318
 41
0.4318
  0
SEQEND
 8
0
  0
POLYLINE
  8
0
 62
     0
 66
     1
 10
0
 20
0
 30
0.0
 70
     1
 40
1.224
 41
1.224
  0
VERTEX
  8
0
 10
35.6263
 20
10.9209
 30
0.0
 40
0.4318
 41
0.4318
  0
VERTEX
  8
0
 10
36.1389
 20
10.7101
 30
0.0
 40
0.4318
 41
0.4318
  0
VERTEX
  8
0
 10
36.3513
 20
10.1975
 30
0.0
 40
0.4318
 41
0.4318
  0
VERTEX
  8
0
 10
36.1389
 20
9.68622
 30
0.0
 40
0.4318
 41
0.4318
  0
VERTEX
  8
0
 10
35.6263
 20
9.47265
 30
0.0
 40
0.4318
 41
0.4318
  0
VERTEX
  8
0
 10
35.1138
 20
9.68622
 30
0.0
 40
0.4318
 41
0.4318
  0
VERTEX
  8
0
 10
34.903
 20
10.1975
 30
0.0
 40
0.4318
 41
0.4318
  0
VERTEX
  8
0
 10
35.1138
 20
10.7101
 30
0.0
 40
0.4318
 41
0.4318
  0
VERTEX
  8
0
 10
35.6263
 20
10.9209
 30
0.0
 40
0.4318
 41
0.4318
  0
SEQEND
 8
0
  0
POLYLINE
  8
0
 62
     0
 66
     1
 10
0
 20
0
 30
0.0
 70
     1
 40
1.224
 41
1.224
  0
VERTEX
  8
0
 10
35.6263
 20
13.4607
 30
0.0
 40
0.4318
 41
0.4318
  0
VERTEX
  8
0
 10
36.1389
 20
13.2498
 30
0.0
 40
0.4318
 41
0.4318
  0
VERTEX
  8
0
 10
36.3513
 20
12.7372
 30
0.0
 40
0.4318
 41
0.4318
  0
VERTEX
  8
0
 10
36.1389
 20
12.226
 30
0.0
 40
0.4318
 41
0.4318
  0
VERTEX
  8
0
 10
35.6263
 20
12.0137
 30
0.0
 40
0.4318
 41
0.4318
  0
VERTEX
  8
0
 10
35.1138
 20
12.226
 30
0.0
 40
0.4318
 41
0.4318
  0
VERTEX
  8
0
 10
34.903
 20
12.7372
 30
0.0
 40
0.4318
 41
0.4318
  0
VERTEX
  8
0
 10
35.1138
 20
13.2498
 30
0.0
 40
0.4318
 41
0.4318
  0
VERTEX
  8
0
 10
35.6263
 20
13.4607
 30
0.0
 40
0.4318
 41
0.4318
  0
SEQEND
 8
0
  0
POLYLINE
  8
0
 62
     0
 66
     1
 10
0
 20
0
 30
0.0
 70
     1
 40
1.224
 41
1.224
  0
VERTEX
  8
0
 10
35.6263
 20
16.0004
 30
0.0
 40
0.4318
 41
0.4318
  0
VERTEX
  8
0
 10
36.1389
 20
15.7896
 30
0.0
 40
0.4318
 41
0.4318
  0
VERTEX
  8
0
 10
36.3513
 20
15.2769
 30
0.0
 40
0.4318
 41
0.4318
  0
VERTEX
  8
0
 10
36.1389
 20
14.7657
 30
0.0
 40
0.4318
 41
0.4318
  0
VERTEX
  8
0
 10
35.6263
 20
14.5535
 30
0.0
 40
0.4318
 41
0.4318
  0
VERTEX
  8
0
 10
35.1138
 20
14.7657
 30
0.0
 40
0.4318
 41
0.4318
  0
VERTEX
  8
0
 10
34.903
 20
15.2769
 30
0.0
 40
0.4318
 41
0.4318
  0
VERTEX
  8
0
 10
35.1138
 20
15.7896
 30
0.0
 40
0.4318
 41
0.4318
  0
VERTEX
  8
0
 10
35.6263
 20
16.0004
 30
0.0
 40
0.4318
 41
0.4318
  0
SEQEND
 8
0
  0
POLYLINE
  8
0
 62
     0
 66
     1
 10
0
 20
0
 30
0.0
 70
     1
 40
1.224
 41
1.224
  0
VERTEX
  8
0
 10
50.8674
 20
10.9209
 30
0.0
 40
0.4318
 41
0.4318
  0
VERTEX
  8
0
 10
51.3789
 20
10.7101
 30
0.0
 40
0.4318
 41
0.4318
  0
VERTEX
  8
0
 10
51.5909
 20
10.1975
 30
0.0
 40
0.4318
 41
0.4318
  0
VERTEX
  8
0
 10
51.3789
 20
9.68622
 30
0.0
 40
0.4318
 41
0.4318
  0
VERTEX
  8
0
 10
50.8674
 20
9.47265
 30
0.0
 40
0.4318
 41
0.4318
  0
VERTEX
  8
0
 10
50.3534
 20
9.68622
 30
0.0
 40
0.4318
 41
0.4318
  0
VERTEX
  8
0
 10
50.1428
 20
10.1975
 30
0.0
 40
0.4318
 41
0.4318
  0
VERTEX
  8
0
 10
50.3534
 20
10.7101
 30
0.0
 40
0.4318
 41
0.4318
  0
VERTEX
  8
0
 10
50.8674
 20
10.9209
 30
0.0
 40
0.4318
 41
0.4318
  0
SEQEND
 8
0
  0
POLYLINE
  8
0
 62
     0
 66
     1
 10
0
 20
0
 30
0.0
 70
     1
 40
1.224
 41
1.224
  0
VERTEX
  8
0
 10
50.8674
 20
8.38122
 30
0.0
 40
0.4318
 41
0.4318
  0
VERTEX
  8
0
 10
51.3789
 20
8.1704
 30
0.0
 40
0.4318
 41
0.4318
  0
VERTEX
  8
0
 10
51.5909
 20
7.65775
 30
0.0
 40
0.4318
 41
0.4318
  0
VERTEX
  8
0
 10
51.3789
 20
7.14513
 30
0.0
 40
0.4318
 41
0.4318
  0
VERTEX
  8
0
 10
50.8674
 20
6.93289
 30
0.0
 40
0.4318
 41
0.4318
  0
VERTEX
  8
0
 10
50.3534
 20
7.14513
 30
0.0
 40
0.4318
 41
0.4318
  0
VERTEX
  8
0
 10
50.1428
 20
7.65775
 30
0.0
 40
0.4318
 41
0.4318
  0
VERTEX
  8
0
 10
50.3534
 20
8.1704
 30
0.0
 40
0.4318
 41
0.4318
  0
VERTEX
  8
0
 10
50.8674
 20
8.38122
 30
0.0
 40
0.4318
 41
0.4318
  0
SEQEND
 8
0
  0
POLYLINE
  8
0
 62
     0
 66
     1
 10
0
 20
0
 30
0.0
 40
1.728
 41
1.728
  0
VERTEX
  8
0
 10
34.8368
 20
15.2769
 30
0.0
 40
0.6096
 41
0.6096
  0
VERTEX
  8
0
 10
31.3118
 20
15.2769
 30
0.0
 40
0.6096
 41
0.6096
  0
SEQEND
 8
0
  0
POLYLINE
  8
0
 62
     0
 66
     1
 10
0
 20
0
 30
0.0
 40
1.728
 41
1.728
  0
VERTEX
  8
0
 10
34.8368
 20
12.7372
 30
0.0
 40
0.6096
 41
0.6096
  0
VERTEX
  8
0
 10
31.3118
 20
12.7372
 30
0.0
 40
0.6096
 41
0.6096
  0
SEQEND
 8
0
  0
POLYLINE
  8
0
 62
     0
 66
     1
 10
0
 20
0
 30
0.0
 40
1.728
 41
1.728
  0
VERTEX
  8
0
 10
31.3118
 20
10.1975
 30
0.0
 40
0.6096
 41
0.6096
  0
VERTEX
  8
0
 10
34.8368
 20
10.1975
 30
0.0
 40
0.6096
 41
0.6096
  0
SEQEND
 8
0
  0
POLYLINE
  8
0
 62
     0
 66
     1
 10
0
 20
0
 30
0.0
 40
1.728
 41
1.728
  0
VERTEX
  8
0
 10
34.8368
 20
7.65775
 30
0.0
 40
0.6096
 41
0.6096
  0
VERTEX
  8
0
 10
31.3118
 20
7.65775
 30
0.0
 40
0.6096
 41
0.6096
  0
SEQEND
 8
0
  0
POLYLINE
  8
0
 62
     0
 66
     1
 10
0
 20
0
 30
0.0
 40
0
 41
0
  0
VERTEX
  8
0
 10
3.36793
 20
7.57509
 30
0.0
 40
0
 41
0
  0
VERTEX
  8
0
 10
6.42856
 20
7.24711
 30
0.0
 40
0
 41
0
  0
SEQEND
 8
0
  0
POLYLINE
  8
0
 62
     0
 66
     1
 10
0
 20
0
 30
0.0
 40
1.728
 41
1.728
  0
VERTEX
  8
0
 10
3.36793
 20
7.57509
 30
0.0
 40
0.6096
 41
0.6096
  0
VERTEX
  8
0
 10
6.42856
 20
7.24711
 30
0.0
 40
0.6096
 41
0.6096
  0
SEQEND
 8
0
  0
POLYLINE
  8
0
 62
     0
 66
     1
 10
0
 20
0
 30
0.0
 40
0
 41
0
  0
VERTEX
  8
0
 10
3.36793
 20
15.1956
 30
0.0
 40
0
 41
0
  0
VERTEX
  8
0
 10
6.42856
 20
14.8676
 30
0.0
 40
0
 41
0
  0
SEQEND
 8
0
  0
POLYLINE
  8
0
 62
     0
 66
     1
 10
0
 20
0
 30
0.0
 40
1.728
 41
1.728
  0
VERTEX
  8
0
 10
3.36793
 20
15.1956
 30
0.0
 40
0.6096
 41
0.6096
  0
VERTEX
  8
0
 10
6.42856
 20
14.8676
 30
0.0
 40
0.6096
 41
0.6096
  0
SEQEND
 8
0
  0
POLYLINE
  8
0
 62
     0
 66
     1
 10
0
 20
0
 30
0.0
 40
0
 41
0
  0
VERTEX
  8
0
 10
3.36793
 20
10.1162
 30
0.0
 40
0
 41
0
  0
VERTEX
  8
0
 10
6.42856
 20
9.78683
 30
0.0
 40
0
 41
0
  0
SEQEND
 8
0
  0
POLYLINE
  8
0
 62
     0
 66
     1
 10
0
 20
0
 30
0.0
 40
1.728
 41
1.728
  0
VERTEX
  8
0
 10
3.36793
 20
10.1162
 30
0.0
 40
0.6096
 41
0.6096
  0
VERTEX
  8
0
 10
6.42856
 20
9.78683
 30
0.0
 40
0.6096
 41
0.6096
  0
SEQEND
 8
0
  0
POLYLINE
  8
0
 62
     0
 66
     1
 10
0
 20
0
 30
0.0
 40
0
 41
0
  0
VERTEX
  8
0
 10
3.36793
 20
12.6559
 30
0.0
 40
0
 41
0
  0
VERTEX
  8
0
 10
6.42856
 20
12.3279
 30
0.0
 40
0
 41
0
  0
SEQEND
 8
0
  0
POLYLINE
  8
0
 62
     0
 66
     1
 10
0
 20
0
 30
0.0
 40
1.728
 41
1.728
  0
VERTEX
  8
0
 10
3.36793
 20
12.6559
 30
0.0
 40
0.6096
 41
0.6096
  0
VERTEX
  8
0
 10
6.42856
 20
12.3279
 30
0.0
 40
0.6096
 41
0.6096
  0
SEQEND
 8
0
  0
POLYLINE
  8
0
 62
     0
 66
     1
 10
0
 20
0
 30
0.0
 40
0
 41
0
  0
VERTEX
  8
0
 10
51.6544
 20
45.8128
 30
0.0
 40
0
 41
0
  0
VERTEX
  8
0
 10
65.738
 20
46.8094
 30
0.0
 40
0
 41
0
  0
SEQEND
 8
0
  0
POLYLINE
  8
0
 62
     0
 66
     1
 10
0
 20
0
 30
0.0
 40
1.728
 41
1.728
  0
VERTEX
  8
0
 10
51.6544
 20
45.8128
 30
0.0
 40
0.6096
 41
0.6096
  0
VERTEX
  8
0
 10
65.738
 20
46.8094
 30
0.0
 40
0.6096
 41
0.6096
  0
SEQEND
 8
0
  0
POLYLINE
  8
0
 62
     0
 66
     1
 10
0
 20
0
 30
0.0
 40
0
 41
0
  0
VERTEX
  8
0
 10
65.738
 20
46.8094
 30
0.0
 40
0
 41
0
  0
VERTEX
  8
0
 10
65.9172
 20
47.5297
 30
0.0
 40
0
 41
0
  0
SEQEND
 8
0
  0
POLYLINE
  8
0
 62
     0
 66
     1
 10
0
 20
0
 30
0.0
 40
1.728
 41
1.728
  0
VERTEX
  8
0
 10
65.738
 20
46.8094
 30
0.0
 40
0.6096
 41
0.6096
  0
VERTEX
  8
0
 10
65.9172
 20
47.5297
 30
0.0
 40
0.6096
 41
0.6096
  0
SEQEND
 8
0
  0
POLYLINE
  8
0
 62
     0
 66
     1
 10
0
 20
0
 30
0.0
 40
0
 41
0
  0
VERTEX
  8
0
 10
34.8368
 20
33.044
 30
0.0
 40
0
 41
0
  0
VERTEX
  8
0
 10
8.00502
 20
32.5768
 30
0.0
 40
0
 41
0
  0
SEQEND
 8
0
  0
POLYLINE
  8
0
 62
     0
 66
     1
 10
0
 20
0
 30
0.0
 40
1.728
 41
1.728
  0
VERTEX
  8
0
 10
34.8368
 20
33.044
 30
0.0
 40
0.6096
 41
0.6096
  0
VERTEX
  8
0
 10
8.00502
 20
32.5768
 30
0.0
 40
0.6096
 41
0.6096
  0
SEQEND
 8
0
  0
POLYLINE
  8
0
 62
     0
 66
     1
 10
0
 20
0
 30
0.0
 40
0
 41
0
  0
VERTEX
  8
0
 10
60.9438
 20
49.083
 30
0.0
 40
0
 41
0
  0
VERTEX
  8
0
 10
60.8623
 20
49.8574
 30
0.0
 40
0
 41
0
  0
SEQEND
 8
0
  0
POLYLINE
  8
0
 62
     0
 66
     1
 10
0
 20
0
 30
0.0
 40
1.728
 41
1.728
  0
VERTEX
  8
0
 10
60.9438
 20
49.083
 30
0.0
 40
0.6096
 41
0.6096
  0
VERTEX
  8
0
 10
60.8623
 20
49.8574
 30
0.0
 40
0.6096
 41
0.6096
  0
SEQEND
 8
0
  0
POLYLINE
  8
0
 62
     0
 66
     1
 10
0
 20
0
 30
0.0
 40
1.728
 41
1.728
  0
VERTEX
  8
0
 10
60.8623
 20
49.8574
 30
0.0
 40
0.6096
 41
0.6096
  0
VERTEX
  8
0
 10
56.5947
 20
49.8574
 30
0.0
 40
0.6096
 41
0.6096
  0
SEQEND
 8
0
  0
POLYLINE
  8
0
 62
     0
 66
     1
 10
0
 20
0
 30
0.0
 40
1.728
 41
1.728
  0
VERTEX
  8
0
 10
56.5947
 20
49.8574
 30
0.0
 40
0.6096
 41
0.6096
  0
VERTEX
  8
0
 10
56.5947
 20
48.6392
 30
0.0
 40
0.6096
 41
0.6096
  0
SEQEND
 8
0
  0
POLYLINE
  8
0
 62
     0
 66
     1
 10
0
 20
0
 30
0.0
 40
1.728
 41
1.728
  0
VERTEX
  8
0
 10
56.5947
 20
48.6392
 30
0.0
 40
0.6096
 41
0.6096
  0
VERTEX
  8
0
 10
49.8891
 20
48.6392
 30
0.0
 40
0.6096
 41
0.6096
  0
SEQEND
 8
0
  0
POLYLINE
  8
0
 62
     0
 66
     1
 10
0
 20
0
 30
0.0
 40
0
 41
0
  0
VERTEX
  8
0
 10
49.8891
 20
48.6392
 30
0.0
 40
0
 41
0
  0
VERTEX
  8
0
 10
46.8408
 20
34.3131
 30
0.0
 40
0
 41
0
  0
SEQEND
 8
0
  0
POLYLINE
  8
0
 62
     0
 66
     1
 10
0
 20
0
 30
0.0
 40
1.728
 41
1.728
  0
VERTEX
  8
0
 10
49.8891
 20
48.6392
 30
0.0
 40
0.6096
 41
0.6096
  0
VERTEX
  8
0
 10
46.8408
 20
34.3131
 30
0.0
 40
0.6096
 41
0.6096
  0
SEQEND
 8
0
  0
POLYLINE
  8
0
 62
     0
 66
     1
 10
0
 20
0
 30
0.0
 40
0
 41
0
  0
VERTEX
  8
0
 10
46.8408
 20
34.3131
 30
0.0
 40
0
 41
0
  0
VERTEX
  8
0
 10
36.412
 20
33.1446
 30
0.0
 40
0
 41
0
  0
SEQEND
 8
0
  0
POLYLINE
  8
0
 62
     0
 66
     1
 10
0
 20
0
 30
0.0
 40
1.728
 41
1.728
  0
VERTEX
  8
0
 10
46.8408
 20
34.3131
 30
0.0
 40
0.6096
 41
0.6096
  0
VERTEX
  8
0
 10
36.412
 20
33.1446
 30
0.0
 40
0.6096
 41
0.6096
  0
SEQEND
 8
0
  0
POLYLINE
  8
0
 62
     0
 66
     1
 10
0
 20
0
 30
0.0
 40
0
 41
0
  0
VERTEX
  8
0
 10
63.1941
 20
48.9934
 30
0.0
 40
0
 41
0
  0
VERTEX
  8
0
 10
62.0808
 20
51.0769
 30
0.0
 40
0
 41
0
  0
SEQEND
 8
0
  0
POLYLINE
  8
0
 62
     0
 66
     1
 10
0
 20
0
 30
0.0
 40
1.728
 41
1.728
  0
VERTEX
  8
0
 10
63.1941
 20
48.9934
 30
0.0
 40
0.6096
 41
0.6096
  0
VERTEX
  8
0
 10
62.0808
 20
51.0769
 30
0.0
 40
0.6096
 41
0.6096
  0
SEQEND
 8
0
  0
POLYLINE
  8
0
 62
     0
 66
     1
 10
0
 20
0
 30
0.0
 40
1.728
 41
1.728
  0
VERTEX
  8
0
 10
62.0808
 20
51.0769
 30
0.0
 40
0.6096
 41
0.6096
  0
VERTEX
  8
0
 10
55.3752
 20
51.0769
 30
0.0
 40
0.6096
 41
0.6096
  0
SEQEND
 8
0
  0
POLYLINE
  8
0
 62
     0
 66
     1
 10
0
 20
0
 30
0.0
 40
1.728
 41
1.728
  0
VERTEX
  8
0
 10
55.3752
 20
51.0769
 30
0.0
 40
0.6096
 41
0.6096
  0
VERTEX
  8
0
 10
55.3752
 20
50.468
 30
0.0
 40
0.6096
 41
0.6096
  0
SEQEND
 8
0
  0
POLYLINE
  8
0
 62
     0
 66
     1
 10
0
 20
0
 30
0.0
 40
0
 41
0
  0
VERTEX
  8
0
 10
55.3752
 20
50.468
 30
0.0
 40
0
 41
0
  0
VERTEX
  8
0
 10
23.067
 20
46.2001
 30
0.0
 40
0
 41
0
  0
SEQEND
 8
0
  0
POLYLINE
  8
0
 62
     0
 66
     1
 10
0
 20
0
 30
0.0
 40
1.728
 41
1.728
  0
VERTEX
  8
0
 10
55.3752
 20
50.468
 30
0.0
 40
0.6096
 41
0.6096
  0
VERTEX
  8
0
 10
23.067
 20
46.2001
 30
0.0
 40
0.6096
 41
0.6096
  0
SEQEND
 8
0
  0
POLYLINE
  8
0
 62
     0
 66
     1
 10
0
 20
0
 30
0.0
 40
0
 41
0
  0
VERTEX
  8
0
 10
23.067
 20
46.2001
 30
0.0
 40
0
 41
0
  0
VERTEX
  8
0
 10
22.8865
 20
45.9246
 30
0.0
 40
0
 41
0
  0
SEQEND
 8
0
  0
POLYLINE
  8
0
 62
     0
 66
     1
 10
0
 20
0
 30
0.0
 40
1.728
 41
1.728
  0
VERTEX
  8
0
 10
23.067
 20
46.2001
 30
0.0
 40
0.6096
 41
0.6096
  0
VERTEX
  8
0
 10
22.8865
 20
45.9246
 30
0.0
 40
0.6096
 41
0.6096
  0
SEQEND
 8
0
  0
POLYLINE
  8
0
 62
     0
 66
     1
 10
0
 20
0
 30
0.0
 40
0
 41
0
  0
VERTEX
  8
0
 10
74.2403
 20
13.2512
 30
0.0
 40
0
 41
0
  0
VERTEX
  8
0
 10
78.2934
 20
17.304
 30
0.0
 40
0
 41
0
  0
SEQEND
 8
0
  0
POLYLINE
  8
0
 62
     0
 66
     1
 10
0
 20
0
 30
0.0
 40
1.728
 41
1.728
  0
VERTEX
  8
0
 10
74.2403
 20
13.2512
 30
0.0
 40
0.6096
 41
0.6096
  0
VERTEX
  8
0
 10
78.2934
 20
17.304
 30
0.0
 40
0.6096
 41
0.6096
  0
SEQEND
 8
0
  0
POLYLINE
  8
0
 62
     0
 66
     1
 10
0
 20
0
 30
0.0
 40
0
 41
0
  0
VERTEX
  8
0
 10
64.178
 20
5.57555
 30
0.0
 40
0
 41
0
  0
VERTEX
  8
0
 10
73.1449
 20
12.3017
 30
0.0
 40
0
 41
0
  0
SEQEND
 8
0
  0
POLYLINE
  8
0
 62
     0
 66
     1
 10
0
 20
0
 30
0.0
 40
1.728
 41
1.728
  0
VERTEX
  8
0
 10
64.178
 20
5.57555
 30
0.0
 40
0.6096
 41
0.6096
  0
VERTEX
  8
0
 10
73.1449
 20
12.3017
 30
0.0
 40
0.6096
 41
0.6096
  0
SEQEND
 8
0
  0
POLYLINE
  8
0
 62
     0
 66
     1
 10
0
 20
0
 30
0.0
 40
0
 41
0
  0
VERTEX
  8
0
 10
51.6488
 20
43.3366
 30
0.0
 40
0
 41
0
  0
VERTEX
  8
0
 10
72.4436
 20
46.5046
 30
0.0
 40
0
 41
0
  0
SEQEND
 8
0
  0
POLYLINE
  8
0
 62
     0
 66
     1
 10
0
 20
0
 30
0.0
 40
1.728
 41
1.728
  0
VERTEX
  8
0
 10
51.6488
 20
43.3366
 30
0.0
 40
0.6096
 41
0.6096
  0
VERTEX
  8
0
 10
72.4436
 20
46.5046
 30
0.0
 40
0.6096
 41
0.6096
  0
SEQEND
 8
0
  0
POLYLINE
  8
0
 62
     0
 66
     1
 10
0
 20
0
 30
0.0
 40
0
 41
0
  0
VERTEX
  8
0
 10
72.4436
 20
46.5046
 30
0.0
 40
0
 41
0
  0
VERTEX
  8
0
 10
73.2663
 20
47.6539
 30
0.0
 40
0
 41
0
  0
SEQEND
 8
0
  0
POLYLINE
  8
0
 62
     0
 66
     1
 10
0
 20
0
 30
0.0
 40
1.728
 41
1.728
  0
VERTEX
  8
0
 10
72.4436
 20
46.5046
 30
0.0
 40
0.6096
 41
0.6096
  0
VERTEX
  8
0
 10
73.2663
 20
47.6539
 30
0.0
 40
0.6096
 41
0.6096
  0
SEQEND
 8
0
  0
POLYLINE
  8
0
 62
     0
 66
     1
 10
0
 20
0
 30
0.0
 40
0
 41
0
  0
VERTEX
  8
0
 10
78.529
 20
26.1083
 30
0.0
 40
0
 41
0
  0
VERTEX
  8
0
 10
78.54
 20
26.0835
 30
0.0
 40
0
 41
0
  0
SEQEND
 8
0
  0
POLYLINE
  8
0
 62
     0
 66
     1
 10
0
 20
0
 30
0.0
 40
1.728
 41
1.728
  0
VERTEX
  8
0
 10
78.529
 20
26.1083
 30
0.0
 40
0.6096
 41
0.6096
  0
VERTEX
  8
0
 10
78.54
 20
26.0835
 30
0.0
 40
0.6096
 41
0.6096
  0
SEQEND
 8
0
  0
POLYLINE
  8
0
 62
     0
 66
     1
 10
0
 20
0
 30
0.0
 40
0
 41
0
  0
VERTEX
  8
0
 10
78.54
 20
26.0835
 30
0.0
 40
0
 41
0
  0
VERTEX
  8
0
 10
66.9576
 20
32.18
 30
0.0
 40
0
 41
0
  0
SEQEND
 8
0
  0
POLYLINE
  8
0
 62
     0
 66
     1
 10
0
 20
0
 30
0.0
 40
1.728
 41
1.728
  0
VERTEX
  8
0
 10
78.54
 20
26.0835
 30
0.0
 40
0.6096
 41
0.6096
  0
VERTEX
  8
0
 10
66.9576
 20
32.18
 30
0.0
 40
0.6096
 41
0.6096
  0
SEQEND
 8
0
  0
POLYLINE
  8
0
 62
     0
 66
     1
 10
0
 20
0
 30
0.0
 40
0
 41
0
  0
VERTEX
  8
0
 10
66.9576
 20
32.18
 30
0.0
 40
0
 41
0
  0
VERTEX
  8
0
 10
66.657
 20
32.49
 30
0.0
 40
0
 41
0
  0
SEQEND
 8
0
  0
POLYLINE
  8
0
 62
     0
 66
     1
 10
0
 20
0
 30
0.0
 40
1.728
 41
1.728
  0
VERTEX
  8
0
 10
66.9576
 20
32.18
 30
0.0
 40
0.6096
 41
0.6096
  0
VERTEX
  8
0
 10
66.657
 20
32.49
 30
0.0
 40
0.6096
 41
0.6096
  0
SEQEND
 8
0
  0
POLYLINE
  8
0
 62
     0
 66
     1
 10
0
 20
0
 30
0.0
 40
0
 41
0
  0
VERTEX
  8
0
 10
21.7675
 20
43.1133
 30
0.0
 40
0
 41
0
  0
VERTEX
  8
0
 10
20.6279
 20
43.7624
 30
0.0
 40
0
 41
0
  0
SEQEND
 8
0
  0
POLYLINE
  8
0
 62
     0
 66
     1
 10
0
 20
0
 30
0.0
 40
1.728
 41
1.728
  0
VERTEX
  8
0
 10
21.7675
 20
43.1133
 30
0.0
 40
0.6096
 41
0.6096
  0
VERTEX
  8
0
 10
20.6279
 20
43.7624
 30
0.0
 40
0.6096
 41
0.6096
  0
SEQEND
 8
0
  0
POLYLINE
  8
0
 62
     0
 66
     1
 10
0
 20
0
 30
0.0
 40
1.728
 41
1.728
  0
VERTEX
  8
0
 10
20.6279
 20
43.7624
 30
0.0
 40
0.6096
 41
0.6096
  0
VERTEX
  8
0
 10
20.6279
 20
46.2001
 30
0.0
 40
0.6096
 41
0.6096
  0
SEQEND
 8
0
  0
POLYLINE
  8
0
 62
     0
 66
     1
 10
0
 20
0
 30
0.0
 40
0
 41
0
  0
VERTEX
  8
0
 10
20.6279
 20
46.2001
 30
0.0
 40
0
 41
0
  0
VERTEX
  8
0
 10
31.6012
 20
51.6862
 30
0.0
 40
0
 41
0
  0
SEQEND
 8
0
  0
POLYLINE
  8
0
 62
     0
 66
     1
 10
0
 20
0
 30
0.0
 40
1.728
 41
1.728
  0
VERTEX
  8
0
 10
20.6279
 20
46.2001
 30
0.0
 40
0.6096
 41
0.6096
  0
VERTEX
  8
0
 10
31.6012
 20
51.6862
 30
0.0
 40
0.6096
 41
0.6096
  0
SEQEND
 8
0
  0
POLYLINE
  8
0
 62
     0
 66
     1
 10
0
 20
0
 30
0.0
 40
0
 41
0
  0
VERTEX
  8
0
 10
31.6012
 20
51.6862
 30
0.0
 40
0
 41
0
  0
VERTEX
  8
0
 10
63.3003
 20
52.2965
 30
0.0
 40
0
 41
0
  0
SEQEND
 8
0
  0
POLYLINE
  8
0
 62
     0
 66
     1
 10
0
 20
0
 30
0.0
 40
1.728
 41
1.728
  0
VERTEX
  8
0
 10
31.6012
 20
51.6862
 30
0.0
 40
0.6096
 41
0.6096
  0
VERTEX
  8
0
 10
63.3003
 20
52.2965
 30
0.0
 40
0.6096
 41
0.6096
  0
SEQEND
 8
0
  0
POLYLINE
  8
0
 62
     0
 66
     1
 10
0
 20
0
 30
0.0
 40
0
 41
0
  0
VERTEX
  8
0
 10
63.3003
 20
52.2965
 30
0.0
 40
0
 41
0
  0
VERTEX
  8
0
 10
70.6148
 20
49.2485
 30
0.0
 40
0
 41
0
  0
SEQEND
 8
0
  0
POLYLINE
  8
0
 62
     0
 66
     1
 10
0
 20
0
 30
0.0
 40
1.728
 41
1.728
  0
VERTEX
  8
0
 10
63.3003
 20
52.2965
 30
0.0
 40
0.6096
 41
0.6096
  0
VERTEX
  8
0
 10
70.6148
 20
49.2485
 30
0.0
 40
0.6096
 41
0.6096
  0
SEQEND
 8
0
  0
POLYLINE
  8
0
 62
     0
 66
     1
 10
0
 20
0
 30
0.0
 40
0
 41
0
  0
VERTEX
  8
0
 10
70.6148
 20
49.2485
 30
0.0
 40
0
 41
0
  0
VERTEX
  8
0
 10
70.7803
 20
48.974
 30
0.0
 40
0
 41
0
  0
SEQEND
 8
0
  0
POLYLINE
  8
0
 62
     0
 66
     1
 10
0
 20
0
 30
0.0
 40
1.728
 41
1.728
  0
VERTEX
  8
0
 10
70.6148
 20
49.2485
 30
0.0
 40
0.6096
 41
0.6096
  0
VERTEX
  8
0
 10
70.7803
 20
48.974
 30
0.0
 40
0.6096
 41
0.6096
  0
SEQEND
 8
0
  0
POLYLINE
  8
0
 62
     0
 66
     1
 10
0
 20
0
 30
0.0
 40
0
 41
0
  0
VERTEX
  8
0
 10
7.96918
 20
45.0261
 30
0.0
 40
0
 41
0
  0
VERTEX
  8
0
 10
7.31876
 20
45.23
 30
0.0
 40
0
 41
0
  0
SEQEND
 8
0
  0
POLYLINE
  8
0
 62
     0
 66
     1
 10
0
 20
0
 30
0.0
 40
1.728
 41
1.728
  0
VERTEX
  8
0
 10
7.96918
 20
45.0261
 30
0.0
 40
0.6096
 41
0.6096
  0
VERTEX
  8
0
 10
7.31876
 20
45.23
 30
0.0
 40
0.6096
 41
0.6096
  0
SEQEND
 8
0
  0
POLYLINE
  8
0
 62
     0
 66
     1
 10
0
 20
0
 30
0.0
 40
0
 41
0
  0
VERTEX
  8
0
 10
7.31876
 20
45.23
 30
0.0
 40
0
 41
0
  0
VERTEX
  8
0
 10
5.38812
 20
44.3713
 30
0.0
 40
0
 41
0
  0
SEQEND
 8
0
  0
POLYLINE
  8
0
 62
     0
 66
     1
 10
0
 20
0
 30
0.0
 40
1.728
 41
1.728
  0
VERTEX
  8
0
 10
7.31876
 20
45.23
 30
0.0
 40
0.6096
 41
0.6096
  0
VERTEX
  8
0
 10
5.38812
 20
44.3713
 30
0.0
 40
0.6096
 41
0.6096
  0
SEQEND
 8
0
  0
POLYLINE
  8
0
 62
     0
 66
     1
 10
0
 20
0
 30
0.0
 40
0
 41
0
  0
VERTEX
  8
0
 10
5.38812
 20
44.3713
 30
0.0
 40
0
 41
0
  0
VERTEX
  8
0
 10
5.99722
 20
30.9604
 30
0.0
 40
0
 41
0
  0
SEQEND
 8
0
  0
POLYLINE
  8
0
 62
     0
 66
     1
 10
0
 20
0
 30
0.0
 40
1.728
 41
1.728
  0
VERTEX
  8
0
 10
5.38812
 20
44.3713
 30
0.0
 40
0.6096
 41
0.6096
  0
VERTEX
  8
0
 10
5.99722
 20
30.9604
 30
0.0
 40
0.6096
 41
0.6096
  0
SEQEND
 8
0
  0
POLYLINE
  8
0
 62
     0
 66
     1
 10
0
 20
0
 30
0.0
 40
1.728
 41
1.728
  0
VERTEX
  8
0
 10
5.99722
 20
30.9604
 30
0.0
 40
0.6096
 41
0.6096
  0
VERTEX
  8
0
 10
20.6279
 20
30.9604
 30
0.0
 40
0.6096
 41
0.6096
  0
SEQEND
 8
0
  0
POLYLINE
  8
0
 62
     0
 66
     1
 10
0
 20
0
 30
0.0
 40
1.728
 41
1.728
  0
VERTEX
  8
0
 10
20.6279
 20
30.9604
 30
0.0
 40
0.6096
 41
0.6096
  0
VERTEX
  8
0
 10
20.6279
 20
18.7689
 30
0.0
 40
0.6096
 41
0.6096
  0
SEQEND
 8
0
  0
POLYLINE
  8
0
 62
     0
 66
     1
 10
0
 20
0
 30
0.0
 40
0
 41
0
  0
VERTEX
  8
0
 10
20.6279
 20
18.7689
 30
0.0
 40
0
 41
0
  0
VERTEX
  8
0
 10
22.4565
 20
18.1584
 30
0.0
 40
0
 41
0
  0
SEQEND
 8
0
  0
POLYLINE
  8
0
 62
     0
 66
     1
 10
0
 20
0
 30
0.0
 40
1.728
 41
1.728
  0
VERTEX
  8
0
 10
20.6279
 20
18.7689
 30
0.0
 40
0.6096
 41
0.6096
  0
VERTEX
  8
0
 10
22.4565
 20
18.1584
 30
0.0
 40
0.6096
 41
0.6096
  0
SEQEND
 8
0
  0
POLYLINE
  8
0
 62
     0
 66
     1
 10
0
 20
0
 30
0.0
 40
1.728
 41
1.728
  0
VERTEX
  8
0
 10
22.4565
 20
18.1584
 30
0.0
 40
0.6096
 41
0.6096
  0
VERTEX
  8
0
 10
22.4565
 20
10.8438
 30
0.0
 40
0.6096
 41
0.6096
  0
SEQEND
 8
0
  0
POLYLINE
  8
0
 62
     0
 66
     1
 10
0
 20
0
 30
0.0
 40
1.728
 41
1.728
  0
VERTEX
  8
0
 10
22.4565
 20
10.8438
 30
0.0
 40
0.6096
 41
0.6096
  0
VERTEX
  8
0
 10
22.4565
 20
10.4938
 30
0.0
 40
0.6096
 41
0.6096
  0
SEQEND
 8
0
  0
POLYLINE
  8
0
 62
     0
 66
     1
 10
0
 20
0
 30
0.0
 40
0
 41
0
  0
VERTEX
  8
0
 10
60.4696
 20
5.64169
 30
0.0
 40
0
 41
0
  0
VERTEX
  8
0
 10
57.2036
 20
8.7092
 30
0.0
 40
0
 41
0
  0
SEQEND
 8
0
  0
POLYLINE
  8
0
 62
     0
 66
     1
 10
0
 20
0
 30
0.0
 40
1.728
 41
1.728
  0
VERTEX
  8
0
 10
60.4696
 20
5.64169
 30
0.0
 40
0.6096
 41
0.6096
  0
VERTEX
  8
0
 10
57.2036
 20
8.7092
 30
0.0
 40
0.6096
 41
0.6096
  0
SEQEND
 8
0
  0
POLYLINE
  8
0
 62
     0
 66
     1
 10
0
 20
0
 30
0.0
 40
0
 41
0
  0
VERTEX
  8
0
 10
57.2036
 20
8.7092
 30
0.0
 40
0
 41
0
  0
VERTEX
  8
0
 10
51.6364
 20
10.0169
 30
0.0
 40
0
 41
0
  0
SEQEND
 8
0
  0
POLYLINE
  8
0
 62
     0
 66
     1
 10
0
 20
0
 30
0.0
 40
1.728
 41
1.728
  0
VERTEX
  8
0
 10
57.2036
 20
8.7092
 30
0.0
 40
0.6096
 41
0.6096
  0
VERTEX
  8
0
 10
51.6364
 20
10.0169
 30
0.0
 40
0.6096
 41
0.6096
  0
SEQEND
 8
0
  0
POLYLINE
  8
0
 62
     0
 66
     1
 10
0
 20
0
 30
0.0
 40
0
 41
0
  0
VERTEX
  8
0
 10
60.7452
 20
17.1469
 30
0.0
 40
0
 41
0
  0
VERTEX
  8
0
 10
57.2036
 20
8.7092
 30
0.0
 40
0
 41
0
  0
SEQEND
 8
0
  0
POLYLINE
  8
0
 62
     0
 66
     1
 10
0
 20
0
 30
0.0
 40
1.728
 41
1.728
  0
VERTEX
  8
0
 10
60.7452
 20
17.1469
 30
0.0
 40
0.6096
 41
0.6096
  0
VERTEX
  8
0
 10
57.2036
 20
8.7092
 30
0.0
 40
0.6096
 41
0.6096
  0
SEQEND
 8
0
  0
POLYLINE
  8
0
 62
     0
 66
     1
 10
0
 20
0
 30
0.0
 40
0
 41
0
  0
VERTEX
  8
0
 10
83.0986
 20
4.8066
 30
0.0
 40
0
 41
0
  0
VERTEX
  8
0
 10
65.1288
 20
3.52778
 30
0.0
 40
0
 41
0
  0
SEQEND
 8
0
  0
POLYLINE
  8
0
 62
     0
 66
     1
 10
0
 20
0
 30
0.0
 40
1.728
 41
1.728
  0
VERTEX
  8
0
 10
83.0986
 20
4.8066
 30
0.0
 40
0.6096
 41
0.6096
  0
VERTEX
  8
0
 10
65.1288
 20
3.52778
 30
0.0
 40
0.6096
 41
0.6096
  0
SEQEND
 8
0
  0
POLYLINE
  8
0
 62
     0
 66
     1
 10
0
 20
0
 30
0.0
 40
1.728
 41
1.728
  0
VERTEX
  8
0
 10
65.1288
 20
3.52778
 30
0.0
 40
0.6096
 41
0.6096
  0
VERTEX
  8
0
 10
62.0808
 20
3.52778
 30
0.0
 40
0.6096
 41
0.6096
  0
SEQEND
 8
0
  0
POLYLINE
  8
0
 62
     0
 66
     1
 10
0
 20
0
 30
0.0
 40
0
 41
0
  0
VERTEX
  8
0
 10
62.0808
 20
3.52778
 30
0.0
 40
0
 41
0
  0
VERTEX
  8
0
 10
61.4497
 20
4.48
 30
0.0
 40
0
 41
0
  0
SEQEND
 8
0
  0
POLYLINE
  8
0
 62
     0
 66
     1
 10
0
 20
0
 30
0.0
 40
1.728
 41
1.728
  0
VERTEX
  8
0
 10
62.0808
 20
3.52778
 30
0.0
 40
0.6096
 41
0.6096
  0
VERTEX
  8
0
 10
61.4497
 20
4.48
 30
0.0
 40
0.6096
 41
0.6096
  0
SEQEND
 8
0
  0
POLYLINE
  8
0
 62
     0
 66
     1
 10
0
 20
0
 30
0.0
 40
0
 41
0
  0
VERTEX
  8
0
 10
79.3792
 20
32.5121
 30
0.0
 40
0
 41
0
  0
VERTEX
  8
0
 10
80.3684
 20
31.5695
 30
0.0
 40
0
 41
0
  0
SEQEND
 8
0
  0
POLYLINE
  8
0
 62
     0
 66
     1
 10
0
 20
0
 30
0.0
 40
1.728
 41
1.728
  0
VERTEX
  8
0
 10
79.3792
 20
32.5121
 30
0.0
 40
0.6096
 41
0.6096
  0
VERTEX
  8
0
 10
80.3684
 20
31.5695
 30
0.0
 40
0.6096
 41
0.6096
  0
SEQEND
 8
0
  0
POLYLINE
  8
0
 62
     0
 66
     1
 10
0
 20
0
 30
0.0
 40
1.728
 41
1.728
  0
VERTEX
  8
0
 10
80.3684
 20
31.5695
 30
0.0
 40
0.6096
 41
0.6096
  0
VERTEX
  8
0
 10
80.3684
 20
23.6444
 30
0.0
 40
0.6096
 41
0.6096
  0
SEQEND
 8
0
  0
POLYLINE
  8
0
 62
     0
 66
     1
 10
0
 20
0
 30
0.0
 40
0
 41
0
  0
VERTEX
  8
0
 10
80.3684
 20
23.6444
 30
0.0
 40
0
 41
0
  0
VERTEX
  8
0
 10
61.4715
 20
19.0734
 30
0.0
 40
0
 41
0
  0
SEQEND
 8
0
  0
POLYLINE
  8
0
 62
     0
 66
     1
 10
0
 20
0
 30
0.0
 40
1.728
 41
1.728
  0
VERTEX
  8
0
 10
80.3684
 20
23.6444
 30
0.0
 40
0.6096
 41
0.6096
  0
VERTEX
  8
0
 10
61.4715
 20
19.0734
 30
0.0
 40
0.6096
 41
0.6096
  0
SEQEND
 8
0
  0
POLYLINE
  8
0
 62
     0
 66
     1
 10
0
 20
0
 30
0.0
 40
0
 41
0
  0
VERTEX
  8
0
 10
61.4715
 20
19.0734
 30
0.0
 40
0
 41
0
  0
VERTEX
  8
0
 10
61.269
 20
18.5029
 30
0.0
 40
0
 41
0
  0
SEQEND
 8
0
  0
POLYLINE
  8
0
 62
     0
 66
     1
 10
0
 20
0
 30
0.0
 40
1.728
 41
1.728
  0
VERTEX
  8
0
 10
61.4715
 20
19.0734
 30
0.0
 40
0.6096
 41
0.6096
  0
VERTEX
  8
0
 10
61.269
 20
18.5029
 30
0.0
 40
0.6096
 41
0.6096
  0
SEQEND
 8
0
  0
POLYLINE
  8
0
 62
     0
 66
     1
 10
0
 20
0
 30
0.0
 40
0
 41
0
  0
VERTEX
  8
0
 10
22.9802
 20
9.11296
 30
0.0
 40
0
 41
0
  0
VERTEX
  8
0
 10
23.067
 20
9.01513
 30
0.0
 40
0
 41
0
  0
SEQEND
 8
0
  0
POLYLINE
  8
0
 62
     0
 66
     1
 10
0
 20
0
 30
0.0
 40
1.728
 41
1.728
  0
VERTEX
  8
0
 10
22.9802
 20
9.11296
 30
0.0
 40
0.6096
 41
0.6096
  0
VERTEX
  8
0
 10
23.067
 20
9.01513
 30
0.0
 40
0.6096
 41
0.6096
  0
SEQEND
 8
0
  0
POLYLINE
  8
0
 62
     0
 66
     1
 10
0
 20
0
 30
0.0
 40
1.728
 41
1.728
  0
VERTEX
  8
0
 10
23.067
 20
9.01513
 30
0.0
 40
0.6096
 41
0.6096
  0
VERTEX
  8
0
 10
24.2852
 20
9.01513
 30
0.0
 40
0.6096
 41
0.6096
  0
SEQEND
 8
0
  0
POLYLINE
  8
0
 62
     0
 66
     1
 10
0
 20
0
 30
0.0
 40
0
 41
0
  0
VERTEX
  8
0
 10
24.2852
 20
9.01513
 30
0.0
 40
0
 41
0
  0
VERTEX
  8
0
 10
29.1621
 20
5.96692
 30
0.0
 40
0
 41
0
  0
SEQEND
 8
0
  0
POLYLINE
  8
0
 62
     0
 66
     1
 10
0
 20
0
 30
0.0
 40
1.728
 41
1.728
  0
VERTEX
  8
0
 10
24.2852
 20
9.01513
 30
0.0
 40
0.6096
 41
0.6096
  0
VERTEX
  8
0
 10
29.1621
 20
5.96692
 30
0.0
 40
0.6096
 41
0.6096
  0
SEQEND
 8
0
  0
POLYLINE
  8
0
 62
     0
 66
     1
 10
0
 20
0
 30
0.0
 40
1.728
 41
1.728
  0
VERTEX
  8
0
 10
29.1621
 20
5.96692
 30
0.0
 40
0.6096
 41
0.6096
  0
VERTEX
  8
0
 10
37.6975
 20
5.96692
 30
0.0
 40
0.6096
 41
0.6096
  0
SEQEND
 8
0
  0
POLYLINE
  8
0
 62
     0
 66
     1
 10
0
 20
0
 30
0.0
 40
0
 41
0
  0
VERTEX
  8
0
 10
37.6975
 20
5.96692
 30
0.0
 40
0
 41
0
  0
VERTEX
  8
0
 10
50.1138
 20
9.95497
 30
0.0
 40
0
 41
0
  0
SEQEND
 8
0
  0
POLYLINE
  8
0
 62
     0
 66
     1
 10
0
 20
0
 30
0.0
 40
1.728
 41
1.728
  0
VERTEX
  8
0
 10
37.6975
 20
5.96692
 30
0.0
 40
0.6096
 41
0.6096
  0
VERTEX
  8
0
 10
50.1138
 20
9.95497
 30
0.0
 40
0.6096
 41
0.6096
  0
SEQEND
 8
0
  0
POLYLINE
  8
0
 62
     0
 66
     1
 10
0
 20
0
 30
0.0
 40
0
 41
0
  0
VERTEX
  8
0
 10
36.1844
 20
45.1968
 30
0.0
 40
0
 41
0
  0
VERTEX
  8
0
 10
38.2062
 20
43.1684
 30
0.0
 40
0
 41
0
  0
SEQEND
 8
0
  0
POLYLINE
  8
0
 62
     0
 66
     1
 10
0
 20
0
 30
0.0
 40
1.728
 41
1.728
  0
VERTEX
  8
0
 10
36.1844
 20
45.1968
 30
0.0
 40
0.6096
 41
0.6096
  0
VERTEX
  8
0
 10
38.2062
 20
43.1684
 30
0.0
 40
0.6096
 41
0.6096
  0
SEQEND
 8
0
  0
POLYLINE
  8
0
 62
     0
 66
     1
 10
0
 20
0
 30
0.0
 40
0
 41
0
  0
VERTEX
  8
0
 10
38.2062
 20
43.1684
 30
0.0
 40
0
 41
0
  0
VERTEX
  8
0
 10
36.9672
 20
38.3618
 30
0.0
 40
0
 41
0
  0
SEQEND
 8
0
  0
POLYLINE
  8
0
 62
     0
 66
     1
 10
0
 20
0
 30
0.0
 40
1.728
 41
1.728
  0
VERTEX
  8
0
 10
38.2062
 20
43.1684
 30
0.0
 40
0.6096
 41
0.6096
  0
VERTEX
  8
0
 10
36.9672
 20
38.3618
 30
0.0
 40
0.6096
 41
0.6096
  0
SEQEND
 8
0
  0
POLYLINE
  8
0
 62
     0
 66
     1
 10
0
 20
0
 30
0.0
 40
0
 41
0
  0
VERTEX
  8
0
 10
36.9672
 20
38.3618
 30
0.0
 40
0
 41
0
  0
VERTEX
  8
0
 10
20.6279
 20
38.275
 30
0.0
 40
0
 41
0
  0
SEQEND
 8
0
  0
POLYLINE
  8
0
 62
     0
 66
     1
 10
0
 20
0
 30
0.0
 40
1.728
 41
1.728
  0
VERTEX
  8
0
 10
36.9672
 20
38.3618
 30
0.0
 40
0.6096
 41
0.6096
  0
VERTEX
  8
0
 10
20.6279
 20
38.275
 30
0.0
 40
0.6096
 41
0.6096
  0
SEQEND
 8
0
  0
POLYLINE
  8
0
 62
     0
 66
     1
 10
0
 20
0
 30
0.0
 40
0
 41
0
  0
VERTEX
  8
0
 10
20.6279
 20
38.275
 30
0.0
 40
0
 41
0
  0
VERTEX
  8
0
 10
7.91545
 20
44.898
 30
0.0
 40
0
 41
0
  0
SEQEND
 8
0
  0
POLYLINE
  8
0
 62
     0
 66
     1
 10
0
 20
0
 30
0.0
 40
1.728
 41
1.728
  0
VERTEX
  8
0
 10
20.6279
 20
38.275
 30
0.0
 40
0.6096
 41
0.6096
  0
VERTEX
  8
0
 10
7.91545
 20
44.898
 30
0.0
 40
0.6096
 41
0.6096
  0
SEQEND
 8
0
  0
POLYLINE
  8
0
 62
     0
 66
     1
 10
0
 20
0
 30
0.0
 40
1.728
 41
1.728
  0
VERTEX
  8
0
 10
21.2383
 20
10.2333
 30
0.0
 40
0.6096
 41
0.6096
  0
VERTEX
  8
0
 10
21.8474
 20
10.2333
 30
0.0
 40
0.6096
 41
0.6096
  0
SEQEND
 8
0
  0
POLYLINE
  8
0
 62
     0
 66
     1
 10
0
 20
0
 30
0.0
 40
0
 41
0
  0
VERTEX
  8
0
 10
21.8474
 20
10.2333
 30
0.0
 40
0
 41
0
  0
VERTEX
  8
0
 10
21.8598
 20
10.2223
 30
0.0
 40
0
 41
0
  0
SEQEND
 8
0
  0
POLYLINE
  8
0
 62
     0
 66
     1
 10
0
 20
0
 30
0.0
 40
1.728
 41
1.728
  0
VERTEX
  8
0
 10
21.8474
 20
10.2333
 30
0.0
 40
0.6096
 41
0.6096
  0
VERTEX
  8
0
 10
21.8598
 20
10.2223
 30
0.0
 40
0.6096
 41
0.6096
  0
SEQEND
 8
0
  0
POLYLINE
  8
0
 62
     0
 66
     1
 10
0
 20
0
 30
0.0
 40
1.728
 41
1.728
  0
VERTEX
  8
0
 10
83.8867
 20
12.011
 30
0.0
 40
0.6096
 41
0.6096
  0
VERTEX
  8
0
 10
83.8867
 20
8.44737
 30
0.0
 40
0.6096
 41
0.6096
  0
SEQEND
 8
0
  0
POLYLINE
  8
0
 62
     0
 66
     1
 10
0
 20
0
 30
0.0
 40
1.728
 41
1.728
  0
VERTEX
  8
0
 10
83.8867
 20
32.2667
 30
0.0
 40
0.6096
 41
0.6096
  0
VERTEX
  8
0
 10
83.8867
 20
13.4634
 30
0.0
 40
0.6096
 41
0.6096
  0
SEQEND
 8
0
  0
POLYLINE
  8
0
 62
     0
 66
     1
 10
0
 20
0
 30
0.0
 40
0
 41
0
  0
VERTEX
  8
0
 10
60.4682
 20
25.903
 30
0.0
 40
0
 41
0
  0
VERTEX
  8
0
 10
56.5947
 20
29.1317
 30
0.0
 40
0
 41
0
  0
SEQEND
 8
0
  0
POLYLINE
  8
0
 62
     0
 66
     1
 10
0
 20
0
 30
0.0
 40
1.728
 41
1.728
  0
VERTEX
  8
0
 10
60.4682
 20
25.903
 30
0.0
 40
0.6096
 41
0.6096
  0
VERTEX
  8
0
 10
56.5947
 20
29.1317
 30
0.0
 40
0.6096
 41
0.6096
  0
SEQEND
 8
0
  0
POLYLINE
  8
0
 62
     0
 66
     1
 10
0
 20
0
 30
0.0
 40
1.728
 41
1.728
  0
VERTEX
  8
0
 10
56.5947
 20
29.1317
 30
0.0
 40
0.6096
 41
0.6096
  0
VERTEX
  8
0
 10
56.5947
 20
34.0086
 30
0.0
 40
0.6096
 41
0.6096
  0
SEQEND
 8
0
  0
POLYLINE
  8
0
 62
     0
 66
     1
 10
0
 20
0
 30
0.0
 40
0
 41
0
  0
VERTEX
  8
0
 10
56.5947
 20
34.0086
 30
0.0
 40
0
 41
0
  0
VERTEX
  8
0
 10
57.2036
 20
34.6177
 30
0.0
 40
0
 41
0
  0
SEQEND
 8
0
  0
POLYLINE
  8
0
 62
     0
 66
     1
 10
0
 20
0
 30
0.0
 40
1.728
 41
1.728
  0
VERTEX
  8
0
 10
56.5947
 20
34.0086
 30
0.0
 40
0.6096
 41
0.6096
  0
VERTEX
  8
0
 10
57.2036
 20
34.6177
 30
0.0
 40
0.6096
 41
0.6096
  0
SEQEND
 8
0
  0
POLYLINE
  8
0
 62
     0
 66
     1
 10
0
 20
0
 30
0.0
 40
0
 41
0
  0
VERTEX
  8
0
 10
57.2036
 20
34.6177
 30
0.0
 40
0
 41
0
  0
VERTEX
  8
0
 10
73.6632
 20
37.6661
 30
0.0
 40
0
 41
0
  0
SEQEND
 8
0
  0
POLYLINE
  8
0
 62
     0
 66
     1
 10
0
 20
0
 30
0.0
 40
1.728
 41
1.728
  0
VERTEX
  8
0
 10
57.2036
 20
34.6177
 30
0.0
 40
0.6096
 41
0.6096
  0
VERTEX
  8
0
 10
73.6632
 20
37.6661
 30
0.0
 40
0.6096
 41
0.6096
  0
SEQEND
 8
0
  0
POLYLINE
  8
0
 62
     0
 66
     1
 10
0
 20
0
 30
0.0
 40
1.728
 41
1.728
  0
VERTEX
  8
0
 10
73.6632
 20
37.6661
 30
0.0
 40
0.6096
 41
0.6096
  0
VERTEX
  8
0
 10
79.1503
 20
37.6661
 30
0.0
 40
0.6096
 41
0.6096
  0
SEQEND
 8
0
  0
POLYLINE
  8
0
 62
     0
 66
     1
 10
0
 20
0
 30
0.0
 40
0
 41
0
  0
VERTEX
  8
0
 10
79.1503
 20
37.6661
 30
0.0
 40
0
 41
0
  0
VERTEX
  8
0
 10
83.3205
 20
33.6076
 30
0.0
 40
0
 41
0
  0
SEQEND
 8
0
  0
POLYLINE
  8
0
 62
     0
 66
     1
 10
0
 20
0
 30
0.0
 40
1.728
 41
1.728
  0
VERTEX
  8
0
 10
79.1503
 20
37.6661
 30
0.0
 40
0.6096
 41
0.6096
  0
VERTEX
  8
0
 10
83.3205
 20
33.6076
 30
0.0
 40
0.6096
 41
0.6096
  0
SEQEND
 8
0
  0
POLYLINE
  8
0
 62
     0
 66
     1
 10
0
 20
0
 30
0.0
 40
0
 41
0
  0
VERTEX
  8
0
 10
51.3814
 20
40.0773
 30
0.0
 40
0
 41
0
  0
VERTEX
  8
0
 10
56.5947
 20
34.0086
 30
0.0
 40
0
 41
0
  0
SEQEND
 8
0
  0
POLYLINE
  8
0
 62
     0
 66
     1
 10
0
 20
0
 30
0.0
 40
1.728
 41
1.728
  0
VERTEX
  8
0
 10
51.3814
 20
40.0773
 30
0.0
 40
0.6096
 41
0.6096
  0
VERTEX
  8
0
 10
56.5947
 20
34.0086
 30
0.0
 40
0.6096
 41
0.6096
  0
SEQEND
 8
0
  0
POLYLINE
  8
0
 62
     0
 66
     1
 10
0
 20
0
 30
0.0
 40
0
 41
0
  0
VERTEX
  8
0
 10
23.2241
 20
40.3599
 30
0.0
 40
0
 41
0
  0
VERTEX
  8
0
 10
34.8575
 20
43.0403
 30
0.0
 40
0
 41
0
  0
SEQEND
 8
0
  0
POLYLINE
  8
0
 62
     0
 66
     1
 10
0
 20
0
 30
0.0
 40
1.728
 41
1.728
  0
VERTEX
  8
0
 10
23.2241
 20
40.3599
 30
0.0
 40
0.6096
 41
0.6096
  0
VERTEX
  8
0
 10
34.8575
 20
43.0403
 30
0.0
 40
0.6096
 41
0.6096
  0
SEQEND
 8
0
  0
ENDSEC
  0
EOF
