<?xml version="1.0" encoding="UTF-8" standalone="no"?>
<!-- Created with Inkscape (http://www.inkscape.org/) -->

<svg
   xmlns:dc="http://purl.org/dc/elements/1.1/"
   xmlns:cc="http://creativecommons.org/ns#"
   xmlns:rdf="http://www.w3.org/1999/02/22-rdf-syntax-ns#"
   xmlns:svg="http://www.w3.org/2000/svg"
   xmlns="http://www.w3.org/2000/svg"
   xmlns:sodipodi="http://sodipodi.sourceforge.net/DTD/sodipodi-0.dtd"
   xmlns:inkscape="http://www.inkscape.org/namespaces/inkscape"
   sodipodi:docname="Nouveau document 1"
   inkscape:version="0.48.3.1 r9886"
   version="1.1"
   id="svg2"
   height="297mm"
   width="210mm">
  <sodipodi:namedview
     id="base"
     pagecolor="#ffffff"
     bordercolor="#666666"
     borderopacity="1.0"
     inkscape:pageopacity="0.0"
     inkscape:pageshadow="2"
     inkscape:zoom="2.8"
     inkscape:cx="363.4389"
     inkscape:cy="672.64054"
     inkscape:document-units="px"
     inkscape:current-layer="svg2"
     showgrid="false"
     inkscape:window-width="1024"
     inkscape:window-height="520"
     inkscape:window-x="-2"
     inkscape:window-y="-2"
     inkscape:window-maximized="1" />
  <defs
     id="defs4" />
  <metadata
     id="metadata7">
    <rdf:RDF>
      <cc:Work
         rdf:about="">
        <dc:format>image/svg+xml</dc:format>
        <dc:type
           rdf:resource="http://purl.org/dc/dcmitype/StillImage" />
        <dc:title></dc:title>
      </cc:Work>
    </rdf:RDF>
  </metadata>
  <g
     inkscape:label="Calque 1"
     inkscape:groupmode="layer"
     id="layer1" />
  <path
     inkscape:connector-curvature="0"
     id="path3254"
     d="m 338.28568,449.50042 c -21.7891,-5.72244 -39.92712,-24.0196 -45.48497,-45.88402 -1.94499,-7.65157 -1.94499,-23.42823 0,-31.0798 5.5889,-21.98659 23.95848,-40.35617 45.94507,-45.94507 3.27805,-0.83327 10.27101,-1.51503 15.5399,-1.51503 5.26889,0 12.26185,0.68176 15.5399,1.51503 22.03101,5.60019 40.34488,23.91406 45.94507,45.94507 1.94499,7.65157 1.94499,23.42823 0,31.0798 -5.61468,22.08802 -23.85705,40.33039 -45.94507,45.94507 -7.49814,1.90599 -24.17297,1.87372 -31.5399,-0.061 z m 42.76323,-24.67234 c 0.72811,-0.58701 4.18759,-0.80919 8.16667,-0.52448 6.53627,0.46766 10.32809,-0.30244 8.83597,-1.79456 -0.37192,-0.37192 -4.29638,-0.61042 -8.72104,-0.53001 -4.91928,0.0894 -8.04483,-0.25178 -8.04483,-0.87816 0,-1.3743 -18.67075,-1.36613 -19.52034,0.009 -0.41245,0.66736 -8.82995,0.99614 -23.78536,0.92902 -15.65247,-0.0702 -23.26257,0.24288 -23.50398,0.9671 -0.24702,0.74106 6.8896,1.07097 23.16733,1.07097 15.17848,0 23.75191,0.36826 24.16584,1.03801 0.82463,1.33427 17.5381,1.08545 19.23974,-0.28643 z M 327.28568,413.0765 c 0,-0.55 -2.23029,-1 -4.95619,-1 l -4.95619,0 -0.34511,-7.25 -0.34512,-7.25 -0.19869,8.25 -0.1987,8.25 5.5,0 c 3.025,0 5.5,-0.45 5.5,-1 z m 17.08333,-1 c 3.84127,0 5.91667,0.40923 5.91667,1.16667 0,0.64166 0.25228,0.91438 0.56063,0.60603 0.64693,-0.64692 -5.67273,-15.7727 -6.58995,-15.7727 -0.74058,0 -7.0088,14.09259 -6.8942,15.5 0.0448,0.55 0.30839,0.4375 0.5858,-0.25 0.32374,-0.80232 2.62339,-1.25 6.42105,-1.25 z m -3.58804,-3.75 c 0.3901,-0.9625 1.15727,-2.9875 1.70482,-4.5 1.33015,-3.6743 2.12106,-3.46855 3.84401,1 0.79525,2.0625 1.59815,4.0875 1.78422,4.5 0.18608,0.4125 -1.54732,0.75 -3.852,0.75 -3.59431,0 -4.08944,-0.24891 -3.48105,-1.75 z m 35.30245,-1.59001 c 0.38415,-8.82506 -0.44215,-9.83871 -7.70764,-9.45512 l -5.5901,0.29513 -0.2912,8.29663 -0.29119,8.29663 6.79119,-0.29663 6.7912,-0.29663 0.29774,-6.84001 z m -12.79774,2.84001 c 0,-2.38889 0.26667,-2.5 6,-2.5 5.73333,0 6,0.11111 6,2.5 0,2.38889 -0.26667,2.5 -6,2.5 -5.73333,0 -6,-0.11111 -6,-2.5 z m 0,-6.9501 c 0,-2.45313 0.23035,-2.5499 6.06955,-2.5499 5.72236,0 6.05127,0.1287 5.75,2.25 -0.28308,1.99318 -0.97586,2.28423 -6.06955,2.5499 -5.57509,0.29078 -5.75,0.22234 -5.75,-2.25 z m 34.5,-1.46068 c 0,-1.86508 -0.79225,-2.6763 -3.5,-3.58378 -4.97074,-1.66591 -5.96822,-4.39165 -5.98526,-16.35544 l -0.0147,-10.35 -3.32113,-3.32113 c -4.41818,-4.41818 -9.10378,-5.2692 -14.8985,-2.70591 -6.06151,2.68129 -7.9652,6.82096 -7.57431,16.47076 l 0.29394,7.25628 3,0 c 2.9714,0 3.00245,-0.0572 3.2574,-6 0.3728,-8.68991 0.88566,-10.10951 4.13915,-11.45715 3.33474,-1.3813 6.36684,-0.28774 8.08053,2.91433 0.56261,1.05123 1.02292,6.25899 1.02292,11.57279 0,10.57023 1.13744,13.82644 5.8728,16.81249 1.45829,0.91957 4.18444,1.54563 6.1272,1.4071 2.96311,-0.21128 3.5,-0.61936 3.5,-2.66034 z m -78.7,-12.28922 c 0.75151,-0.75151 1.2,-4.48889 1.2,-10 l 0,-8.8 2.89301,0 c 3.23366,0 4.81668,-2.43995 3.0018,-4.62675 -0.62684,-0.75529 -2.2096,-1.37325 -3.51726,-1.37325 -2.05053,0 -2.37755,-0.4814 -2.37755,-3.5 0,-3.7062 2.798,-7.5 5.53138,-7.5 2.09378,0 2.96512,-2.69683 1.45805,-4.51274 -3.39711,-4.09327 -11.22253,-0.0168 -13.08501,6.81636 -1.47051,5.39509 -0.32505,32.80826 1.4172,33.91632 1.61333,1.02606 2.08991,0.96852 3.47838,-0.41994 z m 32.29388,-1.34855 c 4.91726,-2.54281 6.8981,-6.89521 6.90238,-15.16627 0.003,-6.26798 -0.26712,-7.35977 -2.06018,-8.31939 -3.49503,-1.87048 -4.93608,0.3781 -4.93608,7.70211 0,5.48616 -0.35802,6.78103 -2.45455,8.87755 -2.98879,2.9888 -5.44984,3.1042 -8.86756,0.41582 -2.28939,-1.80084 -2.62603,-2.868 -2.88486,-9.14524 -0.21943,-5.32154 -0.71153,-7.36942 -1.95921,-8.15327 -1.20614,-0.75777 -2.10347,-0.68386 -3.25,0.26767 -1.20343,0.99876 -1.58382,3.2347 -1.58382,9.30966 0,7.95402 0.02,8.0152 3.88235,11.87756 3.50803,3.50803 4.38057,3.88235 9.04966,3.88235 2.84202,0 6.51486,-0.69685 8.16187,-1.54855 z"
     style="fill:#000000" />
</svg>
