<?xml version="1.0" encoding="UTF-8" standalone="no"?>
<svg
   xmlns:dc="http://purl.org/dc/elements/1.1/"
   xmlns:cc="http://creativecommons.org/ns#"
   xmlns:rdf="http://www.w3.org/1999/02/22-rdf-syntax-ns#"
   xmlns:svg="http://www.w3.org/2000/svg"
   xmlns="http://www.w3.org/2000/svg"
   id="svg5661"
   version="1.2"
   y="0in"
   x="0in"
   height="2.00791in"
   viewBox="0 0 234.35 144.57"
   width="3.25486in">
  <metadata
     id="metadata6162">
    <rdf:RDF>
      <cc:Work
         rdf:about="">
        <dc:format>image/svg+xml</dc:format>
        <dc:type
           rdf:resource="http://purl.org/dc/dcmitype/StillImage" />
        <dc:title></dc:title>
      </cc:Work>
    </rdf:RDF>
  </metadata>
  <defs
     id="defs6160" />
  <path
     id="boardoutline"
     transform="matrix(0.80000269,0,0,0.80000277,-3.4179802e-4,-6.1035368e-6)"
     d="M 0.36132812 0.359375 L 0.36132812 180.35156 L 292.57617 180.35156 L 292.57617 0.359375 L 0.36132812 0.359375 z M 89.861328 2.7402344 A 1.4174646 1.4174645 0 0 1 90.001953 2.7519531 L 130.07031 2.7519531 A 1.4174646 1.4174645 0 0 1 130.21289 2.7539062 A 1.4174646 1.4174645 0 0 1 130.22656 2.7539062 L 130.24609 2.7558594 L 179.03125 5.6269531 A 1.4174646 1.4174645 0 0 1 179.41211 5.6660156 A 1.4174646 1.4174645 0 0 1 179.4707 5.6816406 A 1.4174646 1.4174645 0 0 1 179.52539 5.6972656 A 1.4174646 1.4174645 0 0 1 179.79492 5.8125 A 1.4174646 1.4174645 0 0 1 179.80664 5.8183594 L 227.6582 26.757812 A 1.4174646 1.4174645 0 0 1 227.66602 26.759766 A 1.4174646 1.4174645 0 0 1 228.41016 27.244141 A 1.4174646 1.4174645 0 0 1 228.47852 27.333984 A 1.4174646 1.4174645 0 0 1 228.53711 27.423828 A 1.4174646 1.4174645 0 0 1 228.73242 28.337891 L 229.16406 40.341797 A 1.4174646 1.4174645 0 0 1 229.16406 40.345703 A 1.4174646 1.4174645 0 0 1 228.98828 41.347656 A 1.4174646 1.4174645 0 0 0 228.98633 41.349609 A 1.4174646 1.4174645 0 0 1 228.9375 41.427734 A 1.4174646 1.4174645 0 0 1 228.93555 41.433594 A 1.4174646 1.4174645 0 0 1 228.06836 42.025391 L 221.92773 44.457031 C 221.92773 44.475069 221.9375 44.491678 221.9375 44.509766 C 221.9375 46.692349 220.13962 48.490234 217.95703 48.490234 C 215.77445 48.490234 213.97266 46.692349 213.97266 44.509766 C 213.97266 42.327182 215.77445 40.527344 217.95703 40.527344 C 219.10649 40.527344 220.1273 41.042605 220.85742 41.833984 L 226.30273 39.675781 L 225.92578 29.09375 L 178.75391 8.4492188 L 130.08789 5.5859375 L 90.333984 5.5859375 L 71.314453 21.888672 C 72.079149 22.616447 72.568359 23.628818 72.568359 24.755859 C 72.568359 26.938444 70.768523 28.738282 68.585938 28.738281 C 66.403352 28.738281 64.605468 26.938443 64.605469 24.755859 C 64.605469 22.649258 66.291878 20.937646 68.371094 20.818359 A 1.4174646 1.4174645 0 0 1 68.457031 20.673828 A 1.4174646 1.4174645 0 0 1 68.865234 20.253906 L 88.740234 3.2167969 A 1.4174646 1.4174645 0 0 1 89.205078 2.8808594 A 1.4174646 1.4174645 0 0 1 89.298828 2.8417969 A 1.4174646 1.4174645 0 0 1 89.390625 2.8105469 A 1.4174646 1.4174645 0 0 1 89.748047 2.7421875 A 1.4174646 1.4174645 0 0 1 89.861328 2.7402344 z M 104.23633 8.4941406 A 1.4174646 1.4174645 0 0 1 104.43945 8.5136719 L 124.23633 8.5136719 A 1.4174646 1.4174645 0 0 1 124.44922 8.5136719 A 1.4174646 1.4174645 0 0 1 124.49414 8.515625 A 1.4174646 1.4174645 0 0 1 124.51953 8.5175781 A 1.4174646 1.4174645 0 0 1 124.54297 8.5234375 A 1.4174646 1.4174645 0 0 1 124.7832 8.5683594 L 153.66992 14.591797 L 193.55664 22.894531 A 1.4174646 1.4174645 0 0 1 194.58594 23.410156 A 1.4174646 1.4174645 0 0 1 194.66992 23.523438 A 1.4174646 1.4174645 0 0 0 194.66992 23.525391 A 1.4174646 1.4174645 0 0 1 194.9082 24.548828 L 194.9082 31.691406 L 214.45508 33.720703 C 215.12006 32.437978 216.42555 31.525391 217.95703 31.525391 C 220.13962 31.525391 221.93945 33.325229 221.93945 35.507812 C 221.93945 37.690396 220.13962 39.492188 217.95703 39.492188 C 216.13965 39.492188 214.65402 38.218682 214.18555 36.541016 L 193.56445 34.402344 A 1.4174646 1.4174645 0 0 1 192.5 34.001953 A 1.4174646 1.4174645 0 0 1 192.49023 33.994141 A 1.4174646 1.4174645 0 0 1 192.48242 33.986328 A 1.4174646 1.4174645 0 0 1 192.07227 32.736328 L 192.07227 25.482422 L 153.08984 17.367188 L 124.23047 11.347656 L 105.02539 11.347656 L 98.644531 22.314453 C 99.191176 22.996716 99.568359 23.82326 99.568359 24.755859 C 99.568361 26.938443 97.768521 28.738281 95.585938 28.738281 C 93.403354 28.738281 91.603514 26.938443 91.603516 24.755859 C 91.603516 22.573276 93.403354 20.773438 95.585938 20.773438 C 95.800116 20.773438 95.985941 20.865113 96.191406 20.898438 L 102.87305 9.40625 A 1.4174646 1.4174645 0 0 1 103.43359 8.7324219 A 1.4174646 1.4174645 0 0 1 103.52734 8.6757812 A 1.4174646 1.4174645 0 0 1 104.23633 8.4941406 z M 111.50195 14.257812 A 1.4174646 1.4174645 0 0 1 111.79688 14.271484 L 120.05859 14.271484 A 1.4174646 1.4174645 0 0 1 120.45117 14.289062 A 1.4174646 1.4174645 0 0 1 120.53906 14.308594 A 1.4174646 1.4174645 0 0 1 120.91797 14.451172 L 131.18164 18.845703 A 1.4174646 1.4174645 0 0 1 131.26953 18.884766 L 140.71875 22.933594 A 1.4174646 1.4174645 0 0 1 141.55273 23.525391 A 1.4174646 1.4174645 0 0 1 141.78906 24.552734 L 141.78906 57.951172 L 184.18945 76.003906 C 184.91581 75.252611 185.92337 74.773438 187.03906 74.773438 C 188.74684 74.773438 190.18586 75.889088 190.74609 77.414062 L 268.2793 79.015625 C 268.87626 77.563724 270.30006 76.525391 271.95508 76.525391 C 274.13767 76.525391 275.9375 78.325229 275.9375 80.507812 C 275.9375 82.690396 274.13767 84.492188 271.95508 84.492188 C 270.24731 84.492188 268.80632 83.374583 268.24609 81.849609 L 190.71484 80.248047 C 190.11787 81.699948 188.69408 82.738281 187.03906 82.738281 C 184.85648 82.738281 183.05664 80.940396 183.05664 78.757812 C 183.05664 78.706883 183.08344 78.663781 183.08594 78.613281 L 140.03125 60.283203 A 1.4174646 1.4174645 0 0 1 139.20898 59.716797 A 1.4174646 1.4174645 0 0 1 139.19141 59.691406 A 1.4174646 1.4174645 0 0 1 138.95508 58.669922 L 138.95508 25.263672 L 130.0625 21.449219 L 119.92383 17.107422 L 112.27148 17.107422 L 107.93164 22.736328 C 108.29966 23.338704 108.57031 24.005326 108.57031 24.755859 C 108.57031 26.938443 106.77047 28.738281 104.58789 28.738281 C 102.40531 28.738281 100.60351 26.938443 100.60352 24.755859 C 100.60352 22.573276 102.40531 20.773438 104.58789 20.773438 C 104.97892 20.773438 105.33506 20.89066 105.69336 20.998047 L 110.32227 14.990234 A 1.4174646 1.4174645 0 0 1 110.83203 14.472656 A 1.4174646 1.4174645 0 0 1 110.92383 14.421875 A 1.4174646 1.4174645 0 0 1 111.50195 14.257812 z M 14.587891 20.773438 C 16.770475 20.773438 18.570312 22.573276 18.570312 24.755859 C 18.570314 26.938443 16.770475 28.738281 14.587891 28.738281 C 12.405306 28.738282 10.603515 26.938443 10.603516 24.755859 C 10.603516 22.573274 12.405306 20.773436 14.587891 20.773438 z M 23.585938 20.773438 C 25.768521 20.773436 27.568359 22.573274 27.568359 24.755859 C 27.568359 26.938444 25.768523 28.738282 23.585938 28.738281 C 21.403352 28.738281 19.605468 26.938443 19.605469 24.755859 C 19.605469 22.573276 21.403354 20.773438 23.585938 20.773438 z M 32.585938 20.773438 C 34.768521 20.773438 36.568359 22.573276 36.568359 24.755859 C 36.568361 26.938443 34.768523 28.738281 32.585938 28.738281 C 30.403354 28.738281 28.603516 26.938443 28.603516 24.755859 C 28.603516 22.573276 30.403354 20.773438 32.585938 20.773438 z M 41.587891 20.773438 C 43.770475 20.773438 45.568359 22.573276 45.568359 24.755859 C 45.568361 26.938443 43.770476 28.738281 41.587891 28.738281 C 39.405307 28.738281 37.605469 26.938443 37.605469 24.755859 C 37.605469 22.573276 39.405307 20.773438 41.587891 20.773438 z M 50.585938 20.773438 C 52.768521 20.773438 54.568359 22.573276 54.568359 24.755859 C 54.568361 26.938443 52.768521 28.738281 50.585938 28.738281 C 48.403354 28.738281 46.603514 26.938443 46.603516 24.755859 C 46.603516 22.573276 48.403354 20.773438 50.585938 20.773438 z M 59.587891 20.773438 C 61.770475 20.773438 63.570312 22.573276 63.570312 24.755859 C 63.570312 25.608475 63.23631 26.360417 62.771484 27.011719 L 71.714844 40.554688 L 129.35352 41.291016 C 129.94414 39.825813 131.37246 38.773438 133.03711 38.773438 C 135.21969 38.773438 137.01953 40.573276 137.01953 42.755859 C 137.01953 44.938443 135.21969 46.738281 133.03711 46.738281 C 131.33895 46.738281 129.90322 45.636616 129.33594 44.125 L 71.140625 43.380859 A 1.4174646 1.4174645 0 0 1 70.285156 43.224609 A 1.4174646 1.4174645 0 0 1 70.275391 43.220703 A 1.4174646 1.4174645 0 0 1 70.265625 43.214844 A 1.4174646 1.4174645 0 0 1 69.638672 42.552734 L 60.408203 28.568359 C 60.134904 28.62864 59.878051 28.738281 59.587891 28.738281 C 57.405305 28.738281 55.603514 26.938443 55.603516 24.755859 C 55.603516 22.573276 57.405307 20.773438 59.587891 20.773438 z M 77.585938 20.773438 C 79.768521 20.773438 81.568359 22.573276 81.568359 24.755859 C 81.568361 26.938443 79.768523 28.738281 77.585938 28.738281 C 75.403354 28.738281 73.603516 26.938443 73.603516 24.755859 C 73.603516 22.573276 75.403354 20.773438 77.585938 20.773438 z M 86.587891 20.773438 C 88.770475 20.773438 90.568359 22.573276 90.568359 24.755859 C 90.568359 25.682177 90.196293 26.501564 89.65625 27.181641 L 92.224609 31.552734 L 128.73828 31.552734 A 1.4174646 1.4174645 0 0 1 128.95312 31.554688 A 1.4174646 1.4174645 0 0 1 129.01758 31.5625 A 1.4174646 1.4174645 0 0 1 129.22656 31.599609 L 129.23047 31.599609 L 129.72461 31.691406 C 130.43254 30.568799 131.62529 29.773438 133.03711 29.773438 C 135.21969 29.773438 137.01953 31.575229 137.01953 33.757812 C 137.01953 35.940396 135.21969 37.738281 133.03711 37.738281 C 131.10918 37.738281 129.55511 36.308536 129.20117 34.476562 L 128.72266 34.386719 L 91.640625 34.386719 A 1.4174646 1.4174645 0 0 1 90.771484 34.246094 A 1.4174646 1.4174645 0 0 1 90.675781 34.191406 A 1.4174646 1.4174645 0 0 1 90.078125 33.494141 L 87.207031 28.611328 C 86.996879 28.646243 86.807211 28.738281 86.587891 28.738281 C 84.405307 28.738281 82.605469 26.938443 82.605469 24.755859 C 82.605469 22.573276 84.405307 20.773438 86.587891 20.773438 z M 113.58594 20.773438 C 115.76852 20.773438 117.56836 22.573276 117.56836 24.755859 C 117.56836 26.938443 115.76852 28.738281 113.58594 28.738281 C 111.40335 28.738281 109.60547 26.938443 109.60547 24.755859 C 109.60547 22.573276 111.40335 20.773438 113.58594 20.773438 z M 14.587891 23.607422 C 13.937263 23.607422 13.4375 24.105232 13.4375 24.755859 C 13.4375 25.406486 13.937263 25.902344 14.587891 25.902344 C 15.238518 25.902344 15.734375 25.406486 15.734375 24.755859 C 15.734375 24.105232 15.238518 23.607422 14.587891 23.607422 z M 23.585938 23.607422 C 22.93531 23.607422 22.439453 24.105232 22.439453 24.755859 C 22.439453 25.406486 22.93531 25.902344 23.585938 25.902344 C 24.236565 25.902345 24.734376 25.406487 24.734375 24.755859 C 24.734375 24.105232 24.236565 23.607421 23.585938 23.607422 z M 32.585938 23.607422 C 31.935311 23.607422 31.4375 24.105232 31.4375 24.755859 C 31.437499 25.406486 31.93531 25.902344 32.585938 25.902344 C 33.236565 25.902344 33.732422 25.406486 33.732422 24.755859 C 33.732422 24.105232 33.236565 23.607422 32.585938 23.607422 z M 41.587891 23.607422 C 40.937264 23.607422 40.439453 24.105232 40.439453 24.755859 C 40.439453 25.406486 40.937263 25.902344 41.587891 25.902344 C 42.238518 25.902344 42.734375 25.406486 42.734375 24.755859 C 42.734375 24.105232 42.238518 23.607422 41.587891 23.607422 z M 50.585938 23.607422 C 49.93531 23.607422 49.439453 24.105232 49.439453 24.755859 C 49.439453 25.406486 49.93531 25.902344 50.585938 25.902344 C 51.236565 25.902344 51.734375 25.406486 51.734375 24.755859 C 51.734375 24.105232 51.236565 23.607422 50.585938 23.607422 z M 59.587891 23.607422 C 58.937263 23.607422 58.4375 24.105232 58.4375 24.755859 C 58.4375 25.406486 58.937263 25.902344 59.587891 25.902344 C 60.238518 25.902344 60.734375 25.406486 60.734375 24.755859 C 60.734375 24.105232 60.238518 23.607422 59.587891 23.607422 z M 68.585938 23.607422 C 67.93531 23.607422 67.439453 24.105232 67.439453 24.755859 C 67.439453 25.406486 67.93531 25.902344 68.585938 25.902344 C 69.236565 25.902345 69.734376 25.406487 69.734375 24.755859 C 69.734375 24.105232 69.236565 23.607421 68.585938 23.607422 z M 77.585938 23.607422 C 76.935311 23.607422 76.4375 24.105232 76.4375 24.755859 C 76.437499 25.406486 76.93531 25.902344 77.585938 25.902344 C 78.236565 25.902344 78.732422 25.406486 78.732422 24.755859 C 78.732422 24.105232 78.236565 23.607422 77.585938 23.607422 z M 86.587891 23.607422 C 85.937264 23.607422 85.439453 24.105232 85.439453 24.755859 C 85.439453 25.406486 85.937263 25.902344 86.587891 25.902344 C 87.238518 25.902344 87.734375 25.406486 87.734375 24.755859 C 87.734375 24.105232 87.238518 23.607422 86.587891 23.607422 z M 95.585938 23.607422 C 94.93531 23.607422 94.439453 24.105232 94.439453 24.755859 C 94.439453 25.406486 94.93531 25.902344 95.585938 25.902344 C 96.236565 25.902344 96.734375 25.406486 96.734375 24.755859 C 96.734375 24.105232 96.236565 23.607422 95.585938 23.607422 z M 104.58789 23.607422 C 103.93726 23.607422 103.4375 24.105232 103.4375 24.755859 C 103.4375 25.406486 103.93726 25.902344 104.58789 25.902344 C 105.23852 25.902344 105.73438 25.406486 105.73438 24.755859 C 105.73438 24.105232 105.23852 23.607422 104.58789 23.607422 z M 113.58594 23.607422 C 112.93531 23.607422 112.43945 24.105232 112.43945 24.755859 C 112.43945 25.406486 112.93531 25.902344 113.58594 25.902344 C 114.23657 25.902344 114.73438 25.406486 114.73438 24.755859 C 114.73438 24.105232 114.23656 23.607422 113.58594 23.607422 z M 5.5859375 25.273438 C 7.7685213 25.273438 9.5683594 27.073276 9.5683594 29.255859 C 9.5683594 31.438443 7.7685213 33.240234 5.5859375 33.240234 C 3.4033537 33.240234 1.6035156 31.438443 1.6035156 29.255859 C 1.6035156 27.073276 3.4033537 25.273438 5.5859375 25.273438 z M 5.5859375 28.107422 C 4.9353101 28.107422 4.4394531 28.605232 4.4394531 29.255859 C 4.4394531 29.906487 4.9353101 30.402344 5.5859375 30.402344 C 6.2365649 30.402344 6.734375 29.906487 6.734375 29.255859 C 6.734375 28.605232 6.2365649 28.107422 5.5859375 28.107422 z M 187.03906 29.773438 C 189.22164 29.773438 191.02148 31.575229 191.02148 33.757812 C 191.02148 35.940396 189.22164 37.738281 187.03906 37.738281 C 186.35683 37.738281 185.74188 37.517406 185.17773 37.208984 L 177.88867 43.431641 L 181.78516 58.544922 L 238.11328 58.847656 L 268.18359 36.541016 C 268.08951 36.203937 267.97266 35.872957 267.97266 35.507812 C 267.97266 33.325229 269.7725 31.525391 271.95508 31.525391 C 272.43338 31.525391 272.882 31.642838 273.30859 31.800781 A 1.4174646 1.4174645 0 0 1 273.57617 31.654297 A 1.4174646 1.4174645 0 0 1 273.58203 31.652344 A 1.4174646 1.4174645 0 0 1 274.34375 31.552734 L 285.41406 31.552734 A 1.4174646 1.4174645 0 0 1 286.64062 31.9375 A 1.4174646 1.4174645 0 0 1 286.70703 32.005859 A 1.4174646 1.4174645 0 0 1 286.73828 32.041016 A 1.4174646 1.4174645 0 0 1 286.74609 32.050781 A 1.4174646 1.4174645 0 0 1 287.06641 33.212891 L 287.06641 90.341797 A 1.4174646 1.4174645 0 0 1 286.92578 91.203125 A 1.4174646 1.4174645 0 0 1 286.92188 91.212891 A 1.4174646 1.4174645 0 0 1 286.89648 91.259766 A 1.4174646 1.4174645 0 0 1 286.88867 91.271484 A 1.4174646 1.4174645 0 0 1 286.2207 91.886719 L 286.21875 91.888672 L 223.09961 132.05273 L 218.10547 135.83203 L 219.19141 157.77734 C 220.7692 158.30815 221.9375 159.76204 221.9375 161.50781 C 221.9375 163.69039 220.13962 165.49023 217.95703 165.49023 C 216.98797 165.49023 216.12379 165.09728 215.42969 164.51172 L 211.99414 166.39258 L 209.32031 177.08984 A 1.4174646 1.4174645 0 0 1 208.87695 178 A 1.4174646 1.4174645 0 0 1 208.87109 178.00781 A 1.4174646 1.4174645 0 0 1 208.80664 178.06641 A 1.4174646 1.4174645 0 0 1 208.78906 178.07812 A 1.4174646 1.4174645 0 0 1 208.69531 178.15234 A 1.4174646 1.4174645 0 0 0 208.69336 178.15234 A 1.4174646 1.4174645 0 0 1 207.64844 178.38672 L 179.25195 178.38672 A 1.4174646 1.4174645 0 0 1 178.84961 178.36914 A 1.4174646 1.4174645 0 0 1 178.81055 178.36133 A 1.4174646 1.4174645 0 0 1 178.45117 178.24414 L 178.44531 178.24219 L 135.98047 162.36719 C 135.24837 163.19121 134.21367 163.73828 133.03711 163.73828 C 131.08844 163.73828 129.51935 162.27884 129.18945 160.41797 L 98.761719 154.22656 C 98.285218 154.96503 97.621041 155.54829 96.785156 155.85352 L 96.667969 162.69531 A 1.4174646 1.4174645 0 0 1 96.291016 163.86914 A 1.4174646 1.4174645 0 0 1 96.230469 163.92969 A 1.4174646 1.4174645 0 0 1 95.089844 164.32422 L 27.794922 168.61523 C 27.278991 170.21822 25.818539 171.41602 24.054688 171.41602 C 21.872104 171.41602 20.074219 169.61423 20.074219 167.43164 C 20.074219 165.24906 21.872104 163.44922 24.054688 163.44922 C 25.646397 163.44922 27.017426 164.41841 27.652344 165.7832 L 93.849609 161.5625 L 93.949219 155.82422 C 92.469239 155.2261 91.408203 153.78386 91.408203 152.10156 C 91.408203 149.89413 93.226157 148.07617 95.433594 148.07617 C 97.409568 148.07617 99.00059 149.55815 99.328125 151.44727 L 129.69922 157.62891 L 113.90039 136.29102 C 113.59187 136.37097 113.37869 136.64844 113.04688 136.64844 C 110.914 136.64844 109.15234 134.88874 109.15234 132.75586 C 109.15234 132.12656 109.5574 131.66345 109.82812 131.13477 L 103.47852 123.58398 L 38.015625 115.04297 A 1.4174646 1.4174645 0 0 1 37.050781 114.70508 A 1.4174646 1.4174645 0 0 1 36.96875 114.63086 A 1.4174646 1.4174645 0 0 1 36.958984 114.61914 A 1.4174646 1.4174645 0 0 1 36.873047 114.52539 A 1.4174646 1.4174645 0 0 1 36.787109 114.41406 A 1.4174646 1.4174645 0 0 1 36.550781 113.38867 L 36.550781 84.978516 A 1.4174646 1.4174645 0 0 1 36.568359 84.570312 A 1.4174646 1.4174645 0 0 1 36.587891 84.472656 A 1.4174646 1.4174645 0 0 1 36.589844 84.460938 A 1.4174646 1.4174645 0 0 1 36.628906 84.335938 A 1.4174646 1.4174645 0 0 1 36.845703 83.925781 A 1.4174646 1.4174645 0 0 0 36.847656 83.923828 L 38.501953 81.15625 C 37.973261 80.480055 37.605469 79.673271 37.605469 78.757812 C 37.605469 76.575229 39.405307 74.773438 41.587891 74.773438 C 43.770475 74.773438 45.568359 76.575229 45.568359 78.757812 C 45.568359 80.940396 43.770475 82.738281 41.587891 82.738281 C 41.358286 82.738281 41.156982 82.645609 40.9375 82.607422 L 39.386719 85.197266 L 39.386719 112.36523 L 104.18945 120.81836 A 1.4174646 1.4174645 0 0 1 104.87695 120.99414 A 1.4174646 1.4174645 0 0 1 104.89062 120.99805 A 1.4174646 1.4174645 0 0 1 104.98047 121.05273 A 1.4174646 1.4174645 0 0 0 104.98242 121.05469 A 1.4174646 1.4174645 0 0 1 105.42578 121.49609 L 111.99414 129.30469 C 112.36564 129.18525 112.6382 128.86523 113.04688 128.86523 C 115.17975 128.86523 116.93945 130.62298 116.93945 132.75586 C 116.93945 133.46968 116.51407 134.01554 116.17188 134.59375 L 132.00586 155.98438 C 132.34225 155.89066 132.67279 155.77344 133.03711 155.77344 C 135.2094 155.77344 136.9968 157.55788 137.01367 159.72656 L 179.34375 175.55078 L 206.78125 175.55078 L 209.33984 165.32031 A 1.4174646 1.4174645 0 0 1 209.5957 164.63867 A 1.4174646 1.4174645 0 0 1 209.65234 164.56445 A 1.4174646 1.4174645 0 0 1 210.27344 164.10352 L 214.07617 162.01953 C 214.05242 161.84513 213.9707 161.68826 213.9707 161.50781 C 213.9707 159.89528 214.96404 158.50402 216.35742 157.88086 L 215.24609 135.44727 A 1.4174646 1.4174645 0 0 1 215.34766 134.57812 A 1.4174646 1.4174645 0 0 1 215.35156 134.57031 A 1.4174646 1.4174645 0 0 1 215.38477 134.50586 A 1.4174646 1.4174645 0 0 1 215.41602 134.44336 A 1.4174646 1.4174645 0 0 1 215.9707 133.89453 L 221.38672 129.79492 A 1.4174646 1.4174645 0 0 1 221.43164 129.75977 A 1.4174646 1.4174645 0 0 1 221.44531 129.75391 A 1.4174646 1.4174645 0 0 1 221.52734 129.69531 L 221.56641 129.66992 L 284.23047 89.789062 L 284.23047 34.386719 L 275.70703 34.386719 C 275.81727 34.749321 275.9375 35.111476 275.9375 35.507812 C 275.9375 37.690396 274.13767 39.492188 271.95508 39.492188 C 271.17997 39.492188 270.49593 39.203009 269.88086 38.8125 L 239.57812 61.291016 A 1.4174646 1.4174645 0 0 1 239.09375 61.591797 A 1.4174646 1.4174645 0 0 0 239.0918 61.59375 A 1.4174646 1.4174645 0 0 1 238.99219 61.628906 A 1.4174646 1.4174645 0 0 1 238.37891 61.683594 L 180.91797 61.376953 A 1.4174646 1.4174645 0 0 1 179.82227 61.09375 A 1.4174646 1.4174645 0 0 1 179.74805 61.037109 A 1.4174646 1.4174645 0 0 1 179.74023 61.029297 A 1.4174646 1.4174645 0 0 1 179.25586 60.087891 L 174.98047 43.505859 A 1.4174646 1.4174645 0 0 1 174.90039 42.621094 A 1.4174646 1.4174645 0 0 1 174.93359 42.494141 A 1.4174646 1.4174645 0 0 1 174.94922 42.453125 A 1.4174646 1.4174645 0 0 1 174.96484 42.40625 A 1.4174646 1.4174645 0 0 1 175.54688 41.701172 L 183.32227 35.0625 C 183.17453 34.64835 183.05664 34.219678 183.05664 33.757812 C 183.05664 31.575229 184.85648 29.773438 187.03906 29.773438 z M 133.03711 32.607422 C 132.38647 32.607422 131.88867 33.107186 131.88867 33.757812 C 131.88867 34.40844 132.38647 34.904297 133.03711 34.904297 C 133.68773 34.904297 134.18359 34.40844 134.18359 33.757812 C 134.18359 33.107186 133.68773 32.607422 133.03711 32.607422 z M 187.03906 32.607422 C 186.38844 32.607422 185.89062 33.107186 185.89062 33.757812 C 185.89062 34.40844 186.38844 34.904297 187.03906 34.904297 C 187.68969 34.904297 188.18555 34.40844 188.18555 33.757812 C 188.18555 33.107186 187.68969 32.607422 187.03906 32.607422 z M 5.5859375 34.275391 C 7.7685213 34.275391 9.5683594 36.073276 9.5683594 38.255859 C 9.5683594 40.438443 7.7685213 42.238281 5.5859375 42.238281 C 3.4033537 42.238281 1.6035156 40.438443 1.6035156 38.255859 C 1.6035156 36.073276 3.4033537 34.275391 5.5859375 34.275391 z M 217.95703 34.359375 C 217.30641 34.359375 216.80859 34.857185 216.80859 35.507812 C 216.80859 36.15844 217.30641 36.654297 217.95703 36.654297 C 218.60767 36.654297 219.10352 36.15844 219.10352 35.507812 C 219.10352 34.857185 218.60767 34.359375 217.95703 34.359375 z M 271.95508 34.359375 C 271.30446 34.359375 270.80859 34.857185 270.80859 35.507812 C 270.80859 36.15844 271.30446 36.654297 271.95508 36.654297 C 272.60571 36.654297 273.10156 36.15844 273.10156 35.507812 C 273.10156 34.857185 272.60571 34.359375 271.95508 34.359375 z M 5.5859375 37.109375 C 4.9353101 37.109375 4.4394531 37.605232 4.4394531 38.255859 C 4.4394531 38.906486 4.9353101 39.404297 5.5859375 39.404297 C 6.2365649 39.404297 6.734375 38.906486 6.734375 38.255859 C 6.734375 37.605232 6.2365649 37.109375 5.5859375 37.109375 z M 187.03906 38.773438 C 189.17768 38.773438 190.92559 40.507913 190.99609 42.630859 L 214.96289 50.966797 C 215.6961 50.105332 216.7498 49.525391 217.95703 49.525391 C 220.13962 49.525391 221.9375 51.325229 221.9375 53.507812 C 221.9375 55.690396 220.13962 57.490233 217.95703 57.490234 C 215.8184 57.490233 214.06659 55.755778 213.99609 53.632812 L 190.0293 45.294922 C 189.29609 46.157144 188.24691 46.738281 187.03906 46.738281 C 184.85648 46.738281 183.05664 44.938443 183.05664 42.755859 C 183.05664 40.573276 184.85648 38.773438 187.03906 38.773438 z M 271.95508 40.527344 C 274.13767 40.527344 275.9375 42.327182 275.9375 44.509766 C 275.9375 46.692349 274.13767 48.490234 271.95508 48.490234 C 269.7725 48.490234 267.97266 46.692349 267.97266 44.509766 C 267.97266 42.327182 269.7725 40.527344 271.95508 40.527344 z M 133.03711 41.609375 C 132.38647 41.609375 131.88867 42.105232 131.88867 42.755859 C 131.88867 43.406487 132.38647 43.904297 133.03711 43.904297 C 133.68773 43.904297 134.18359 43.406487 134.18359 42.755859 C 134.18359 42.105232 133.68773 41.609375 133.03711 41.609375 z M 187.03906 41.609375 C 186.38844 41.609375 185.89062 42.105232 185.89062 42.755859 C 185.89062 43.406487 186.38844 43.904297 187.03906 43.904297 C 187.68969 43.904297 188.18555 43.406487 188.18555 42.755859 C 188.18555 42.105232 187.68969 41.609375 187.03906 41.609375 z M 5.5859375 43.273438 C 7.7685213 43.273438 9.5683594 45.073276 9.5683594 47.255859 C 9.5683604 49.438443 7.768522 51.238281 5.5859375 51.238281 C 3.403353 51.238281 1.6035146 49.438443 1.6035156 47.255859 C 1.6035156 45.073276 3.4033537 43.273438 5.5859375 43.273438 z M 217.95703 43.361328 C 217.30641 43.361328 216.80859 43.859138 216.80859 44.509766 C 216.80859 45.160393 217.30641 45.65625 217.95703 45.65625 C 218.60767 45.65625 219.10352 45.160393 219.10352 44.509766 C 219.10352 43.859138 218.60767 43.361328 217.95703 43.361328 z M 271.95508 43.361328 C 271.30446 43.361328 270.80859 43.859138 270.80859 44.509766 C 270.80859 45.160393 271.30446 45.65625 271.95508 45.65625 C 272.60571 45.65625 273.10156 45.160393 273.10156 44.509766 C 273.10156 43.859138 272.60571 43.361328 271.95508 43.361328 z M 5.5859375 46.107422 C 4.9353101 46.107422 4.4394531 46.605232 4.4394531 47.255859 C 4.4394529 47.906486 4.9353098 48.402344 5.5859375 48.402344 C 6.2365652 48.402344 6.7343752 47.906486 6.734375 47.255859 C 6.734375 46.605232 6.2365649 46.107422 5.5859375 46.107422 z M 133.03711 47.773438 C 135.21969 47.773438 137.01953 49.573276 137.01953 51.755859 C 137.01953 53.938443 135.21969 55.740234 133.03711 55.740234 C 132.90941 55.740234 132.80053 55.678016 132.67578 55.666016 L 125.33008 70.449219 A 1.4174646 1.4174645 0 0 1 125.30273 70.525391 L 120.02734 96.46875 A 1.4174646 1.4174645 0 0 1 119.94336 96.814453 A 1.4174646 1.4174645 0 0 1 119.89844 96.925781 A 1.4174646 1.4174645 0 0 1 119.76367 97.162109 L 116.00781 103.52539 C 116.49556 104.17565 116.93945 104.88945 116.93945 105.75586 C 116.93945 107.88874 115.17975 109.64844 113.04688 109.64844 C 110.914 109.64844 109.15234 107.88874 109.15234 105.75586 C 109.15234 103.62298 110.914 101.86523 113.04688 101.86523 C 113.24966 101.86523 113.37547 102.05141 113.57031 102.08203 L 117.26562 95.814453 L 122.26562 71.234375 L 60.917969 63.185547 L 35.839844 63.185547 L 26.796875 76.541016 C 27.245326 77.185045 27.568359 77.92183 27.568359 78.757812 C 27.568359 80.430087 26.505053 81.857888 25.029297 82.443359 L 25.447266 139.42773 C 26.832183 140.02691 27.947266 141.14569 27.947266 142.73828 C 27.947266 144.32145 26.84266 145.43618 25.470703 146.04102 L 25.470703 152.78516 L 28.800781 152.78516 L 28.800781 162.2793 L 19.306641 162.2793 L 19.306641 154.20117 L 19.306641 152.78516 L 22.636719 152.78516 L 22.636719 146.03906 C 21.266336 145.43354 20.164062 144.3203 20.164062 142.73828 C 20.164062 141.16566 21.255841 140.06024 22.613281 139.44922 L 22.195312 82.455078 C 20.694276 81.882315 19.605469 80.448338 19.605469 78.757812 C 19.605469 76.575229 21.403354 74.773438 23.585938 74.773438 C 23.891599 74.773438 24.164419 74.884472 24.451172 74.951172 L 33.789062 61.160156 A 1.4174646 1.4174645 0 0 1 34.396484 60.521484 A 1.4174646 1.4174645 0 0 1 34.449219 60.496094 A 1.4174646 1.4174645 0 0 1 35.300781 60.351562 L 60.910156 60.351562 L 61.007812 60.351562 A 1.4174646 1.4174645 0 0 1 61.070312 60.353516 A 1.4174646 1.4174645 0 0 1 61.193359 60.363281 A 1.4174646 1.4174645 0 0 1 61.275391 60.373047 L 123.13672 68.490234 L 130.12891 54.421875 C 129.47707 53.711501 129.05469 52.785075 129.05469 51.755859 C 129.05469 49.573276 130.85452 47.773438 133.03711 47.773438 z M 133.03711 50.607422 C 132.38647 50.607422 131.88867 51.105232 131.88867 51.755859 C 131.88867 52.406487 132.38647 52.902344 133.03711 52.902344 C 133.68773 52.902344 134.18359 52.406487 134.18359 51.755859 C 134.18359 51.105232 133.68773 50.607422 133.03711 50.607422 z M 5.5859375 52.273438 C 7.7685213 52.273438 9.5683594 54.075229 9.5683594 56.257812 C 9.5683594 58.440396 7.7685213 60.238281 5.5859375 60.238281 C 3.4033537 60.238281 1.6035156 58.440396 1.6035156 56.257812 C 1.6035156 54.075229 3.4033537 52.273438 5.5859375 52.273438 z M 217.95703 52.361328 C 217.30641 52.361328 216.80859 52.857185 216.80859 53.507812 C 216.80859 54.158439 217.30641 54.65625 217.95703 54.65625 C 218.60767 54.65625 219.10352 54.158439 219.10352 53.507812 C 219.10352 52.857185 218.60767 52.361328 217.95703 52.361328 z M 5.5859375 55.109375 C 4.9353101 55.109375 4.4394531 55.607186 4.4394531 56.257812 C 4.4394531 56.90844 4.9353101 57.404297 5.5859375 57.404297 C 6.2365649 57.404297 6.734375 56.90844 6.734375 56.257812 C 6.734375 55.607186 6.2365649 55.109375 5.5859375 55.109375 z M 5.5859375 61.273438 C 7.7685213 61.273438 9.5683594 63.073276 9.5683594 65.255859 C 9.5683594 67.438443 7.7685213 69.238281 5.5859375 69.238281 C 3.4033537 69.238281 1.6035156 67.438443 1.6035156 65.255859 C 1.6035156 63.073276 3.4033537 61.273438 5.5859375 61.273438 z M 5.5859375 64.109375 C 4.9353101 64.109375 4.4394531 64.605232 4.4394531 65.255859 C 4.4394531 65.906487 4.9353101 66.404297 5.5859375 66.404297 C 6.2365649 66.404297 6.734375 65.906487 6.734375 65.255859 C 6.734375 64.605232 6.2365649 64.109375 5.5859375 64.109375 z M 45.636719 64.423828 C 47.819303 64.423828 49.619141 66.223666 49.619141 68.40625 C 49.619141 70.588834 47.819303 72.386719 45.636719 72.386719 C 43.454135 72.386719 41.652344 70.588834 41.652344 68.40625 C 41.652344 66.223666 43.454135 64.423828 45.636719 64.423828 z M 54.636719 64.423828 C 56.819303 64.423828 58.619141 66.223666 58.619141 68.40625 C 58.619141 70.588834 56.819303 72.386719 54.636719 72.386719 C 52.454135 72.386719 50.654297 70.588834 50.654297 68.40625 C 50.654297 66.223666 52.454135 64.423828 54.636719 64.423828 z M 187.03906 65.773438 C 189.22164 65.773438 191.01953 67.573276 191.01953 69.755859 C 191.01953 71.938443 189.22164 73.738281 187.03906 73.738281 C 184.85648 73.738281 183.05664 71.938443 183.05664 69.755859 C 183.05664 67.573276 184.85648 65.773438 187.03906 65.773438 z M 45.636719 67.257812 C 44.986091 67.257812 44.490234 67.755624 44.490234 68.40625 C 44.490234 69.056878 44.986091 69.552734 45.636719 69.552734 C 46.287345 69.552734 46.785156 69.056878 46.785156 68.40625 C 46.785156 67.755624 46.287345 67.257812 45.636719 67.257812 z M 54.636719 67.257812 C 53.986092 67.257812 53.488281 67.755624 53.488281 68.40625 C 53.488281 69.056878 53.986092 69.552734 54.636719 69.552734 C 55.287347 69.552734 55.783203 69.056878 55.783203 68.40625 C 55.783203 67.755624 55.287347 67.257812 54.636719 67.257812 z M 271.95508 67.527344 C 274.13767 67.527344 275.9375 69.325229 275.9375 71.507812 C 275.9375 73.690396 274.13767 75.490234 271.95508 75.490234 C 269.7725 75.490234 267.97266 73.690396 267.97266 71.507812 C 267.97266 69.325229 269.7725 67.527344 271.95508 67.527344 z M 187.03906 68.607422 C 186.38844 68.607422 185.89062 69.105232 185.89062 69.755859 C 185.89062 70.406486 186.38844 70.902344 187.03906 70.902344 C 187.68969 70.902344 188.18555 70.406486 188.18555 69.755859 C 188.18555 69.105232 187.68969 68.607422 187.03906 68.607422 z M 5.5859375 70.273438 C 7.7685213 70.273438 9.5683594 72.073276 9.5683594 74.255859 C 9.5683594 76.438443 7.7685213 78.240234 5.5859375 78.240234 C 3.4033537 78.240234 1.6035156 76.438443 1.6035156 74.255859 C 1.6035156 72.073276 3.4033537 70.273438 5.5859375 70.273438 z M 271.95508 70.361328 C 271.30446 70.361328 270.80859 70.857186 270.80859 71.507812 C 270.80859 72.15844 271.30446 72.65625 271.95508 72.65625 C 272.60571 72.65625 273.10156 72.15844 273.10156 71.507812 C 273.10156 70.857186 272.60571 70.361328 271.95508 70.361328 z M 5.5859375 73.107422 C 4.9353101 73.107422 4.4394531 73.605232 4.4394531 74.255859 C 4.4394531 74.906487 4.9353101 75.402344 5.5859375 75.402344 C 6.2365649 75.402344 6.734375 74.906487 6.734375 74.255859 C 6.734375 73.605232 6.2365649 73.107422 5.5859375 73.107422 z M 14.587891 74.773438 C 16.770475 74.773438 18.570312 76.575229 18.570312 78.757812 C 18.570312 80.940396 16.770475 82.738281 14.587891 82.738281 C 12.405306 82.738282 10.603516 80.940396 10.603516 78.757812 C 10.603516 76.575229 12.405306 74.773438 14.587891 74.773438 z M 32.585938 74.773438 C 34.768521 74.773438 36.568359 76.575229 36.568359 78.757812 C 36.568359 80.940396 34.768521 82.738281 32.585938 82.738281 C 30.403354 82.738281 28.603516 80.940396 28.603516 78.757812 C 28.603516 76.575229 30.403354 74.773438 32.585938 74.773438 z M 50.585938 74.773438 C 52.768521 74.773438 54.568359 76.575229 54.568359 78.757812 C 54.568359 80.940396 52.768521 82.738281 50.585938 82.738281 C 48.403354 82.738281 46.603516 80.940396 46.603516 78.757812 C 46.603516 76.575229 48.403354 74.773438 50.585938 74.773438 z M 59.587891 74.773438 C 61.770475 74.773438 63.570312 76.575229 63.570312 78.757812 C 63.570312 80.940396 61.770475 82.738281 59.587891 82.738281 C 57.405307 82.738281 55.603516 80.940396 55.603516 78.757812 C 55.603516 76.575229 57.405307 74.773438 59.587891 74.773438 z M 68.585938 74.773438 C 70.768521 74.773438 72.568359 76.575229 72.568359 78.757812 C 72.568359 80.940397 70.768521 82.738282 68.585938 82.738281 C 66.403354 82.738281 64.605469 80.940396 64.605469 78.757812 C 64.605469 76.575229 66.403354 74.773438 68.585938 74.773438 z M 77.585938 74.773438 C 79.768521 74.773438 81.568359 76.575229 81.568359 78.757812 C 81.568359 80.940396 79.768521 82.738281 77.585938 82.738281 C 75.403354 82.738281 73.603516 80.940396 73.603516 78.757812 C 73.603516 76.575229 75.403354 74.773438 77.585938 74.773438 z M 86.587891 74.773438 C 88.770475 74.773438 90.568359 76.575229 90.568359 78.757812 C 90.568359 80.448338 89.479553 81.882315 87.978516 82.455078 L 87.957031 85.412109 A 1.4174646 1.4174645 0 0 1 87.734375 86.396484 A 1.4174646 1.4174645 0 0 1 87.730469 86.40625 A 1.4174646 1.4174645 0 0 1 87.654297 86.511719 A 1.4174646 1.4174645 0 0 1 87.646484 86.517578 A 1.4174646 1.4174645 0 0 1 86.726562 87.042969 L 52.224609 97.392578 L 51.818359 101.86523 L 53.9375 101.86523 L 53.9375 105.75586 L 53.9375 109.64844 L 50.046875 109.64844 L 46.154297 109.64844 L 46.154297 105.75586 L 46.154297 103.28125 L 46.154297 101.86523 L 48.974609 101.86523 L 49.464844 96.408203 A 1.4174646 1.4174645 0 0 1 49.767578 95.4375 A 1.4174646 1.4174645 0 0 1 49.820312 95.375 A 1.4174646 1.4174645 0 0 1 49.884766 95.304688 A 1.4174646 1.4174645 0 0 1 50.712891 94.886719 L 50.722656 94.884766 L 85.126953 84.5625 L 85.142578 82.443359 C 83.667969 81.857324 82.605469 80.429258 82.605469 78.757812 C 82.605469 76.575229 84.405307 74.773438 86.587891 74.773438 z M 95.585938 74.773438 C 97.768521 74.773438 99.568359 76.575229 99.568359 78.757812 C 99.568359 80.940396 97.768521 82.738281 95.585938 82.738281 C 93.403354 82.738281 91.603516 80.940396 91.603516 78.757812 C 91.603516 76.575229 93.403354 74.773438 95.585938 74.773438 z M 104.58789 74.773438 C 106.77047 74.773438 108.57031 76.575229 108.57031 78.757812 C 108.57031 80.940396 106.77047 82.738281 104.58789 82.738281 C 102.40531 82.738281 100.60352 80.940396 100.60352 78.757812 C 100.60352 76.575229 102.40531 74.773438 104.58789 74.773438 z M 113.58594 74.773438 C 115.76852 74.773438 117.56836 76.575229 117.56836 78.757812 C 117.56836 80.940396 115.76852 82.738281 113.58594 82.738281 C 111.40335 82.738281 109.60547 80.940396 109.60547 78.757812 C 109.60547 76.575229 111.40335 74.773438 113.58594 74.773438 z M 187.03906 77.607422 C 186.38844 77.607422 185.89062 78.107186 185.89062 78.757812 C 185.89062 79.40844 186.38844 79.904297 187.03906 79.904297 C 187.68969 79.904297 188.18555 79.40844 188.18555 78.757812 C 188.18555 78.107186 187.68969 77.607422 187.03906 77.607422 z M 14.587891 77.609375 C 13.937263 77.609375 13.4375 78.107186 13.4375 78.757812 C 13.4375 79.40844 13.937263 79.904297 14.587891 79.904297 C 15.238518 79.904297 15.734375 79.40844 15.734375 78.757812 C 15.734375 78.107186 15.238518 77.609375 14.587891 77.609375 z M 23.585938 77.609375 C 22.93531 77.609375 22.439453 78.107186 22.439453 78.757812 C 22.439453 79.40844 22.93531 79.904297 23.585938 79.904297 C 24.236565 79.904297 24.734375 79.40844 24.734375 78.757812 C 24.734375 78.107185 24.236565 77.609374 23.585938 77.609375 z M 32.585938 77.609375 C 31.935311 77.609375 31.4375 78.107186 31.4375 78.757812 C 31.4375 79.40844 31.935311 79.904297 32.585938 79.904297 C 33.236565 79.904297 33.732422 79.40844 33.732422 78.757812 C 33.732422 78.107186 33.236565 77.609375 32.585938 77.609375 z M 41.587891 77.609375 C 40.937264 77.609375 40.439453 78.107186 40.439453 78.757812 C 40.439453 79.40844 40.937264 79.904297 41.587891 79.904297 C 42.238518 79.904297 42.734375 79.40844 42.734375 78.757812 C 42.734375 78.107186 42.238518 77.609375 41.587891 77.609375 z M 50.585938 77.609375 C 49.93531 77.609375 49.439453 78.107186 49.439453 78.757812 C 49.439453 79.40844 49.93531 79.904297 50.585938 79.904297 C 51.236565 79.904297 51.734375 79.40844 51.734375 78.757812 C 51.734375 78.107186 51.236565 77.609375 50.585938 77.609375 z M 59.587891 77.609375 C 58.937263 77.609375 58.4375 78.107186 58.4375 78.757812 C 58.4375 79.40844 58.937263 79.904297 59.587891 79.904297 C 60.238518 79.904297 60.734375 79.40844 60.734375 78.757812 C 60.734375 78.107186 60.238518 77.609375 59.587891 77.609375 z M 68.585938 77.609375 C 67.93531 77.609375 67.439453 78.107186 67.439453 78.757812 C 67.439453 79.40844 67.93531 79.904297 68.585938 79.904297 C 69.236565 79.904297 69.734375 79.40844 69.734375 78.757812 C 69.734375 78.107185 69.236565 77.609374 68.585938 77.609375 z M 77.585938 77.609375 C 76.935311 77.609375 76.4375 78.107186 76.4375 78.757812 C 76.4375 79.40844 76.935311 79.904297 77.585938 79.904297 C 78.236565 79.904297 78.732422 79.40844 78.732422 78.757812 C 78.732422 78.107186 78.236565 77.609375 77.585938 77.609375 z M 86.587891 77.609375 C 85.937264 77.609375 85.439453 78.107186 85.439453 78.757812 C 85.439453 79.40844 85.937264 79.904297 86.587891 79.904297 C 87.238518 79.904297 87.734375 79.40844 87.734375 78.757812 C 87.734375 78.107186 87.238518 77.609375 86.587891 77.609375 z M 95.585938 77.609375 C 94.93531 77.609375 94.439453 78.107186 94.439453 78.757812 C 94.439453 79.40844 94.93531 79.904297 95.585938 79.904297 C 96.236565 79.904297 96.734375 79.40844 96.734375 78.757812 C 96.734375 78.107186 96.236565 77.609375 95.585938 77.609375 z M 104.58789 77.609375 C 103.93726 77.609375 103.4375 78.107186 103.4375 78.757812 C 103.4375 79.40844 103.93726 79.904297 104.58789 79.904297 C 105.23852 79.904297 105.73438 79.40844 105.73438 78.757812 C 105.73438 78.107186 105.23852 77.609375 104.58789 77.609375 z M 113.58594 77.609375 C 112.93531 77.609375 112.43945 78.107186 112.43945 78.757812 C 112.43945 79.40844 112.93531 79.904297 113.58594 79.904297 C 114.23656 79.904297 114.73438 79.40844 114.73438 78.757812 C 114.73438 78.107186 114.23656 77.609375 113.58594 77.609375 z M 271.95508 79.359375 C 271.30446 79.359375 270.80859 79.857185 270.80859 80.507812 C 270.80859 81.15844 271.30446 81.654297 271.95508 81.654297 C 272.60571 81.654297 273.10156 81.15844 273.10156 80.507812 C 273.10156 79.857185 272.60571 79.359375 271.95508 79.359375 z M 59.044922 101.86523 C 61.177801 101.86523 62.939453 103.62298 62.939453 105.75586 C 62.939453 107.88874 61.177801 109.64844 59.044922 109.64844 C 56.912043 109.64844 55.154297 107.88874 55.154297 105.75586 C 55.154297 103.62298 56.912043 101.86523 59.044922 101.86523 z M 68.046875 101.86523 C 70.179753 101.86523 71.939453 103.62298 71.939453 105.75586 C 71.939453 107.88874 70.179753 109.64844 68.046875 109.64844 C 65.913997 109.64844 64.152344 107.88874 64.152344 105.75586 C 64.152344 103.62298 65.913997 101.86523 68.046875 101.86523 z M 77.046875 101.86523 C 79.179753 101.86523 80.9375 103.62298 80.9375 105.75586 C 80.9375 107.88874 79.179753 109.64844 77.046875 109.64844 C 74.913996 109.64844 73.154297 107.88874 73.154297 105.75586 C 73.154297 103.62298 74.913996 101.86523 77.046875 101.86523 z M 86.046875 101.86523 C 88.179753 101.86523 89.939453 103.62298 89.939453 105.75586 C 89.939453 107.88874 88.179753 109.64844 86.046875 109.64844 C 83.913996 109.64844 82.154297 107.88874 82.154297 105.75586 C 82.154297 103.62298 83.913996 101.86523 86.046875 101.86523 z M 95.046875 101.86523 C 97.179754 101.86523 98.9375 103.62298 98.9375 105.75586 C 98.9375 107.88874 97.179754 109.64844 95.046875 109.64844 C 92.913997 109.64844 91.154297 107.88874 91.154297 105.75586 C 91.154297 103.62298 92.913997 101.86523 95.046875 101.86523 z M 104.04492 101.86523 C 106.1778 101.86523 107.93945 103.62298 107.93945 105.75586 C 107.93945 107.88874 106.1778 109.64844 104.04492 109.64844 C 101.91204 109.64844 100.1543 107.88874 100.1543 105.75586 C 100.1543 103.62298 101.91204 101.86523 104.04492 101.86523 z M 50.046875 104.69922 C 49.445953 104.69922 48.990234 105.15494 48.990234 105.75586 C 48.990234 106.35678 49.445953 106.81445 50.046875 106.81445 C 50.647798 106.81445 51.103516 106.35678 51.103516 105.75586 C 51.103516 105.15494 50.647798 104.69922 50.046875 104.69922 z M 59.044922 104.69922 C 58.444 104.69922 57.988281 105.15494 57.988281 105.75586 C 57.988281 106.35678 58.444 106.81445 59.044922 106.81445 C 59.645844 106.81445 60.105469 106.35678 60.105469 105.75586 C 60.105469 105.15494 59.645844 104.69922 59.044922 104.69922 z M 68.046875 104.69922 C 67.445953 104.69922 66.990234 105.15494 66.990234 105.75586 C 66.990234 106.35678 67.445953 106.81445 68.046875 106.81445 C 68.647797 106.81445 69.103516 106.35678 69.103516 105.75586 C 69.103516 105.15494 68.647797 104.69922 68.046875 104.69922 z M 77.046875 104.69922 C 76.445953 104.69922 75.988281 105.15494 75.988281 105.75586 C 75.988281 106.35678 76.445953 106.81445 77.046875 106.81445 C 77.647797 106.81445 78.103516 106.35678 78.103516 105.75586 C 78.103516 105.15494 77.647797 104.69922 77.046875 104.69922 z M 86.046875 104.69922 C 85.445952 104.69922 84.988281 105.15494 84.988281 105.75586 C 84.988281 106.35678 85.445952 106.81445 86.046875 106.81445 C 86.647797 106.81445 87.105469 106.35678 87.105469 105.75586 C 87.105469 105.15494 86.647797 104.69922 86.046875 104.69922 z M 95.046875 104.69922 C 94.445953 104.69922 93.990234 105.15494 93.990234 105.75586 C 93.990234 106.35678 94.445953 106.81445 95.046875 106.81445 C 95.647798 106.81445 96.103516 106.35678 96.103516 105.75586 C 96.103516 105.15494 95.647798 104.69922 95.046875 104.69922 z M 104.04492 104.69922 C 103.444 104.69922 102.98828 105.15494 102.98828 105.75586 C 102.98828 106.35678 103.444 106.81445 104.04492 106.81445 C 104.64584 106.81445 105.10547 106.35678 105.10547 105.75586 C 105.10547 105.15494 104.64584 104.69922 104.04492 104.69922 z M 113.04688 104.69922 C 112.44595 104.69922 111.99023 105.15494 111.99023 105.75586 C 111.99023 106.35678 112.44595 106.81445 113.04688 106.81445 C 113.6478 106.81445 114.10352 106.35678 114.10352 105.75586 C 114.10352 105.15494 113.6478 104.69922 113.04688 104.69922 z M 133.03711 110.77344 C 135.21969 110.77344 137.01953 112.57328 137.01953 114.75586 C 137.01953 116.93844 135.21969 118.73828 133.03711 118.73828 C 130.85452 118.73828 129.05469 116.93844 129.05469 114.75586 C 129.05469 112.57328 130.85452 110.77344 133.03711 110.77344 z M 187.03906 110.77344 C 189.22164 110.77344 191.01953 112.57328 191.01953 114.75586 C 191.01953 116.93844 189.22164 118.73828 187.03906 118.73828 C 184.85648 118.73828 183.05664 116.93844 183.05664 114.75586 C 183.05664 112.57328 184.85648 110.77344 187.03906 110.77344 z M 217.95703 112.52734 C 220.13962 112.52734 221.9375 114.32523 221.9375 116.50781 C 221.9375 118.6904 220.13962 120.49023 217.95703 120.49023 C 215.77445 120.49023 213.97266 118.6904 213.97266 116.50781 C 213.97266 114.32523 215.77445 112.52734 217.95703 112.52734 z M 271.95508 112.52734 C 274.13767 112.52734 275.9375 114.32523 275.9375 116.50781 C 275.9375 118.6904 274.13767 120.49023 271.95508 120.49023 C 269.7725 120.49023 267.97266 118.6904 267.97266 116.50781 C 267.97266 114.32523 269.7725 112.52734 271.95508 112.52734 z M 133.03711 113.60742 C 132.38647 113.60742 131.88867 114.10523 131.88867 114.75586 C 131.88867 115.40649 132.38647 115.90234 133.03711 115.90234 C 133.68773 115.90234 134.18359 115.40649 134.18359 114.75586 C 134.18359 114.10523 133.68773 113.60742 133.03711 113.60742 z M 187.03906 113.60742 C 186.38844 113.60742 185.89062 114.10523 185.89062 114.75586 C 185.89062 115.40649 186.38844 115.90234 187.03906 115.90234 C 187.68969 115.90234 188.18555 115.40649 188.18555 114.75586 C 188.18555 114.10523 187.68969 113.60742 187.03906 113.60742 z M 217.95703 115.36133 C 217.30641 115.36133 216.80859 115.85719 216.80859 116.50781 C 216.80859 117.15844 217.30641 117.65625 217.95703 117.65625 C 218.60767 117.65625 219.10352 117.15844 219.10352 116.50781 C 219.10352 115.85719 218.60767 115.36133 217.95703 115.36133 z M 271.95508 115.36133 C 271.30446 115.36133 270.80859 115.85719 270.80859 116.50781 C 270.80859 117.15844 271.30446 117.65625 271.95508 117.65625 C 272.60571 117.65625 273.10156 117.15844 273.10156 116.50781 C 273.10156 115.85719 272.60571 115.36133 271.95508 115.36133 z M 133.03711 119.77344 C 135.21969 119.77344 137.01953 121.57523 137.01953 123.75781 C 137.01953 125.94039 135.21969 127.73828 133.03711 127.73828 C 130.85453 127.73828 129.05469 125.94039 129.05469 123.75781 C 129.05469 121.57523 130.85452 119.77344 133.03711 119.77344 z M 187.03906 119.77344 C 189.22164 119.77344 191.01953 121.57523 191.01953 123.75781 C 191.01952 125.94039 189.22164 127.73828 187.03906 127.73828 C 184.85648 127.73828 183.05665 125.94039 183.05664 123.75781 C 183.05664 121.57523 184.85648 119.77344 187.03906 119.77344 z M 217.95703 121.52539 C 220.13962 121.52539 221.9375 123.32523 221.9375 125.50781 C 221.9375 127.69039 220.13962 129.49219 217.95703 129.49219 C 215.77445 129.49219 213.97266 127.69039 213.97266 125.50781 C 213.97267 123.32523 215.77445 121.52539 217.95703 121.52539 z M 271.95508 121.52539 C 274.13766 121.52539 275.9375 123.32523 275.9375 125.50781 C 275.9375 127.69039 274.13767 129.49219 271.95508 129.49219 C 269.7725 129.49219 267.97266 127.69039 267.97266 125.50781 C 267.97266 123.32523 269.7725 121.52539 271.95508 121.52539 z M 133.03711 122.60742 C 132.38647 122.60742 131.88867 123.10719 131.88867 123.75781 C 131.88867 124.40844 132.38647 124.9043 133.03711 124.9043 C 133.68773 124.9043 134.18358 124.40844 134.18359 123.75781 C 134.18359 123.10719 133.68773 122.60742 133.03711 122.60742 z M 187.03906 122.60742 C 186.38844 122.60742 185.89062 123.10719 185.89062 123.75781 C 185.89062 124.40844 186.38844 124.9043 187.03906 124.9043 C 187.68969 124.9043 188.18555 124.40844 188.18555 123.75781 C 188.18555 123.10719 187.68969 122.60742 187.03906 122.60742 z M 217.95703 124.35938 C 217.30641 124.35938 216.80859 124.85719 216.80859 125.50781 C 216.80859 126.15844 217.30641 126.6543 217.95703 126.6543 C 218.60767 126.6543 219.10352 126.15844 219.10352 125.50781 C 219.10352 124.85719 218.60767 124.35938 217.95703 124.35938 z M 271.95508 124.35938 C 271.30446 124.35938 270.80861 124.85719 270.80859 125.50781 C 270.80859 126.15844 271.30446 126.6543 271.95508 126.6543 C 272.60571 126.6543 273.10156 126.15844 273.10156 125.50781 C 273.10156 124.85719 272.60571 124.35938 271.95508 124.35938 z M 50.046875 128.86523 C 52.179754 128.86523 53.9375 130.62298 53.9375 132.75586 C 53.9375 134.40239 52.758262 135.56121 51.298828 136.125 L 51.050781 141.23828 L 56.767578 141.29102 C 57.379965 139.93685 58.486407 138.84766 60.056641 138.84766 C 62.133429 138.84766 63.797544 140.53897 63.886719 142.5957 L 83.414062 149.52539 C 84.155474 148.65734 85.217107 148.07617 86.435547 148.07617 C 88.642983 148.07617 90.460938 149.89413 90.460938 152.10156 C 90.460938 154.309 88.642983 156.13086 86.435547 156.13086 C 84.256649 156.13086 82.47004 154.35041 82.423828 152.18164 L 62.898438 145.25195 C 62.182439 146.06668 61.214047 146.63281 60.056641 146.63281 C 58.462095 146.63281 57.338212 145.51261 56.740234 144.125 L 49.794922 144.06055 A 1.4174646 1.4174645 0 0 1 48.667969 143.75781 A 1.4174646 1.4174645 0 0 1 48.576172 143.67969 A 1.4174646 1.4174645 0 0 1 48.527344 143.63086 A 1.4174646 1.4174645 0 0 1 48.501953 143.60352 A 1.4174646 1.4174645 0 0 1 48.419922 143.50195 A 1.4174646 1.4174645 0 0 1 48.15625 142.3418 L 48.466797 135.98828 C 47.182026 135.34898 46.154297 134.27532 46.154297 132.75586 C 46.154297 130.62298 47.913997 128.86523 50.046875 128.86523 z M 59.044922 128.86523 C 61.177801 128.86523 62.939453 130.62298 62.939453 132.75586 C 62.939453 134.88874 61.177801 136.64844 59.044922 136.64844 C 56.912043 136.64844 55.154297 134.88874 55.154297 132.75586 C 55.154297 130.62298 56.912043 128.86523 59.044922 128.86523 z M 68.046875 128.86523 C 70.179753 128.86523 71.939453 130.62298 71.939453 132.75586 C 71.939453 134.88874 70.179753 136.64844 68.046875 136.64844 C 65.913997 136.64844 64.152344 134.88874 64.152344 132.75586 C 64.152344 130.62298 65.913997 128.86523 68.046875 128.86523 z M 77.046875 128.86523 C 79.179753 128.86523 80.9375 130.62298 80.9375 132.75586 C 80.9375 134.88874 79.179753 136.64844 77.046875 136.64844 C 74.913996 136.64844 73.154297 134.88874 73.154297 132.75586 C 73.154297 130.62298 74.913996 128.86523 77.046875 128.86523 z M 86.046875 128.86523 C 88.179753 128.86523 89.939453 130.62298 89.939453 132.75586 C 89.939453 134.88874 88.179753 136.64844 86.046875 136.64844 C 83.913996 136.64844 82.154297 134.88874 82.154297 132.75586 C 82.154297 130.62298 83.913996 128.86523 86.046875 128.86523 z M 95.046875 128.86523 C 97.179754 128.86523 98.9375 130.62298 98.9375 132.75586 C 98.9375 134.88874 97.179754 136.64844 95.046875 136.64844 C 92.913997 136.64844 91.154297 134.88874 91.154297 132.75586 C 91.154297 130.62298 92.913997 128.86523 95.046875 128.86523 z M 104.04492 128.86523 C 106.1778 128.86523 107.93945 130.62298 107.93945 132.75586 C 107.93945 134.88874 106.1778 136.64844 104.04492 136.64844 C 101.91204 136.64844 100.1543 134.88874 100.1543 132.75586 C 100.1543 130.62298 101.91204 128.86523 104.04492 128.86523 z M 50.046875 131.69922 C 49.445953 131.69922 48.990234 132.15494 48.990234 132.75586 C 48.990234 133.35678 49.445953 133.8125 50.046875 133.8125 C 50.647798 133.8125 51.103516 133.35678 51.103516 132.75586 C 51.103516 132.15494 50.647798 131.69922 50.046875 131.69922 z M 59.044922 131.69922 C 58.444 131.69921 57.988281 132.15494 57.988281 132.75586 C 57.988281 133.35678 58.444 133.8125 59.044922 133.8125 C 59.645844 133.8125 60.105469 133.35678 60.105469 132.75586 C 60.105469 132.15494 59.645844 131.69922 59.044922 131.69922 z M 68.046875 131.69922 C 67.445953 131.69922 66.990234 132.15494 66.990234 132.75586 C 66.990234 133.35678 67.445953 133.8125 68.046875 133.8125 C 68.647797 133.8125 69.103516 133.35678 69.103516 132.75586 C 69.103516 132.15494 68.647797 131.69922 68.046875 131.69922 z M 77.046875 131.69922 C 76.445953 131.69922 75.988281 132.15494 75.988281 132.75586 C 75.988281 133.35678 76.445953 133.8125 77.046875 133.8125 C 77.647797 133.8125 78.103516 133.35678 78.103516 132.75586 C 78.103516 132.15494 77.647797 131.69922 77.046875 131.69922 z M 86.046875 131.69922 C 85.445952 131.69922 84.988281 132.15494 84.988281 132.75586 C 84.988281 133.35678 85.445952 133.8125 86.046875 133.8125 C 86.647797 133.8125 87.105469 133.35678 87.105469 132.75586 C 87.105469 132.15494 86.647797 131.69922 86.046875 131.69922 z M 95.046875 131.69922 C 94.445953 131.69922 93.990234 132.15494 93.990234 132.75586 C 93.990234 133.35678 94.445953 133.8125 95.046875 133.8125 C 95.647798 133.8125 96.103516 133.35678 96.103516 132.75586 C 96.103516 132.15494 95.647798 131.69922 95.046875 131.69922 z M 104.04492 131.69922 C 103.444 131.69921 102.98828 132.15494 102.98828 132.75586 C 102.98828 133.35678 103.444 133.8125 104.04492 133.8125 C 104.64584 133.8125 105.10547 133.35678 105.10547 132.75586 C 105.10547 132.15494 104.64584 131.69922 104.04492 131.69922 z M 113.04688 131.69922 C 112.44595 131.69922 111.99023 132.15494 111.99023 132.75586 C 111.99023 133.35678 112.44595 133.8125 113.04688 133.8125 C 113.6478 133.8125 114.10352 133.35678 114.10352 132.75586 C 114.10352 132.15494 113.6478 131.69922 113.04688 131.69922 z M 201.54688 137.72852 C 203.75432 137.72852 205.57422 139.54842 205.57422 141.75586 C 205.57422 143.96329 203.75432 145.7832 201.54688 145.7832 C 199.84044 145.7832 198.39209 144.68725 197.81055 143.17383 L 190.73047 143.17383 C 190.15093 144.66154 188.71996 145.73828 187.03906 145.73828 C 184.85648 145.73828 183.05664 143.93844 183.05664 141.75586 C 183.05664 139.57327 184.85648 137.77344 187.03906 137.77344 C 188.72096 137.77344 190.15357 138.85076 190.73242 140.33984 L 197.81055 140.33984 C 198.39204 138.82634 199.84036 137.72852 201.54688 137.72852 z M 287.33789 137.72852 C 289.54533 137.72852 291.36328 139.54842 291.36328 141.75586 C 291.36328 143.96329 289.54533 145.7832 287.33789 145.7832 C 285.79718 145.7832 284.48664 144.87008 283.81055 143.58398 L 275.73438 144.50391 C 275.2782 146.19971 273.78546 147.49023 271.95508 147.49023 C 269.7725 147.49023 267.97266 145.69039 267.97266 143.50781 C 267.97266 141.32523 269.7725 139.52539 271.95508 139.52539 C 273.47101 139.52539 274.75984 140.42192 275.43164 141.68359 L 283.51172 140.76562 C 283.96679 139.04157 285.48022 137.72852 287.33789 137.72852 z M 201.54688 140.56445 C 200.8714 140.56445 200.35352 141.08037 200.35352 141.75586 C 200.35352 142.43133 200.8714 142.94921 201.54688 142.94922 C 202.22236 142.94921 202.73828 142.43133 202.73828 141.75586 C 202.73828 141.08037 202.22236 140.56445 201.54688 140.56445 z M 287.33789 140.56445 C 286.66242 140.56445 286.14453 141.08037 286.14453 141.75586 C 286.14453 142.43133 286.66242 142.94921 287.33789 142.94922 C 288.01338 142.94921 288.5293 142.43133 288.5293 141.75586 C 288.5293 141.08037 288.01338 140.56445 287.33789 140.56445 z M 187.03906 140.60742 C 186.38844 140.60742 185.89062 141.10522 185.89062 141.75586 C 185.89062 142.40648 186.38844 142.90234 187.03906 142.90234 C 187.68969 142.90234 188.18555 142.40648 188.18555 141.75586 C 188.18555 141.10522 187.68969 140.60742 187.03906 140.60742 z M 24.054688 141.68164 C 23.453765 141.68164 22.998047 142.13736 22.998047 142.73828 C 22.998047 143.3392 23.453765 143.79883 24.054688 143.79883 C 24.655609 143.79883 25.113281 143.3392 25.113281 142.73828 C 25.113281 142.13736 24.655609 141.68164 24.054688 141.68164 z M 60.056641 141.68164 C 59.455719 141.68164 58.996094 142.13736 58.996094 142.73828 C 58.996094 143.3392 59.455719 143.79883 60.056641 143.79883 C 60.657562 143.79883 61.113281 143.3392 61.113281 142.73828 C 61.113281 142.13736 60.657562 141.68164 60.056641 141.68164 z M 271.95508 142.36133 C 271.30446 142.36133 270.80859 142.85719 270.80859 143.50781 C 270.80859 144.15844 271.30446 144.6543 271.95508 144.6543 C 272.60571 144.6543 273.10156 144.15844 273.10156 143.50781 C 273.10156 142.85719 272.60571 142.36133 271.95508 142.36133 z M 201.54688 146.72852 C 203.75432 146.72852 205.57422 148.54842 205.57422 150.75586 C 205.57422 152.96329 203.75432 154.78125 201.54688 154.78125 C 199.84036 154.78125 198.39204 153.68539 197.81055 152.17188 L 190.73242 152.17188 C 190.15357 153.66096 188.72096 154.73828 187.03906 154.73828 C 184.85648 154.73828 183.05664 152.93844 183.05664 150.75586 C 183.05664 148.57328 184.85648 146.77344 187.03906 146.77344 C 188.71996 146.77344 190.15093 147.8502 190.73047 149.33789 L 197.81055 149.33789 C 198.39263 147.82552 199.84119 146.72852 201.54688 146.72852 z M 287.33789 146.72852 C 289.54533 146.72852 291.36328 148.54842 291.36328 150.75586 C 291.36328 152.96329 289.54533 154.78125 287.33789 154.78125 C 285.79776 154.78125 284.48689 153.86932 283.81055 152.58398 L 275.73438 153.50195 C 275.279 155.19893 273.78628 156.49023 271.95508 156.49023 C 269.7725 156.49023 267.97266 154.69236 267.97266 152.50977 C 267.97266 150.32719 269.7725 148.52539 271.95508 148.52539 C 273.47101 148.52539 274.75984 149.42388 275.43164 150.68555 L 283.51172 149.76562 C 283.96759 148.04273 285.48105 146.72852 287.33789 146.72852 z M 201.54688 149.5625 C 200.8714 149.5625 200.35352 150.08037 200.35352 150.75586 C 200.35352 151.43133 200.8714 151.94727 201.54688 151.94727 C 202.22236 151.94727 202.73828 151.43133 202.73828 150.75586 C 202.73828 150.08037 202.22236 149.5625 201.54688 149.5625 z M 287.33789 149.5625 C 286.66242 149.5625 286.14453 150.08037 286.14453 150.75586 C 286.14453 151.43133 286.66242 151.94727 287.33789 151.94727 C 288.01338 151.94727 288.5293 151.43133 288.5293 150.75586 C 288.5293 150.08037 288.01338 149.5625 287.33789 149.5625 z M 187.03906 149.60938 C 186.38844 149.60938 185.89062 150.10524 185.89062 150.75586 C 185.89062 151.40648 186.38844 151.9043 187.03906 151.9043 C 187.68969 151.9043 188.18555 151.40648 188.18555 150.75586 C 188.18555 150.10524 187.68969 149.60938 187.03906 149.60938 z M 86.435547 150.91016 C 85.760067 150.91016 85.242188 151.42608 85.242188 152.10156 C 85.242188 152.77705 85.760067 153.29492 86.435547 153.29492 C 87.111026 153.29492 87.626953 152.77705 87.626953 152.10156 C 87.626953 151.42608 87.111026 150.91016 86.435547 150.91016 z M 95.435547 150.91016 C 94.760067 150.91016 94.244141 151.42608 94.244141 152.10156 C 94.244141 152.77705 94.760067 153.29492 95.435547 153.29492 C 96.111027 153.29492 96.628906 152.77705 96.628906 152.10156 C 96.628906 151.42608 96.111027 150.91016 95.435547 150.91016 z M 271.95508 151.35938 C 271.30446 151.35938 270.80859 151.85914 270.80859 152.50977 C 270.80859 153.1604 271.30446 153.65625 271.95508 153.65625 C 272.60571 153.65625 273.10156 153.1604 273.10156 152.50977 C 273.10156 151.85914 272.60571 151.35938 271.95508 151.35938 z M 201.54688 155.72852 C 203.75432 155.72852 205.57422 157.54842 205.57422 159.75586 C 205.57422 161.96329 203.75432 163.7832 201.54688 163.7832 C 199.84119 163.7832 198.39263 162.6862 197.81055 161.17383 L 190.73047 161.17383 C 190.15093 162.66154 188.71996 163.73633 187.03906 163.73633 C 184.85648 163.73633 183.05664 161.93844 183.05664 159.75586 C 183.05664 157.57327 184.85648 155.77344 187.03906 155.77344 C 188.72096 155.77344 190.15357 156.85076 190.73242 158.33984 L 197.81055 158.33984 C 198.39204 156.82632 199.84036 155.72852 201.54688 155.72852 z M 287.33789 155.72852 C 289.54533 155.72852 291.36328 157.54842 291.36328 159.75586 C 291.36328 161.96329 289.54533 163.7832 287.33789 163.7832 C 285.79825 163.7832 284.48906 162.86865 283.8125 161.58398 L 275.73438 162.50391 C 275.2782 164.19971 273.78546 165.49023 271.95508 165.49023 C 269.7725 165.49023 267.97266 163.69039 267.97266 161.50781 C 267.97266 159.32523 269.7725 157.52539 271.95508 157.52539 C 273.47101 157.52539 274.75984 158.42192 275.43164 159.68359 L 283.51172 158.76367 C 283.96759 157.04078 285.48105 155.72852 287.33789 155.72852 z M 24.054688 157.15039 C 23.809023 157.15039 23.805862 157.19108 23.765625 157.23633 C 23.725375 157.2816 23.671875 157.39621 23.671875 157.53125 C 23.671875 157.66629 23.725388 157.78288 23.765625 157.82812 C 23.805867 157.8735 23.80902 157.91406 24.054688 157.91406 C 24.30035 157.91406 24.305466 157.87337 24.345703 157.82812 C 24.385953 157.78285 24.439453 157.66629 24.439453 157.53125 C 24.439453 157.39621 24.38594 157.28158 24.345703 157.23633 C 24.305462 157.19095 24.300354 157.15039 24.054688 157.15039 z M 201.54688 158.56445 C 200.8714 158.56445 200.35352 159.08037 200.35352 159.75586 C 200.35352 160.43133 200.8714 160.94922 201.54688 160.94922 C 202.22236 160.94922 202.73828 160.43133 202.73828 159.75586 C 202.73828 159.08037 202.22236 158.56445 201.54688 158.56445 z M 287.33789 158.56445 C 286.66242 158.56445 286.14453 159.08037 286.14453 159.75586 C 286.14453 160.43133 286.66242 160.94922 287.33789 160.94922 C 288.01338 160.94922 288.5293 160.43133 288.5293 159.75586 C 288.5293 159.08037 288.01338 158.56445 287.33789 158.56445 z M 133.03711 158.60742 C 132.38647 158.60742 131.88867 159.10522 131.88867 159.75586 C 131.88867 160.40648 132.38647 160.90234 133.03711 160.90234 C 133.68773 160.90234 134.18359 160.40648 134.18359 159.75586 C 134.18359 159.10522 133.68773 158.60742 133.03711 158.60742 z M 187.03906 158.60742 C 186.38844 158.60742 185.89062 159.10522 185.89062 159.75586 C 185.89062 160.40648 186.38844 160.90234 187.03906 160.90234 C 187.68969 160.90234 188.18555 160.40648 188.18555 159.75586 C 188.18555 159.10522 187.68969 158.60742 187.03906 158.60742 z M 217.95703 160.36133 C 217.30641 160.36133 216.80859 160.85719 216.80859 161.50781 C 216.80859 162.15844 217.30641 162.65625 217.95703 162.65625 C 218.60767 162.65625 219.10352 162.15844 219.10352 161.50781 C 219.10352 160.85719 218.60767 160.36133 217.95703 160.36133 z M 271.95508 160.36133 C 271.30446 160.36133 270.80859 160.85719 270.80859 161.50781 C 270.80859 162.15844 271.30446 162.65625 271.95508 162.65625 C 272.60571 162.65625 273.10156 162.15844 273.10156 161.50781 C 273.10156 160.85719 272.60571 160.36133 271.95508 160.36133 z M 201.54688 164.72852 C 203.75432 164.72852 205.57422 166.54842 205.57422 168.75586 C 205.57422 170.96329 203.75432 172.7832 201.54688 172.7832 C 199.84036 172.7832 198.39204 171.68539 197.81055 170.17188 L 191.01953 170.17188 L 191.01953 171.32031 L 191.01953 172.73828 L 187.03906 172.73828 L 183.05664 172.73828 L 183.05664 168.75586 L 183.05664 164.77148 L 187.03906 164.77148 L 191.01953 164.77148 L 191.01953 167.33789 L 197.81055 167.33789 C 198.39209 165.82448 199.84044 164.72852 201.54688 164.72852 z M 287.33789 164.72852 C 289.54533 164.72852 291.36328 166.54842 291.36328 168.75586 C 291.36328 170.96329 289.54533 172.7832 287.33789 172.7832 C 285.79718 172.7832 284.48664 171.86813 283.81055 170.58203 L 275.9375 171.48047 L 275.9375 173.07227 L 275.9375 174.49219 L 271.95508 174.49219 L 267.97266 174.49219 L 267.97266 170.50781 L 267.97266 166.52539 L 271.95508 166.52539 L 275.9375 166.52539 L 275.9375 168.62695 L 283.51172 167.76562 C 283.96708 166.04199 285.48052 164.72852 287.33789 164.72852 z M 133.03711 164.77344 C 135.21969 164.77344 137.01953 166.57523 137.01953 168.75781 C 137.01953 170.94039 135.21969 172.73828 133.03711 172.73828 C 130.85452 172.73828 129.05469 170.94039 129.05469 168.75781 C 129.05469 166.57523 130.85452 164.77344 133.03711 164.77344 z M 24.054688 166.2832 C 23.40406 166.2832 22.908203 166.78102 22.908203 167.43164 C 22.908203 168.08228 23.40406 168.57812 24.054688 168.57812 C 24.705315 168.57812 25.203125 168.08228 25.203125 167.43164 C 25.203125 166.78102 24.705315 166.2832 24.054688 166.2832 z M 217.95703 166.52539 C 220.13962 166.52539 221.9375 168.32523 221.9375 170.50781 C 221.9375 172.69039 220.13962 174.49219 217.95703 174.49219 C 215.77445 174.49219 213.97266 172.69039 213.97266 170.50781 C 213.97266 168.32523 215.77445 166.52539 217.95703 166.52539 z M 201.54688 167.5625 C 200.8714 167.5625 200.35352 168.08233 200.35352 168.75781 C 200.35352 169.4333 200.8714 169.94922 201.54688 169.94922 C 202.22236 169.94922 202.73828 169.4333 202.73828 168.75781 C 202.73828 168.08233 202.22236 167.5625 201.54688 167.5625 z M 287.33789 167.5625 C 286.66242 167.5625 286.14453 168.08233 286.14453 168.75781 C 286.14453 169.4333 286.66242 169.94922 287.33789 169.94922 C 288.01338 169.94922 288.5293 169.4333 288.5293 168.75781 C 288.5293 168.08233 288.01338 167.5625 287.33789 167.5625 z M 133.03711 167.60742 C 132.38647 167.60742 131.88867 168.10719 131.88867 168.75781 C 131.88867 169.40844 132.38647 169.9043 133.03711 169.9043 C 133.68773 169.9043 134.18359 169.40844 134.18359 168.75781 C 134.18359 168.10719 133.68773 167.60742 133.03711 167.60742 z M 187.03906 167.60742 C 186.38844 167.60742 185.89062 168.10719 185.89062 168.75781 C 185.89062 169.40844 186.38844 169.9043 187.03906 169.9043 C 187.68969 169.9043 188.18555 169.40844 188.18555 168.75781 C 188.18555 168.10719 187.68969 167.60742 187.03906 167.60742 z M 217.95703 169.35938 C 217.30641 169.35938 216.80859 169.85719 216.80859 170.50781 C 216.80859 171.15844 217.30641 171.6543 217.95703 171.6543 C 218.60767 171.6543 219.10352 171.15844 219.10352 170.50781 C 219.10352 169.85719 218.60767 169.35938 217.95703 169.35938 z M 271.95508 169.35938 C 271.30446 169.35938 270.80859 169.85719 270.80859 170.50781 C 270.80859 171.15844 271.30446 171.6543 271.95508 171.6543 C 272.60571 171.6543 273.10156 171.15844 273.10156 170.50781 C 273.10156 169.85719 272.60571 169.35938 271.95508 169.35938 z "
     style="fill:#000000;fill-opacity:1;stroke:none;stroke-width:0.62499785" />
</svg>
