999
dxflib 2.0.4.8
  0
SECTION
  2
HEADER
  9
$ACADVER
  1
AC1015
  9
$HANDSEED
  5
FFFF
  9
$USERR4
 40
0.0
  9
$DIMTDEC
 70
4
  9
$DIMTAD
 70
0
  9
$CMLSTYLE
  2
STANDARD
  9
$VISRETAIN
 70
1
  9
$TILEMODE
 70
1
  9
$SHADEDIF
 70
70
  9
$USERR5
 40
0.0
  9
$UCSYDIR
 10
0.0
 20
1.0
 30
0.0
  9
$ATTREQ
 70
1
  9
$CHAMFERA
 40
0.5
  9
$MENU
  1
.
  9
$DIMUNIT
 70
2
  9
$DIMALTZ
 70
0
  9
$DELOBJ
 70
1
  9
$CLAYER
  8
0
  9
$UCSXDIR
 10
1.0
 20
0.0
 30
0.0
  9
$CHAMFERB
 40
0.5
  9
$DIMUPT
 70
0
  9
$DIMASZ
 40
0.18
  9
$TRACEWID
 40
0.05
  9
$REGENMODE
 70
1
  9
$ORTHOMODE
 70
0
  9
$EXTMIN
 10
100000000000000000000.0
 20
100000000000000000000.0
 30
100000000000000000000.0
  9
$CMLJUST
 70
0
  9
$PICKSTYLE
 70
1
  9
$PUCSYDIR
 10
0.0
 20
1.0
 30
0.0
  9
$ANGBASE
 50
0.0
  9
$USRTIMER
 70
1
  9
$CHAMFERC
 40
1.0
  9
$SKETCHINC
 40
0.1
  9
$DIMGAP
 40
0.09
  9
$DIMTFAC
 40
1.0
  9
$DIMSAH
 70
0
  9
$DIMALT
 70
0
  9
$DIMSHO
 70
1
  9
$PUCSXDIR
 10
1.0
 20
0.0
 30
0.0
  9
$SURFTYPE
 70
6
  9
$SPLFRAME
 70
0
  9
$CHAMFERD
 40
0.0
  9
$DIMALTTD
 70
2
  9
$DIMTSZ
 40
0.0
  9
$LIMMIN
 10
0.0
 20
0.0
  9
$SURFTAB1
 70
6
  9
$SPLINESEGS
 70
8
  9
$AUPREC
 70
0
  9
$LUNITS
 70
2
  9
$DWGCODEPAGE
  3
ansi_1252
  9
$UNITMODE
 70
0
  9
$USERI1
 70
0
  9
$SURFTAB2
 70
6
  9
$SKPOLY
 70
0
  9
$ELEVATION
 40
0.0
  9
$DIMCEN
 40
0.09
  9
$DIMRND
 40
0.0
  9
$INSBASE
 10
0.0
 20
0.0
 30
0.0
  9
$USERI2
 70
0
  9
$UCSORG
 10
0.0
 20
0.0
 30
0.0
  9
$PELEVATION
 40
0.0
  9
$DIMEXO
 40
0.0625
  9
$TEXTSIZE
 40
0.2
  9
$DRAGMODE
 70
2
  9
$FILLMODE
 70
1
  9
$EXTMAX
 10
-100000000000000000000.0
 20
-100000000000000000000.0
 30
-100000000000000000000.0
  9
$INSUNITS
 70
4
  9
$USERI3
 70
0
  9
$SURFU
 70
6
  9
$ANGDIR
 70
0
  9
$TDUSRTIMER
 40
0.0000000116
  9
$DIMTZIN
 70
0
  9
$DIMTOLJ
 70
1
  9
$DIMZIN
 70
0
  9
$DIMDLE
 40
0.0
  9
$DIMSCALE
 40
1.0
  9
$WORLDVIEW
 70
1
  9
$USERI4
 70
0
  9
$SURFV
 70
6
  9
$DIMALTTZ
 70
0
  9
$DIMJUST
 70
0
  9
$OSMODE
 70
37
  9
$QTEXTMODE
 70
0
  9
$LIMMAX
 10
12.0
 20
9.0
  9
$USERI5
 70
0
  9
$HANDLING
 70
1
  9
$PDMODE
 70
0
  9
$LIMCHECK
 70
0
  9
$THICKNESS
 40
0.0
  9
$DIMSE1
 70
0
  9
$DIMLIM
 70
0
  9
$DIMTXT
 40
0.18
  9
$ATTMODE
 70
1
  9
$PEXTMAX
 10
-100000000000000000000.0
 20
-100000000000000000000.0
 30
-100000000000000000000.0
  9
$PEXTMIN
 10
100000000000000000000.0
 20
100000000000000000000.0
 30
100000000000000000000.0
  9
$PUCSORG
 10
0.0
 20
0.0
 30
0.0
  9
$SPLINETYPE
 70
6
  9
$TDINDWG
 40
0.0000000116
  9
$LUPREC
 70
4
  9
$DIMSOXD
 70
0
  9
$DIMLFAC
 40
1.0
  9
$DIMSE2
 70
0
  9
$DIMTOH
 70
1
  9
$CELTYPE
  6
BYLAYER
  9
$PLIMCHECK
 70
0
  9
$PLINEWID
 40
0.0
  9
$DIMSTYLE
  2
STANDARD
  9
$DIMTVP
 40
0.0
  9
$DIMASO
 70
1
  9
$DIMTM
 40
0.0
  9
$DIMDLI
 40
0.38
  9
$DISPSILH
 70
0
  9
$CECOLOR
 62
256
  9
$TREEDEPTH
 70
3020
  9
$PLIMMAX
 10
12.0
 20
9.0
  9
$PLIMMIN
 10
0.0
 20
0.0
  9
$MAXACTVP
 70
64
  9
$TDUPDATE
 40
2455540.0061201741918921
  9
$FILLETRAD
 40
0.5
  9
$DIMALTU
 70
2
  9
$DIMDEC
 70
4
  9
$DIMCLRT
 70
0
  9
$DIMALTD
 70
2
  9
$DIMTIH
 70
1
  9
$LTSCALE
 40
1.0
  9
$CMLSCALE
 40
1.0
  9
$PINSBASE
 10
0.0
 20
0.0
 30
0.0
  9
$USERR1
 40
0.0
  9
$ATTDIA
 70
0
  9
$PDSIZE
 40
0.0
  9
$DIMTXSTY
  7
STANDARD
  9
$DIMCLRD
 70
0
  9
$DIMEXE
 40
0.18
  9
$CELTSCALE
 40
1.0
  9
$SAVEIMAGES
 70
1
  9
$PSLTSCALE
 70
1
  9
$PLINEGEN
 70
0
  9
$SHADEDGE
 70
3
  9
$USERR2
 40
0.0
  9
$COORDS
 70
1
  9
$TDCREATE
 40
2455540.0061201620846987
  9
$DIMAUNIT
 70
0
  9
$DIMFIT
 70
3
  9
$DIMSD1
 70
0
  9
$DIMCLRE
 70
0
  9
$DIMTOFL
 70
0
  9
$DIMALTF
 40
25.3999999999999986
  9
$DIMTOL
 70
0
  9
$DIMTP
 40
0.0
  9
$TEXTSTYLE
  7
STANDARD
  9
$USERR3
 40
0.0
  9
$AUNITS
 70
0
  9
$DIMSD2
 70
0
  9
$DIMTIX
 70
0
  9
$MIRRTEXT
 70
1
  0
ENDSEC
  0
SECTION
  2
TABLES
  0
TABLE
  2
VPORT
  5
8
100
AcDbSymbolTable
 70
1
  0
VPORT
  5
30
100
AcDbSymbolTableRecord
100
AcDbViewportTableRecord
  2
*Active
 70
0
 10
0.0
 20
0.0
 11
1.0
 21
1.0
 12
286.3055555555554861
 22
148.5
 13
0.0
 23
0.0
 14
10.0
 24
10.0
 15
10.0
 25
10.0
 16
0.0
 26
0.0
 36
1.0
 17
0.0
 27
0.0
 37
0.0
 40
297.0
 41
1.92798353909465
 42
50.0
 43
0.0
 44
0.0
 50
0.0
 51
0.0
 71
0
 72
100
 73
1
 74
3
 75
1
 76
1
 77
0
 78
0
281
0
 65
1
110
0.0
120
0.0
130
0.0
111
1.0
121
0.0
131
0.0
112
0.0
122
1.0
132
0.0
 79
0
146
0.0
  0
ENDTAB
  0
TABLE
  2
LTYPE
  5
5
100
AcDbSymbolTable
 70
21
  0
LTYPE
  5
14
100
AcDbSymbolTableRecord
100
AcDbLinetypeTableRecord
  2
ByBlock
 70
0
  3

 72
65
 73
0
 40
0.0
  0
LTYPE
  5
15
100
AcDbSymbolTableRecord
100
AcDbLinetypeTableRecord
  2
ByLayer
 70
0
  3

 72
65
 73
0
 40
0.0
  0
LTYPE
  5
16
100
AcDbSymbolTableRecord
100
AcDbLinetypeTableRecord
  2
CONTINUOUS
 70
0
  3
Solid line
 72
65
 73
0
 40
0.0
  0
LTYPE
  5
31
100
AcDbSymbolTableRecord
100
AcDbLinetypeTableRecord
  2
DOT
 70
0
  3
Dot . . . . . . . . . . . . . . . . . . . . . .
 72
65
 73
2
 40
6.3499999999999996
 49
0.0
 74
0
 49
-6.3499999999999996
 74
0
  0
LTYPE
  5
32
100
AcDbSymbolTableRecord
100
AcDbLinetypeTableRecord
  2
DOT2
 70
0
  3
Dot (.5x) .....................................
 72
65
 73
2
 40
3.1749999999999998
 49
0.0
 74
0
 49
-3.1749999999999998
 74
0
  0
LTYPE
  5
33
100
AcDbSymbolTableRecord
100
AcDbLinetypeTableRecord
  2
DOTX2
 70
0
  3
Dot (2x) .  .  .  .  .  .  .  .  .  .  .  .  .
 72
65
 73
2
 40
12.6999999999999993
 49
0.0
 74
0
 49
-12.6999999999999993
 74
0
  0
LTYPE
  5
34
100
AcDbSymbolTableRecord
100
AcDbLinetypeTableRecord
  2
DASHED
 70
0
  3
Dashed __ __ __ __ __ __ __ __ __ __ __ __ __ _
 72
65
 73
2
 40
19.0500000000000007
 49
12.6999999999999993
 74
0
 49
-6.3499999999999996
 74
0
  0
LTYPE
  5
35
100
AcDbSymbolTableRecord
100
AcDbLinetypeTableRecord
  2
DASHED2
 70
0
  3
Dashed (.5x) _ _ _ _ _ _ _ _ _ _ _ _ _ _ _ _ _
 72
65
 73
2
 40
9.5250000000000004
 49
6.3499999999999996
 74
0
 49
-3.1749999999999998
 74
0
  0
LTYPE
  5
36
100
AcDbSymbolTableRecord
100
AcDbLinetypeTableRecord
  2
DASHEDX2
 70
0
  3
Dashed (2x) ____  ____  ____  ____  ____  ___
 72
65
 73
2
 40
38.1000000000000014
 49
25.3999999999999986
 74
0
 49
-12.6999999999999993
 74
0
  0
LTYPE
  5
37
100
AcDbSymbolTableRecord
100
AcDbLinetypeTableRecord
  2
DASHDOT
 70
0
  3
Dash dot __ . __ . __ . __ . __ . __ . __ . __
 72
65
 73
4
 40
25.3999999999999986
 49
12.6999999999999993
 74
0
 49
-6.3499999999999996
 74
0
 49
0.0
 74
0
 49
-6.3499999999999996
 74
0
  0
LTYPE
  5
38
100
AcDbSymbolTableRecord
100
AcDbLinetypeTableRecord
  2
DASHDOT2
 70
0
  3
Dash dot (.5x) _._._._._._._._._._._._._._._.
 72
65
 73
4
 40
12.6999999999999993
 49
6.3499999999999996
 74
0
 49
-3.1749999999999998
 74
0
 49
0.0
 74
0
 49
-3.1749999999999998
 74
0
  0
LTYPE
  5
39
100
AcDbSymbolTableRecord
100
AcDbLinetypeTableRecord
  2
DASHDOTX2
 70
0
  3
Dash dot (2x) ____  .  ____  .  ____  .  ___
 72
65
 73
4
 40
50.7999999999999972
 49
25.3999999999999986
 74
0
 49
-12.6999999999999993
 74
0
 49
0.0
 74
0
 49
-12.6999999999999993
 74
0
  0
LTYPE
  5
3A
100
AcDbSymbolTableRecord
100
AcDbLinetypeTableRecord
  2
DIVIDE
 70
0
  3
Divide ____ . . ____ . . ____ . . ____ . . ____
 72
65
 73
6
 40
31.75
 49
12.6999999999999993
 74
0
 49
-6.3499999999999996
 74
0
 49
0.0
 74
0
 49
-6.3499999999999996
 74
0
 49
0.0
 74
0
 49
-6.3499999999999996
 74
0
  0
LTYPE
  5
3B
100
AcDbSymbolTableRecord
100
AcDbLinetypeTableRecord
  2
DIVIDE2
 70
0
  3
Divide (.5x) __..__..__..__..__..__..__..__.._
 72
65
 73
6
 40
15.875
 49
6.3499999999999996
 74
0
 49
-3.1749999999999998
 74
0
 49
0.0
 74
0
 49
-3.1749999999999998
 74
0
 49
0.0
 74
0
 49
-3.1749999999999998
 74
0
  0
LTYPE
  5
3C
100
AcDbSymbolTableRecord
100
AcDbLinetypeTableRecord
  2
DIVIDEX2
 70
0
  3
Divide (2x) ________  .  .  ________  .  .  _
 72
65
 73
6
 40
63.5
 49
25.3999999999999986
 74
0
 49
-12.6999999999999993
 74
0
 49
0.0
 74
0
 49
-12.6999999999999993
 74
0
 49
0.0
 74
0
 49
-12.6999999999999993
 74
0
  0
LTYPE
  5
3D
100
AcDbSymbolTableRecord
100
AcDbLinetypeTableRecord
  2
CENTER
 70
0
  3
Center ____ _ ____ _ ____ _ ____ _ ____ _ ____
 72
65
 73
4
 40
50.7999999999999972
 49
31.75
 74
0
 49
-6.3499999999999996
 74
0
 49
6.3499999999999996
 74
0
 49
-6.3499999999999996
 74
0
  0
LTYPE
  5
3E
100
AcDbSymbolTableRecord
100
AcDbLinetypeTableRecord
  2
CENTER2
 70
0
  3
Center (.5x) ___ _ ___ _ ___ _ ___ _ ___ _ ___
 72
65
 73
4
 40
28.5749999999999993
 49
19.0500000000000007
 74
0
 49
-3.1749999999999998
 74
0
 49
3.1749999999999998
 74
0
 49
-3.1749999999999998
 74
0
  0
LTYPE
  5
3F
100
AcDbSymbolTableRecord
100
AcDbLinetypeTableRecord
  2
CENTERX2
 70
0
  3
Center (2x) ________  __  ________  __  _____
 72
65
 73
4
 40
101.5999999999999943
 49
63.5
 74
0
 49
-12.6999999999999993
 74
0
 49
12.6999999999999993
 74
0
 49
-12.6999999999999993
 74
0
  0
LTYPE
  5
40
100
AcDbSymbolTableRecord
100
AcDbLinetypeTableRecord
  2
BORDER
 70
0
  3
Border __ __ . __ __ . __ __ . __ __ . __ __ .
 72
65
 73
6
 40
44.4500000000000028
 49
12.6999999999999993
 74
0
 49
-6.3499999999999996
 74
0
 49
12.6999999999999993
 74
0
 49
-6.3499999999999996
 74
0
 49
0.0
 74
0
 49
-6.3499999999999996
 74
0
  0
LTYPE
  5
41
100
AcDbSymbolTableRecord
100
AcDbLinetypeTableRecord
  2
BORDER2
 70
0
  3
Border (.5x) __.__.__.__.__.__.__.__.__.__.__.
 72
65
 73
6
 40
22.2250000000000014
 49
6.3499999999999996
 74
0
 49
-3.1749999999999998
 74
0
 49
6.3499999999999996
 74
0
 49
-3.1749999999999998
 74
0
 49
0.0
 74
0
 49
-3.1749999999999998
 74
0
  0
LTYPE
  5
42
100
AcDbSymbolTableRecord
100
AcDbLinetypeTableRecord
  2
BORDERX2
 70
0
  3
Border (2x) ____  ____  .  ____  ____  .  ___
 72
65
 73
6
 40
88.9000000000000057
 49
25.3999999999999986
 74
0
 49
-12.6999999999999993
 74
0
 49
25.3999999999999986
 74
0
 49
-12.6999999999999993
 74
0
 49
0.0
 74
0
 49
-12.6999999999999993
 74
0
  0
ENDTAB
  0
TABLE
  2
LAYER
  5
2
100
AcDbSymbolTable
 70
2
  0
LAYER
  5
10
100
AcDbSymbolTableRecord
100
AcDbLayerTableRecord
  2
0
 70
0
 62
7
  6
CONTINUOUS
390
F
  0
LAYER
  5
43
100
AcDbSymbolTableRecord
100
AcDbLayerTableRecord
  2
LAYER_1
 70
0
 62
7
  6
CONTINUOUS
390
F
  0
ENDTAB
  0
TABLE
  2
STYLE
  5
3
100
AcDbSymbolTable
 70
1
  0
STYLE
  5
11
100
AcDbSymbolTableRecord
100
AcDbTextStyleTableRecord
  2
Standard
 70
0
 40
0.0
 41
0.75
 50
0.0
 71
0
 42
2.5
  3
txt
  4

  0
ENDTAB
  0
TABLE
  2
VIEW
  5
6
100
AcDbSymbolTable
 70
0
  0
ENDTAB
  0
TABLE
  2
UCS
  5
7
100
AcDbSymbolTable
 70
0
  0
ENDTAB
  0
TABLE
  2
APPID
  5
9
100
AcDbSymbolTable
 70
1
  0
APPID
  5
12
100
AcDbSymbolTableRecord
100
AcDbRegAppTableRecord
  2
ACAD
 70
0
  0
ENDTAB
  0
TABLE
  2
DIMSTYLE
  5
A
100
AcDbSymbolTable
 70
1
100
AcDbDimStyleTable
 71
0
  0
DIMSTYLE
105
27
100
AcDbSymbolTableRecord
100
AcDbDimStyleTableRecord
  2
Standard
 41
0.18
 42
0.0625
 43
3.75
 44
0.18
 70
0
 73
0
 74
0
 77
1
 78
8
140
0.18
141
2.5
143
0.03937007874016
147
0.09
171
3
172
1
271
2
272
2
274
3
278
44
283
0
284
8
340
11
  0
ENDTAB
  0
TABLE
  2
BLOCK_RECORD
  5
1
100
AcDbSymbolTable
 70
1
  0
BLOCK_RECORD
  5
1F
100
AcDbSymbolTableRecord
100
AcDbBlockTableRecord
  2
*Model_Space
340
22
  0
BLOCK_RECORD
  5
1B
100
AcDbSymbolTableRecord
100
AcDbBlockTableRecord
  2
*Paper_Space
340
1E
  0
BLOCK_RECORD
  5
23
100
AcDbSymbolTableRecord
100
AcDbBlockTableRecord
  2
*Paper_Space0
340
26
  0
BLOCK_RECORD
  5
44
100
AcDbSymbolTableRecord
100
AcDbBlockTableRecord
  2
*U1
340
0
  0
BLOCK_RECORD
  5
45
100
AcDbSymbolTableRecord
100
AcDbBlockTableRecord
  2
*U2
340
0
  0
BLOCK_RECORD
  5
46
100
AcDbSymbolTableRecord
100
AcDbBlockTableRecord
  2
*U3
340
0
  0
BLOCK_RECORD
  5
47
100
AcDbSymbolTableRecord
100
AcDbBlockTableRecord
  2
*U4
340
0
  0
BLOCK_RECORD
  5
48
100
AcDbSymbolTableRecord
100
AcDbBlockTableRecord
  2
*U5
340
0
  0
ENDTAB
  0
ENDSEC
  0
SECTION
  2
BLOCKS
  0
BLOCK
  5
20
100
AcDbEntity
  8
0
100
AcDbBlockBegin
  2
*Model_Space
 70
0
 10
0.0
 20
0.0
 30
0.0
  3
*Model_Space
  1

  0
ENDBLK
  5
21
100
AcDbEntity
  8
0
100
AcDbBlockEnd
  0
BLOCK
  5
1C
100
AcDbEntity
 67
1
  8
0
100
AcDbBlockBegin
  2
*Paper_Space
 70
0
 10
0.0
 20
0.0
 30
0.0
  3
*Paper_Space
  1

  0
ENDBLK
  5
1D
100
AcDbEntity
 67
1
  8
0
100
AcDbBlockEnd
  0
BLOCK
  5
24
100
AcDbEntity
  8
0
100
AcDbBlockBegin
  2
*Paper_Space0
 70
0
 10
0.0
 20
0.0
 30
0.0
  3
*Paper_Space0
  1

  0
ENDBLK
  5
25
100
AcDbEntity
  8
0
100
AcDbBlockEnd
  0
BLOCK
  5
49
100
AcDbEntity
  8
0
100
AcDbBlockBegin
  2
*U1
 70
0
 10
0.0
 20
0.0
 30
0.0
  3
*U1
  1

  0
ENDBLK
  5
4A
100
AcDbEntity
  8
0
100
AcDbBlockEnd
  0
BLOCK
  5
4B
100
AcDbEntity
  8
0
100
AcDbBlockBegin
  2
*U2
 70
0
 10
0.0
 20
0.0
 30
0.0
  3
*U2
  1

  0
ENDBLK
  5
4C
100
AcDbEntity
  8
0
100
AcDbBlockEnd
  0
BLOCK
  5
4D
100
AcDbEntity
  8
0
100
AcDbBlockBegin
  2
*U3
 70
0
 10
0.0
 20
0.0
 30
0.0
  3
*U3
  1

  0
ENDBLK
  5
4E
100
AcDbEntity
  8
0
100
AcDbBlockEnd
  0
BLOCK
  5
4F
100
AcDbEntity
  8
0
100
AcDbBlockBegin
  2
*U4
 70
0
 10
0.0
 20
0.0
 30
0.0
  3
*U4
  1

  0
ENDBLK
  5
50
100
AcDbEntity
  8
0
100
AcDbBlockEnd
  0
BLOCK
  5
51
100
AcDbEntity
  8
0
100
AcDbBlockBegin
  2
*U5
 70
0
 10
0.0
 20
0.0
 30
0.0
  3
*U5
  1

  0
ENDBLK
  5
52
100
AcDbEntity
  8
0
100
AcDbBlockEnd
  0
ENDSEC
  0
SECTION
  2
ENTITIES
  0
LWPOLYLINE
  5
53
  8
LAYER_1
 62
256
370
-1
  6
ByLayer
100
AcDbEntity
100
AcDbPolyline
 90
37
 70
0
 10
64.4999814989982241
 20
130.4999585618130027
 10
64.4999814989982241
 20
139.4999319447121024
 10
61.4999903713651932
 20
139.4999319447121024
 10
61.4999903713651932
 20
142.4999230723450978
 10
52.5000169884660721
 20
142.4999230723450978
 10
52.5000169884660721
 20
145.500086454866107
 10
40.5000524779339131
 20
145.500086454866107
 10
40.5000524779339131
 20
142.4999230723450978
 10
31.5000790950347991
 20
142.4999230723450978
 10
31.5000790950347991
 20
139.4999319447121024
 10
28.5000879674017611
 20
139.4999319447121024
 10
28.5000879674017611
 20
130.4999585618130027
 10
34.5000702226678371
 20
130.4999585618130027
 10
34.5000702226678371
 20
127.4999674341798936
 10
31.5000790950347991
 20
127.4999674341798936
 10
31.5000790950347991
 20
124.4999763065468983
 10
34.5000702226678371
 20
124.4999763065468983
 10
34.5000702226678371
 20
121.4999851789138035
 10
40.5000524779339131
 20
121.4999851789138035
 10
40.5000524779339131
 20
124.4999763065468983
 10
37.5000613503008822
 20
124.4999763065468983
 10
37.5000613503008822
 20
127.4999674341798936
 10
43.500043605566951
 20
127.4999674341798936
 10
43.500043605566951
 20
130.4999585618130027
 10
49.500025860833027
 20
130.4999585618130027
 10
49.500025860833027
 20
127.4999674341798936
 10
55.5000081160991101
 20
127.4999674341798936
 10
55.5000081160991101
 20
124.4999763065468983
 10
52.5000169884660721
 20
124.4999763065468983
 10
52.5000169884660721
 20
121.4999851789138035
 10
58.4999992437321481
 20
121.4999851789138035
 10
58.4999992437321481
 20
124.4999763065468983
 10
61.4999903713651932
 20
124.4999763065468983
 10
61.4999903713651932
 20
127.4999674341798936
 10
58.4999992437321481
 20
127.4999674341798936
 10
58.4999992437321481
 20
130.4999585618130027
 10
64.4999814989982241
 20
130.4999585618130027
  0
LWPOLYLINE
  5
54
  8
LAYER_1
 62
256
370
-1
  6
ByLayer
100
AcDbEntity
100
AcDbPolyline
 90
5
 70
0
 10
43.500043605566951
 20
133.499949689445998
 10
37.5000613503008822
 20
133.499949689445998
 10
37.5000613503008822
 20
136.4999408170791071
 10
43.500043605566951
 20
136.4999408170791071
 10
43.500043605566951
 20
133.499949689445998
  0
LWPOLYLINE
  5
55
  8
LAYER_1
 62
256
370
-1
  6
ByLayer
100
AcDbEntity
100
AcDbPolyline
 90
5
 70
0
 10
55.5000081160991101
 20
133.499949689445998
 10
49.500025860833027
 20
133.499949689445998
 10
49.500025860833027
 20
136.4999408170791071
 10
55.5000081160991101
 20
136.4999408170791071
 10
55.5000081160991101
 20
133.499949689445998
  0
INSERT
  5
56
100
AcDbEntity
100
AcDbBlockReference
  8
LAYER_1
 62
250
370
-1
  6
ByLayer
  2
*U1
 10
0.0
 20
0.0
 30
0.0
  0
INSERT
  5
57
100
AcDbEntity
100
AcDbBlockReference
  8
LAYER_1
 62
250
370
-1
  6
ByLayer
  2
*U2
 10
0.0
 20
0.0
 30
0.0
  0
INSERT
  5
58
100
AcDbEntity
100
AcDbBlockReference
  8
LAYER_1
 62
250
370
-1
  6
ByLayer
  2
*U3
 10
0.0
 20
0.0
 30
0.0
  0
INSERT
  5
59
100
AcDbEntity
100
AcDbBlockReference
  8
LAYER_1
 62
250
370
-1
  6
ByLayer
  2
*U4
 10
0.0
 20
0.0
 30
0.0
  0
INSERT
  5
5A
100
AcDbEntity
100
AcDbBlockReference
  8
LAYER_1
 62
250
370
-1
  6
ByLayer
  2
*U5
 10
0.0
 20
0.0
 30
0.0
  0
LWPOLYLINE
  5
5B
  8
LAYER_1
 62
256
370
-1
  6
ByLayer
100
AcDbEntity
100
AcDbPolyline
 90
39
 70
0
 10
60.7150350226077933
 20
148.7941373176551281
 10
59.215383968567096
 20
148.7941373176551281
 10
59.215383968567096
 20
151.7941284452881519
 10
56.2153928409340011
 20
151.7941284452881519
 10
56.2153928409340011
 20
154.7941195729212325
 10
63.7150261502408028
 20
154.7941195729212325
 10
63.7150261502408028
 20
163.7940929558203322
 10
60.7150350226077933
 20
163.7940929558203322
 10
60.7150350226077933
 20
166.7940840834533276
 10
54.7150527673417031
 20
166.7940840834533276
 10
54.7150527673417031
 20
169.794075211086323
 10
45.7150793844426033
 20
169.794075211086323
 10
39.7150971291765416
 20
169.794075211086323
 10
39.7150971291765416
 20
166.7940840834533276
 10
33.7151148739104656
 20
166.7940840834533276
 10
33.7151148739104656
 20
163.7940929558203322
 10
30.7151237462774276
 20
163.7940929558203322
 10
30.7151237462774276
 20
154.7941195729212325
 10
38.2151015653600155
 20
154.7941195729212325
 10
38.2151015653600155
 20
151.7941284452881519
 10
35.2151104377269775
 20
151.7941284452881519
 10
35.2151104377269775
 20
148.7941373176551281
 10
30.7151237462774276
 20
148.7941373176551281
 10
30.7151237462774276
 20
145.7938016802463324
 10
38.2151015653600155
 20
145.7938016802463324
 10
38.2151015653600155
 20
148.7941373176551281
 10
41.2150926929930534
 20
148.7941373176551281
 10
41.2150926929930534
 20
151.7941284452881519
 10
44.2150838206261056
 20
151.7941284452881519
 10
44.2150838206261056
 20
148.7941373176551281
 10
50.2154105856679962
 20
148.7941373176551281
 10
50.2150660758921958
 20
151.7941284452881519
 10
53.2154017133010058
 20
151.7941284452881519
 10
53.2154017133010058
 20
148.7941373176551281
 10
56.2150483311583002
 20
148.7941373176551281
 10
56.2150483311583002
 20
145.7938016802463324
 10
63.7153706600166032
 20
145.7938016802463324
 10
63.7153706600166032
 20
148.7941373176551281
 10
60.7150350226077933
 20
148.7941373176551281
  0
LWPOLYLINE
  5
5C
  8
LAYER_1
 62
256
370
-1
  6
ByLayer
100
AcDbEntity
100
AcDbPolyline
 90
5
 70
0
 10
44.2150838206261056
 20
157.7941107005542278
 10
39.7150971291765416
 20
157.7941107005542278
 10
39.7150971291765416
 20
160.7941018281872516
 10
44.2150838206261056
 20
160.7941018281872516
 10
44.2150838206261056
 20
157.7941107005542278
  0
LWPOLYLINE
  5
5D
  8
LAYER_1
 62
256
370
-1
  6
ByLayer
100
AcDbEntity
100
AcDbPolyline
 90
5
 70
0
 10
54.7150527673417031
 20
157.7941107005542278
 10
50.2150660758921958
 20
157.7941107005542278
 10
50.2150660758921958
 20
160.7941018281872516
 10
54.7150527673417031
 20
160.7941018281872516
 10
54.7150527673417031
 20
157.7941107005542278
  0
LWPOLYLINE
  5
5E
  8
LAYER_1
 62
256
370
-1
  6
ByLayer
100
AcDbEntity
100
AcDbPolyline
 90
45
 70
0
 10
58.1037064506526804
 20
106.4038392133652735
 10
58.1037064506526804
 20
112.4038214686313779
 10
55.103715323019685
 20
112.4038214686313779
 10
55.103715323019685
 20
115.4038125962643733
 10
52.1037241953866896
 20
115.4038125962643733
 10
52.1037241953866896
 20
118.4038037238974823
 10
49.1037330677535806
 20
118.4038037238974823
 10
49.1037330677535806
 20
121.4037948515304777
 10
43.1037508124875899
 20
121.4037948515304777
 10
43.1037508124875899
 20
118.4038037238974823
 10
40.1037596848544808
 20
118.4038037238974823
 10
40.1037596848544808
 20
115.4038125962643733
 10
37.1037685572214855
 20
115.4038125962643733
 10
37.1037685572214855
 20
112.4038214686313779
 10
34.1037774295883764
 20
112.4038214686313779
 10
34.1037774295883764
 20
106.4038392133652735
 10
35.6037729934049878
 20
106.4038392133652735
 10
35.6037729934049878
 20
103.4038480857322782
 10
34.1037774295883764
 20
103.4038480857322782
 10
34.1037774295883764
 20
100.4038569580992828
 10
35.6037729934049878
 20
100.4038569580992828
 10
35.6037729934049878
 20
97.4036935755782736
 10
40.1037596848544808
 20
97.4036935755782736
 10
40.1037596848544808
 20
100.4038569580992828
 10
38.6037641210379832
 20
100.4038569580992828
 10
38.6037641210379832
 20
103.4038480857322782
 10
40.1037596848544808
 20
103.4038480857322782
 10
40.1037596848544808
 20
106.4038392133652735
 10
43.1037508124875899
 20
106.4038392133652735
 10
43.1037508124875899
 20
103.4038480857322782
 10
49.1037330677535806
 20
103.4038480857322782
 10
49.1037330677535806
 20
106.4038392133652735
 10
52.1037241953866896
 20
106.4038392133652735
 10
52.1037241953866896
 20
103.4038480857322782
 10
53.6037197592031873
 20
103.4038480857322782
 10
53.6037197592031873
 20
100.4038569580992828
 10
52.1037241953866896
 20
100.4038569580992828
 10
52.1037241953866896
 20
97.4036935755782736
 10
56.6037108868361827
 20
97.4036935755782736
 10
56.6037108868361827
 20
100.4038569580992828
 10
58.1037064506526804
 20
100.4038569580992828
 10
58.1037064506526804
 20
103.4038480857322782
 10
56.6037108868361827
 20
103.4038480857322782
 10
56.6037108868361827
 20
106.4038392133652735
 10
58.1037064506526804
 20
106.4038392133652735
  0
LWPOLYLINE
  5
5F
  8
LAYER_1
 62
256
370
-1
  6
ByLayer
100
AcDbEntity
100
AcDbPolyline
 90
5
 70
0
 10
43.1037508124875899
 20
109.4038303409983826
 10
40.1037596848544808
 20
109.4038303409983826
 10
40.1037596848544808
 20
112.4038214686313779
 10
43.1037508124875899
 20
112.4038214686313779
 10
43.1037508124875899
 20
109.4038303409983826
  0
LWPOLYLINE
  5
60
  8
LAYER_1
 62
256
370
-1
  6
ByLayer
100
AcDbEntity
100
AcDbPolyline
 90
5
 70
0
 10
52.1037241953866896
 20
109.4038303409983826
 10
49.1037330677535806
 20
109.4038303409983826
 10
49.1037330677535806
 20
112.4038214686313779
 10
52.1037241953866896
 20
112.4038214686313779
 10
52.1037241953866896
 20
109.4038303409983826
  0
LWPOLYLINE
  5
61
  8
LAYER_1
 62
256
370
-1
  6
ByLayer
100
AcDbEntity
100
AcDbPolyline
 90
56
 70
0
 10
103.4354397775355494
 20
135.1037658180472931
 10
103.4354397775355494
 20
138.1037569456802885
 10
100.4354486499025398
 20
138.1037569456802885
 10
100.4354486499025398
 20
141.1037480733132838
 10
97.435457522269445
 20
141.1037480733132838
 10
94.4354663946364496
 20
141.1037480733132838
 10
94.4354663946364496
 20
144.1039114558342931
 10
97.435457522269445
 20
144.1039114558342931
 10
97.435457522269445
 20
147.1039025834672884
 10
100.4354486499025398
 20
147.1039025834672884
 10
100.4354486499025398
 20
150.1038937111003975
 10
95.9354619584529473
 20
150.1038937111003975
 10
95.9354619584529473
 20
147.1039025834672884
 10
92.9354708308199378
 20
147.1039025834672884
 10
91.4354752670033974
 20
147.1039025834672884
 10
91.4354752670033974
 20
141.1037480733132838
 10
82.4355018841042835
 20
141.1037480733132838
 10
82.4355018841042835
 20
147.1039025834672884
 10
77.9355151926547336
 20
147.1039025834672884
 10
77.9355151926547336
 20
150.1038937111003975
 10
73.4355285012051695
 20
150.1038937111003975
 10
73.4355285012051695
 20
147.1039025834672884
 10
76.4355196288382075
 20
147.1039025834672884
 10
76.4355196288382075
 20
144.1039114558342931
 10
79.4355107564712455
 20
144.1039114558342931
 10
79.4355107564712455
 20
141.1037480733132838
 10
73.4355285012051695
 20
141.1037480733132838
 10
73.4355285012051695
 20
138.1037569456802885
 10
70.4355373735721315
 20
138.1037569456802885
 10
70.4355373735721315
 20
135.1037658180472931
 10
67.4355462459390935
 20
135.1037658180472931
 10
67.4355462459390935
 20
126.1037924351481934
 10
70.4355373735721315
 20
126.1037924351481934
 10
70.4355373735721315
 20
132.1037746904141841
 10
73.4355285012051695
 20
132.1037746904141841
 10
73.4355285012051695
 20
126.1037924351481934
 10
76.4355196288382075
 20
126.1037924351481934
 10
76.4355196288382075
 20
123.1038013075150843
 10
85.4354930117373215
 20
123.1038013075150843
 10
85.4354930117373215
 20
126.1037924351481934
 10
79.4355107564712455
 20
126.1037924351481934
 10
79.4355107564712455
 20
129.1037835627811887
 10
94.4354663946364496
 20
129.1037835627811887
 10
94.4354663946364496
 20
126.1037924351481934
 10
88.4354841393703595
 20
126.1037924351481934
 10
88.4354841393703595
 20
123.1038013075150843
 10
92.9354708308199378
 20
123.1038013075150843
 10
97.435457522269445
 20
123.1038013075150843
 10
97.435457522269445
 20
126.1037924351481934
 10
100.4354486499025398
 20
126.1037924351481934
 10
100.4354486499025398
 20
132.1037746904141841
 10
103.4354397775355494
 20
132.1037746904141841
 10
103.4354397775355494
 20
126.1037924351481934
 10
106.4354309051686442
 20
126.1037924351481934
 10
106.4354309051686442
 20
135.1037658180472931
 10
103.4354397775355494
 20
135.1037658180472931
  0
LWPOLYLINE
  5
62
  8
LAYER_1
 62
256
370
-1
  6
ByLayer
100
AcDbEntity
100
AcDbPolyline
 90
5
 70
0
 10
82.4355018841042835
 20
135.1037658180472931
 10
79.4355107564712455
 20
135.1037658180472931
 10
79.4355107564712455
 20
138.1037569456802885
 10
82.4355018841042835
 20
138.1037569456802885
 10
82.4355018841042835
 20
135.1037658180472931
  0
LWPOLYLINE
  5
63
  8
LAYER_1
 62
256
370
-1
  6
ByLayer
100
AcDbEntity
100
AcDbPolyline
 90
5
 70
0
 10
94.4354663946364496
 20
135.1037658180472931
 10
91.4354752670033974
 20
135.1037658180472931
 10
91.4354752670033974
 20
138.1037569456802885
 10
94.4354663946364496
 20
138.1037569456802885
 10
94.4354663946364496
 20
135.1037658180472931
  0
LWPOLYLINE
  5
64
  8
LAYER_1
 62
256
370
-1
  6
ByLayer
100
AcDbEntity
100
AcDbPolyline
 90
41
 70
0
 10
108.3329622591500652
 20
106.1344299521628045
 10
108.3329622591500652
 20
109.1344210797958283
 10
105.3329711315170556
 20
109.1344210797958283
 10
105.3329711315170556
 20
112.1344122074288805
 10
102.3329800038840034
 20
112.1344122074288805
 10
102.3329800038840034
 20
115.1344033350619327
 10
96.3329977486179274
 20
115.1344033350619327
 10
96.3329977486179274
 20
118.1343944626949565
 10
78.3330509828196995
 20
118.1343944626949565
 10
78.3330509828196995
 20
115.1344033350619327
 10
72.3330687275536235
 20
115.1344033350619327
 10
72.3330687275536235
 20
112.1344122074288805
 10
69.3330775999205855
 20
112.1344122074288805
 10
69.3330775999205855
 20
109.1344210797958283
 10
66.3330864722875475
 20
109.1344210797958283
 10
66.3330864722875475
 20
106.1344299521628045
 10
63.3330953446544953
 20
106.1344299521628045
 10
63.3330953446544953
 20
103.1344388245297807
 10
69.3330775999205855
 20
103.1344388245297807
 10
69.3330775999205855
 20
100.1344476968967285
 10
72.3330687275536235
 20
100.1344476968967285
 10
72.3330687275536235
 20
97.1341120594879044
 10
75.3330598551866615
 20
97.1341120594879044
 10
75.3330598551866615
 20
100.1344476968967285
 10
78.3330509828196995
 20
100.1344476968967285
 10
78.3330509828196995
 20
103.1344388245297807
 10
84.3330332380857755
 20
103.1344388245297807
 10
84.3330332380857755
 20
100.1344476968967285
 10
90.3330154933518514
 20
100.1344476968967285
 10
90.3330154933518514
 20
103.1344388245297807
 10
96.3329977486179274
 20
103.1344388245297807
 10
96.3329977486179274
 20
100.1344476968967285
 10
99.3329888762509654
 20
100.1344476968967285
 10
99.3329888762509654
 20
97.1341120594879044
 10
102.3329800038840034
 20
97.1341120594879044
 10
102.3329800038840034
 20
100.1344476968967285
 10
105.3329711315170556
 20
100.1344476968967285
 10
105.3329711315170556
 20
103.1344388245297807
 10
111.33295338678316
 20
103.1344388245297807
 10
111.33295338678316
 20
106.1344299521628045
 10
108.3329622591500652
 20
106.1344299521628045
  0
LWPOLYLINE
  5
65
  8
LAYER_1
 62
256
370
-1
  6
ByLayer
100
AcDbEntity
100
AcDbPolyline
 90
5
 70
0
 10
75.3330598551866615
 20
106.1344299521628045
 10
72.3330687275536235
 20
106.1344299521628045
 10
72.3330687275536235
 20
109.1344210797958283
 10
75.3330598551866615
 20
109.1344210797958283
 10
75.3330598551866615
 20
106.1344299521628045
  0
LWPOLYLINE
  5
66
  8
LAYER_1
 62
256
370
-1
  6
ByLayer
100
AcDbEntity
100
AcDbPolyline
 90
5
 70
0
 10
84.3330332380857755
 20
106.1344299521628045
 10
81.3330421104527375
 20
106.1344299521628045
 10
81.3330421104527375
 20
109.1344210797958283
 10
84.3330332380857755
 20
109.1344210797958283
 10
84.3330332380857755
 20
106.1344299521628045
  0
LWPOLYLINE
  5
67
  8
LAYER_1
 62
256
370
-1
  6
ByLayer
100
AcDbEntity
100
AcDbPolyline
 90
5
 70
0
 10
93.3330066209848894
 20
106.1344299521628045
 10
90.3330154933518514
 20
106.1344299521628045
 10
90.3330154933518514
 20
109.1344210797958283
 10
93.3330066209848894
 20
109.1344210797958283
 10
93.3330066209848894
 20
106.1344299521628045
  0
LWPOLYLINE
  5
68
  8
LAYER_1
 62
256
370
-1
  6
ByLayer
100
AcDbEntity
100
AcDbPolyline
 90
5
 70
0
 10
102.3329800038840034
 20
106.1344299521628045
 10
99.3329888762509654
 20
106.1344299521628045
 10
99.3329888762509654
 20
109.1344210797958283
 10
102.3329800038840034
 20
109.1344210797958283
 10
102.3329800038840034
 20
106.1344299521628045
  0
ENDSEC
  0
SECTION
  2
OBJECTS
  0
DICTIONARY
  5
C
100
AcDbDictionary
280
0
281
1
  3
ACAD_GROUP
350
D
  3
ACAD_LAYOUT
350
1A
  3
ACAD_MLINESTYLE
350
17
  3
ACAD_PLOTSETTINGS
350
19
  3
ACAD_PLOTSTYLENAME
350
E
  3
AcDbVariableDictionary
350
69
  0
DICTIONARY
  5
D
100
AcDbDictionary
280
0
281
1
  0
ACDBDICTIONARYWDFLT
  5
E
100
AcDbDictionary
281
1
  3
Normal
350
F
100
AcDbDictionaryWithDefault
340
F
  0
ACDBPLACEHOLDER
  5
F
  0
DICTIONARY
  5
17
100
AcDbDictionary
280
0
281
1
  3
Standard
350
18
  0
MLINESTYLE
  5
18
100
AcDbMlineStyle
  2
STANDARD
 70
0
  3

 62
256
 51
90.0
 52
90.0
 71
2
 49
0.5
 62
256
  6
BYLAYER
 49
-0.5
 62
256
  6
BYLAYER
  0
DICTIONARY
  5
19
100
AcDbDictionary
280
0
281
1
  0
DICTIONARY
  5
1A
100
AcDbDictionary
281
1
  3
Layout1
350
1E
  3
Layout2
350
26
  3
Model
350
22
  0
LAYOUT
  5
1E
100
AcDbPlotSettings
  1

  2
C:\Program Files\AutoCAD 2002\plotters\DWF ePlot (optimized for plotting).pc3
  4

  6

 40
0.0
 41
0.0
 42
0.0
 43
0.0
 44
0.0
 45
0.0
 46
0.0
 47
0.0
 48
0.0
 49
0.0
140
0.0
141
0.0
142
1.0
143
1.0
 70
688
 72
0
 73
0
 74
5
  7

 75
16
147
1.0
148
0.0
149
0.0
100
AcDbLayout
  1
Layout1
 70
1
 71
1
 10
0.0
 20
0.0
 11
420.0
 21
297.0
 12
0.0
 22
0.0
 32
0.0
 14
100000000000000000000.0
 24
100000000000000000000.0
 34
100000000000000000000.0
 15
-100000000000000000000.0
 25
-100000000000000000000.0
 35
-100000000000000000000.0
146
0.0
 13
0.0
 23
0.0
 33
0.0
 16
1.0
 26
0.0
 36
0.0
 17
0.0
 27
1.0
 37
0.0
 76
0
330
1B
  0
LAYOUT
  5
22
100
AcDbPlotSettings
  1

  2
C:\Program Files\AutoCAD 2002\plotters\DWF ePlot (optimized for plotting).pc3
  4

  6

 40
0.0
 41
0.0
 42
0.0
 43
0.0
 44
0.0
 45
0.0
 46
0.0
 47
0.0
 48
0.0
 49
0.0
140
0.0
141
0.0
142
1.0
143
1.0
 70
1712
 72
0
 73
0
 74
0
  7

 75
0
147
1.0
148
0.0
149
0.0
100
AcDbLayout
  1
Model
 70
1
 71
0
 10
0.0
 20
0.0
 11
12.0
 21
9.0
 12
0.0
 22
0.0
 32
0.0
 14
0.0
 24
0.0
 34
0.0
 15
0.0
 25
0.0
 35
0.0
146
0.0
 13
0.0
 23
0.0
 33
0.0
 16
1.0
 26
0.0
 36
0.0
 17
0.0
 27
1.0
 37
0.0
 76
0
330
1F
  0
LAYOUT
  5
26
100
AcDbPlotSettings
  1

  2
C:\Program Files\AutoCAD 2002\plotters\DWF ePlot (optimized for plotting).pc3
  4

  6

 40
0.0
 41
0.0
 42
0.0
 43
0.0
 44
0.0
 45
0.0
 46
0.0
 47
0.0
 48
0.0
 49
0.0
140
0.0
141
0.0
142
1.0
143
1.0
 70
688
 72
0
 73
0
 74
5
  7

 75
16
147
1.0
148
0.0
149
0.0
100
AcDbLayout
  1
Layout2
 70
1
 71
2
 10
0.0
 20
0.0
 11
12.0
 21
9.0
 12
0.0
 22
0.0
 32
0.0
 14
0.0
 24
0.0
 34
0.0
 15
0.0
 25
0.0
 35
0.0
146
0.0
 13
0.0
 23
0.0
 33
0.0
 16
1.0
 26
0.0
 36
0.0
 17
0.0
 27
1.0
 37
0.0
 76
0
330
23
  0
DICTIONARY
  5
69
100
AcDbDictionary
281
1
  3
DIMASSOC
350
6B
  3
HIDETEXT
350
6A
  0
DICTIONARYVAR
  5
6A
100
DictionaryVariables
280
0
  1
2
  0
DICTIONARYVAR
  5
6B
100
DictionaryVariables
280
0
  1
1
  0
ENDSEC
  0
EOF
